{"glyphs":{"0":{"ha":806,"x_min":35,"x_max":771,"o":"m 771 502 q 743 274 771 371 q 665 114 715 177 q 548 20 615 51 q 401 -11 480 -11 q 256 20 323 -11 q 140 114 189 51 q 63 274 90 177 q 35 502 35 371 q 63 731 35 634 q 140 890 90 827 q 256 984 189 953 q 401 1015 323 1015 q 548 984 480 1015 q 665 890 615 953 q 743 731 715 827 q 771 502 771 634 m 594 502 q 578 683 594 611 q 535 797 562 754 q 474 856 508 839 q 401 873 439 873 q 330 856 365 873 q 269 797 296 839 q 227 683 243 754 q 212 502 212 611 q 227 322 212 393 q 269 208 243 250 q 330 148 296 165 q 401 131 365 131 q 474 148 439 131 q 535 208 508 165 q 578 322 562 250 q 594 502 594 393 z "},"1":{"ha":806,"x_min":91,"x_max":719,"o":"m 719 128 l 719 0 l 163 0 l 163 128 l 367 128 l 367 714 q 369 785 367 749 l 224 665 q 200 652 212 655 q 177 652 188 650 q 158 659 166 654 q 145 671 149 665 l 91 745 l 397 1006 l 538 1006 l 538 128 l 719 128 z "},"2":{"ha":806,"x_min":53,"x_max":742,"o":"m 681 160 q 725 144 709 160 q 742 103 742 128 l 742 0 l 53 0 l 53 57 q 60 93 53 74 q 83 128 67 113 l 388 433 q 457 508 426 472 q 507 578 487 543 q 538 648 527 613 q 549 724 549 684 q 538 787 549 760 q 509 833 528 815 q 463 861 490 852 q 403 871 436 871 q 346 862 372 871 q 300 838 320 853 q 266 801 280 822 q 245 756 252 781 q 215 713 233 724 q 160 708 196 703 l 70 724 q 110 851 81 797 q 185 942 140 906 q 288 997 230 978 q 413 1015 346 1015 q 540 995 482 1015 q 638 937 597 974 q 702 847 679 899 q 725 729 725 794 q 709 626 725 674 q 665 536 692 579 q 601 453 638 493 q 524 371 564 413 l 297 140 q 362 155 330 149 q 424 160 394 160 l 681 160 z "},"3":{"ha":806,"x_min":46,"x_max":740,"o":"m 75 724 q 115 851 85 797 q 190 942 145 906 q 293 997 235 978 q 417 1015 351 1015 q 543 995 487 1015 q 638 941 599 976 q 699 858 678 906 q 720 756 720 811 q 709 672 720 708 q 678 608 699 635 q 628 563 658 581 q 561 531 599 544 q 696 444 651 503 q 740 298 740 386 q 713 165 740 223 q 638 68 685 108 q 528 9 590 29 q 397 -11 466 -11 q 265 6 321 -11 q 167 58 208 24 q 96 141 125 92 q 46 255 67 190 l 122 286 q 177 293 151 299 q 215 265 203 287 q 243 217 228 240 q 278 175 258 193 q 327 145 299 156 q 394 133 356 133 q 471 148 438 133 q 525 185 503 162 q 558 236 547 208 q 569 292 569 264 q 561 358 569 328 q 529 408 553 388 q 459 441 505 429 q 338 453 414 453 l 338 575 q 442 587 401 576 q 509 618 484 598 q 543 665 533 638 q 553 726 553 693 q 513 834 553 797 q 408 871 474 871 q 351 862 377 871 q 305 838 326 853 q 271 801 285 822 q 250 756 257 781 q 219 713 238 724 q 165 708 200 703 l 75 724 z "},"4":{"ha":806,"x_min":6,"x_max":770,"o":"m 494 378 l 494 707 q 501 810 494 753 l 189 378 l 494 378 m 770 378 l 770 279 q 761 255 770 265 q 735 245 752 245 l 644 245 l 644 0 l 494 0 l 494 245 l 71 245 q 40 256 53 245 q 24 283 27 267 l 6 369 l 481 1005 l 644 1005 l 644 378 l 770 378 z "},"5":{"ha":806,"x_min":60,"x_max":728,"o":"m 282 640 q 346 650 315 647 q 405 653 376 653 q 544 629 484 653 q 646 564 605 606 q 708 466 687 522 q 728 346 728 410 q 700 200 728 266 q 622 87 672 134 q 504 15 572 40 q 355 -11 435 -11 q 265 -1 308 -11 q 186 25 223 8 q 117 62 149 41 q 60 107 85 83 l 113 180 q 157 203 130 203 q 192 192 174 203 q 234 168 210 181 q 289 144 257 155 q 365 133 320 133 q 448 148 412 133 q 508 191 484 163 q 544 256 532 218 q 556 338 556 294 q 509 466 556 420 q 368 513 461 513 q 222 486 297 513 l 115 517 l 198 1004 l 694 1004 l 694 931 q 671 872 694 894 q 593 849 648 849 l 317 849 l 282 640 z "},"6":{"ha":806,"x_min":58,"x_max":760,"o":"m 363 640 l 328 597 q 391 619 357 611 q 463 627 424 627 q 574 608 520 627 q 669 552 628 590 q 735 458 710 514 q 760 326 760 401 q 734 195 760 256 q 662 88 708 133 q 550 15 615 42 q 405 -11 484 -11 q 260 15 324 -11 q 151 86 197 40 q 82 198 106 133 q 58 342 58 263 q 87 487 58 413 q 176 642 116 562 l 416 964 q 452 992 428 981 q 508 1004 476 1004 l 660 1004 l 363 640 m 401 129 q 477 143 442 129 q 536 182 511 157 q 574 241 560 207 q 588 314 588 274 q 575 391 588 357 q 538 450 562 426 q 479 486 513 474 q 404 499 445 499 q 330 485 363 499 q 273 446 297 471 q 236 388 249 422 q 223 315 223 354 q 234 239 223 274 q 268 181 246 205 q 324 143 291 156 q 401 129 358 129 z "},"7":{"ha":806,"x_min":65,"x_max":758,"o":"m 758 1004 l 758 930 q 751 876 758 897 q 738 842 744 856 l 357 58 q 324 17 345 34 q 266 0 302 0 l 142 0 l 530 767 q 556 811 543 791 q 585 849 569 831 l 104 849 q 76 860 88 849 q 65 888 65 872 l 65 1004 l 758 1004 z "},"8":{"ha":806,"x_min":54,"x_max":751,"o":"m 403 123 q 477 135 445 123 q 531 169 509 147 q 564 220 553 190 q 575 285 575 250 q 529 410 575 367 q 403 452 483 452 q 276 410 322 452 q 231 285 231 367 q 242 220 231 250 q 275 169 253 190 q 328 135 297 147 q 403 123 360 123 m 403 886 q 337 874 365 886 q 291 843 309 863 q 264 797 272 823 q 255 743 255 772 q 262 685 255 713 q 287 635 269 657 q 333 600 304 613 q 403 587 361 587 q 473 600 444 587 q 519 635 501 613 q 543 685 536 657 q 551 743 551 713 q 542 797 551 772 q 515 843 533 823 q 469 874 497 863 q 403 886 441 886 m 572 524 q 708 432 664 494 q 751 282 751 371 q 726 161 751 215 q 655 69 701 107 q 545 10 609 31 q 403 -11 481 -11 q 261 10 325 -11 q 151 69 197 31 q 80 161 105 107 q 54 282 54 215 q 98 432 54 371 q 233 524 142 494 q 124 610 160 554 q 88 746 88 667 q 111 852 88 803 q 176 938 134 901 q 275 995 217 974 q 403 1015 333 1015 q 530 995 472 1015 q 630 938 588 974 q 695 852 672 901 q 718 746 718 803 q 682 610 718 667 q 572 524 645 554 z "},"9":{"ha":806,"x_min":58,"x_max":734,"o":"m 229 703 q 273 575 229 619 q 396 531 316 531 q 470 544 438 531 q 525 580 503 557 q 559 634 547 603 q 570 701 570 665 q 558 775 570 742 q 522 829 545 807 q 468 863 499 851 q 399 875 436 875 q 328 862 360 875 q 275 826 297 849 q 241 772 253 803 q 229 703 229 740 m 457 390 q 479 418 469 404 q 499 446 490 432 q 423 412 465 424 q 335 401 381 401 q 233 419 283 401 q 144 473 183 437 q 82 564 106 510 q 58 690 58 617 q 83 816 58 757 q 153 919 108 875 q 261 990 198 964 q 401 1015 324 1015 q 539 991 478 1015 q 644 923 601 967 q 711 818 688 879 q 734 684 734 757 q 726 596 734 638 q 703 516 718 554 q 668 440 689 477 q 622 367 647 403 l 392 40 q 356 11 380 23 q 303 0 333 0 l 145 0 l 457 390 z "},"\u0000":{"ha":0,"x_min":0,"x_max":0,"o":""}," ":{"ha":338,"x_min":0,"x_max":0,"o":""},"A":{"ha":965,"x_min":-8,"x_max":972,"o":"m 642 379 l 520 713 q 501 766 511 735 q 482 832 492 797 q 463 766 473 797 q 444 712 453 735 l 323 379 l 642 379 m 972 0 l 828 0 q 788 12 803 0 q 765 42 773 24 l 690 247 l 274 247 l 199 42 q 178 13 194 26 q 138 0 162 0 l -8 0 l 388 1004 l 578 1004 l 972 0 z "},"Ą":{"ha":963,"x_min":-9,"x_max":1005,"o":"m 641 379 l 519 713 q 500 766 510 735 q 481 832 490 797 q 462 766 472 797 q 443 712 452 735 l 322 379 l 641 379 m 1005 -204 q 948 -230 982 -219 q 875 -240 913 -240 q 770 -211 807 -240 q 733 -137 733 -183 q 759 -64 733 -99 q 831 0 784 -29 l 826 0 q 787 12 802 0 q 764 42 772 24 l 689 247 l 273 247 l 198 42 q 176 13 192 26 q 137 0 160 0 l -9 0 l 386 1004 l 576 1004 l 971 0 l 935 0 q 908 -17 921 -8 q 884 -39 894 -27 q 867 -65 874 -51 q 861 -94 861 -79 q 874 -127 861 -115 q 911 -140 888 -140 q 933 -138 924 -140 q 946 -135 941 -137 q 955 -131 951 -133 q 963 -130 959 -130 q 978 -141 975 -130 l 1005 -204 z "},"Æ":{"ha":1296,"x_min":-14,"x_max":1242,"o":"m 642 379 l 582 865 q 559 799 571 830 q 535 741 547 767 l 360 379 l 642 379 m 760 856 l 794 577 l 1147 577 l 1147 433 l 812 433 l 847 149 l 1242 149 l 1242 0 l 688 0 l 658 247 l 297 247 l 198 42 q 171 11 189 23 q 128 0 153 0 l -14 0 l 497 1004 l 1242 1004 l 1242 856 l 760 856 z "},"B":{"ha":915,"x_min":112,"x_max":856,"o":"m 488 146 q 575 158 540 146 q 632 192 610 171 q 662 240 653 213 q 672 299 672 268 q 661 358 672 332 q 628 402 651 384 q 571 431 606 421 q 487 440 536 440 l 299 440 l 299 146 l 488 146 m 299 860 l 299 569 l 447 569 q 592 604 543 569 q 641 715 641 639 q 597 826 641 793 q 458 860 552 860 l 299 860 m 458 1004 q 626 985 556 1004 q 741 932 697 967 q 807 848 786 897 q 828 737 828 799 q 817 669 828 701 q 785 609 807 637 q 730 558 763 581 q 649 519 696 535 q 856 295 856 472 q 832 177 856 231 q 761 84 808 123 q 647 22 715 44 q 491 0 578 0 l 112 0 l 112 1004 l 458 1004 z "},"C":{"ha":919,"x_min":53,"x_max":902,"o":"m 801 237 q 828 225 817 237 l 902 145 q 752 29 841 69 q 538 -11 663 -11 q 336 27 426 -11 q 184 133 247 65 q 87 296 121 201 q 53 502 53 390 q 90 709 53 615 q 191 872 126 803 q 348 977 257 940 q 549 1015 439 1015 q 744 979 659 1015 q 889 885 829 943 l 826 798 q 812 783 821 790 q 788 777 803 777 q 767 783 778 777 q 742 798 756 789 q 712 817 729 806 q 672 836 694 827 q 618 850 649 844 q 549 856 588 856 q 425 832 481 856 q 329 763 369 808 q 267 652 289 717 q 244 502 244 586 q 268 351 244 417 q 333 240 292 285 q 430 171 374 195 q 549 147 485 147 q 618 151 588 147 q 675 165 649 156 q 725 188 701 174 q 771 223 748 202 q 785 233 778 229 q 801 237 793 237 z "},"Ç":{"ha":919,"x_min":53,"x_max":902,"o":"m 902 145 q 769 37 847 76 q 583 -10 690 -2 l 574 -42 q 666 -84 640 -58 q 692 -146 692 -110 q 680 -188 692 -169 q 645 -220 668 -207 q 592 -240 623 -233 q 523 -247 560 -247 q 470 -243 494 -247 q 421 -232 445 -240 l 437 -178 q 457 -162 441 -162 q 478 -168 467 -162 q 512 -173 490 -173 q 546 -164 535 -173 q 558 -143 558 -156 q 533 -114 558 -123 q 456 -98 508 -106 l 486 -9 q 306 41 386 0 q 169 150 226 83 q 83 307 113 217 q 53 502 53 397 q 90 709 53 615 q 191 872 126 803 q 348 977 257 940 q 549 1015 439 1015 q 744 979 659 1015 q 889 885 829 943 l 826 798 q 812 783 821 790 q 788 777 803 777 q 767 783 778 777 q 742 798 756 789 q 712 817 729 806 q 672 836 694 827 q 618 850 649 844 q 549 856 588 856 q 425 832 481 856 q 329 763 369 808 q 267 652 289 717 q 244 502 244 586 q 268 351 244 417 q 333 240 292 285 q 430 171 374 195 q 549 147 485 147 q 618 151 588 147 q 675 165 649 156 q 725 188 701 174 q 771 223 748 202 q 785 233 778 229 q 801 237 793 237 q 828 225 817 237 l 902 145 z "},"D":{"ha":1056,"x_min":112,"x_max":1003,"o":"m 1003 502 q 967 299 1003 392 q 863 140 930 207 q 703 37 797 74 q 494 0 609 0 l 112 0 l 112 1004 l 494 1004 q 703 967 609 1004 q 863 864 797 930 q 967 705 930 797 q 1003 502 1003 613 m 812 502 q 790 650 812 585 q 727 761 768 716 q 627 831 685 807 q 494 856 568 856 l 299 856 l 299 149 l 494 149 q 627 173 568 149 q 727 243 685 197 q 790 354 768 288 q 812 502 812 419 z "},"Ð":{"ha":1069,"x_min":-1,"x_max":1017,"o":"m 508 149 q 640 173 581 149 q 740 243 699 197 q 803 354 781 288 q 825 502 825 419 q 803 650 825 585 q 740 761 781 716 q 640 831 699 807 q 508 856 581 856 l 313 856 l 313 558 l 497 558 l 497 452 l 313 452 l 313 149 l 508 149 m 508 1004 q 716 967 622 1004 q 876 864 810 930 q 980 705 943 797 q 1017 502 1017 613 q 980 299 1017 392 q 876 140 943 207 q 716 37 810 74 q 508 0 622 0 l 125 0 l 125 452 l -1 452 l -1 558 l 125 558 l 125 1004 l 508 1004 z "},"E":{"ha":799,"x_min":112,"x_max":745,"o":"m 299 856 l 299 577 l 651 577 l 651 433 l 299 433 l 299 149 l 745 149 l 745 0 l 112 0 l 112 1004 l 745 1004 l 745 856 l 299 856 z "},"Ę":{"ha":799,"x_min":112,"x_max":751,"o":"m 751 -204 q 694 -230 728 -219 q 622 -240 660 -240 q 517 -211 553 -240 q 480 -137 480 -183 q 505 -64 480 -99 q 578 0 531 -29 l 112 0 l 112 1004 l 745 1004 l 745 856 l 299 856 l 299 577 l 651 577 l 651 433 l 299 433 l 299 149 l 745 149 l 745 0 l 681 0 q 654 -17 667 -8 q 631 -39 641 -27 q 614 -65 620 -51 q 608 -94 608 -79 q 621 -127 608 -115 q 658 -140 634 -140 q 679 -138 671 -140 q 693 -135 688 -137 q 702 -131 698 -133 q 709 -130 706 -130 q 725 -141 722 -130 l 751 -204 z "},"F":{"ha":786,"x_min":112,"x_max":745,"o":"m 299 856 l 299 558 l 676 558 l 676 409 l 299 409 l 299 0 l 112 0 l 112 1004 l 745 1004 l 745 856 l 299 856 z "},"G":{"ha":1008,"x_min":52,"x_max":940,"o":"m 940 503 l 940 97 q 777 15 863 41 q 592 -11 690 -11 q 369 27 469 -11 q 199 133 269 65 q 90 296 128 201 q 52 502 52 390 q 89 710 52 615 q 193 872 126 804 q 358 978 261 940 q 574 1015 454 1015 q 689 1006 635 1015 q 787 979 742 996 q 870 938 833 962 q 939 884 908 913 l 885 799 q 853 775 873 779 q 809 785 833 770 q 763 811 786 798 q 712 834 740 824 q 649 850 684 844 q 568 856 614 856 q 434 831 494 856 q 331 760 374 806 q 266 648 289 713 q 243 502 243 583 q 268 348 243 416 q 337 234 292 281 q 445 162 382 187 q 586 138 508 138 q 685 149 642 138 q 771 181 729 161 l 771 363 l 644 363 q 616 373 626 363 q 606 398 606 383 l 606 503 l 940 503 z "},"H":{"ha":1070,"x_min":112,"x_max":958,"o":"m 958 1004 l 958 0 l 771 0 l 771 439 l 299 439 l 299 0 l 112 0 l 112 1004 l 299 1004 l 299 572 l 771 572 l 771 1004 l 958 1004 z "},"Ħ":{"ha":1084,"x_min":14,"x_max":1070,"o":"m 778 719 l 306 719 l 306 572 l 778 572 l 778 719 m 1070 719 l 965 719 l 965 0 l 778 0 l 778 439 l 306 439 l 306 0 l 119 0 l 119 719 l 14 719 l 14 828 l 119 828 l 119 1004 l 306 1004 l 306 828 l 778 828 l 778 1004 l 965 1004 l 965 828 l 1070 828 l 1070 719 z "},"I":{"ha":412,"x_min":112,"x_max":299,"o":"m 299 0 l 112 0 l 112 1004 l 299 1004 l 299 0 z "},"Į":{"ha":412,"x_min":71,"x_max":342,"o":"m 342 -204 q 285 -230 319 -219 q 213 -240 251 -240 q 108 -211 144 -240 q 71 -137 71 -183 q 96 -64 71 -99 q 169 0 122 -29 l 112 0 l 112 1004 l 299 1004 l 299 0 l 272 0 q 245 -17 258 -8 q 222 -39 232 -27 q 205 -65 211 -51 q 199 -94 199 -79 q 212 -127 199 -115 q 249 -140 225 -140 q 270 -138 262 -140 q 284 -135 278 -137 q 293 -131 289 -133 q 300 -130 297 -130 q 316 -141 313 -130 l 342 -204 z "},"J":{"ha":597,"x_min":15,"x_max":494,"o":"m 494 357 q 474 204 494 272 q 411 88 453 136 q 308 15 370 40 q 165 -11 247 -11 q 91 -7 127 -11 q 15 8 55 -2 q 20 63 17 35 q 25 119 23 91 q 37 143 27 134 q 66 153 47 153 q 97 148 78 153 q 145 143 116 143 q 215 155 185 143 q 266 191 246 166 q 297 256 287 216 q 308 353 308 296 l 308 1004 l 494 1004 l 494 357 z "},"K":{"ha":952,"x_min":112,"x_max":964,"o":"m 299 583 l 342 583 q 386 591 369 583 q 416 614 403 598 l 693 965 q 730 995 710 987 q 778 1004 749 1004 l 939 1004 l 601 587 q 539 533 571 549 q 580 509 562 524 q 615 470 599 494 l 964 0 l 799 0 q 750 9 766 0 q 722 37 733 19 l 438 408 q 408 434 425 426 q 358 442 390 442 l 299 442 l 299 0 l 112 0 l 112 1004 l 299 1004 l 299 583 z "},"L":{"ha":722,"x_min":112,"x_max":700,"o":"m 700 154 l 700 0 l 112 0 l 112 1004 l 299 1004 l 299 154 l 700 154 z "},"Ł":{"ha":744,"x_min":9,"x_max":722,"o":"m 722 154 l 722 0 l 134 0 l 134 366 l 9 303 l 9 433 q 30 466 9 456 l 134 520 l 134 1004 l 321 1004 l 321 604 l 569 728 l 569 603 q 546 565 569 574 l 321 449 l 321 154 l 722 154 z "},"Ľ":{"ha":722,"x_min":112,"x_max":700,"o":"m 700 154 l 700 0 l 112 0 l 112 1004 l 299 1004 l 299 154 l 700 154 m 561 1033 q 585 1025 581 1033 q 590 1008 590 1016 q 587 991 590 1001 q 577 959 585 980 q 557 907 570 939 q 523 824 544 874 q 500 799 514 804 q 464 793 486 793 l 403 793 l 446 1033 l 561 1033 z "},"M":{"ha":1313,"x_min":112,"x_max":1201,"o":"m 1201 1004 l 1201 0 l 1036 0 l 1036 649 q 1040 733 1036 688 l 737 163 q 671 122 715 122 l 644 122 q 578 163 600 122 l 272 735 q 275 690 274 712 q 276 649 276 667 l 276 0 l 112 0 l 112 1004 l 253 1004 q 274 1003 265 1004 q 291 1000 283 1003 q 304 991 298 997 q 315 974 310 985 l 616 417 q 638 371 628 394 q 658 322 648 347 q 678 372 667 348 q 700 418 688 396 l 997 974 q 1008 991 1002 985 q 1022 1000 1015 997 q 1038 1003 1029 1003 q 1060 1004 1047 1004 l 1201 1004 z "},"N":{"ha":1070,"x_min":112,"x_max":958,"o":"m 958 1004 l 958 0 l 863 0 q 825 7 840 0 q 797 32 810 15 l 272 701 q 276 617 276 656 l 276 0 l 112 0 l 112 1004 l 210 1004 q 230 1003 222 1004 q 245 999 239 1002 q 258 990 252 996 q 272 974 265 984 l 799 302 q 795 350 797 326 q 794 394 794 374 l 794 1004 l 958 1004 z "},"Ŋ":{"ha":1070,"x_min":112,"x_max":958,"o":"m 958 1004 l 958 27 q 944 -84 958 -33 q 900 -170 931 -134 q 822 -227 870 -207 q 706 -248 774 -248 q 639 -241 669 -248 q 576 -220 610 -235 l 594 -146 q 610 -119 600 -126 q 632 -112 620 -112 q 655 -117 642 -112 q 690 -121 667 -121 q 768 -90 742 -121 q 794 8 794 -58 l 794 35 l 272 701 q 276 617 276 656 l 276 0 l 112 0 l 112 1004 l 210 1004 q 230 1003 222 1004 q 245 999 239 1002 q 258 990 252 996 q 272 974 265 984 l 799 302 q 795 350 797 326 q 794 394 794 374 l 794 1004 l 958 1004 z "},"O":{"ha":1122,"x_min":52,"x_max":1069,"o":"m 1069 502 q 1033 298 1069 392 q 930 135 997 203 q 769 27 863 66 q 561 -11 676 -11 q 353 27 447 -11 q 193 135 260 66 q 89 298 126 203 q 52 502 52 392 q 89 707 52 613 q 193 869 126 801 q 353 977 260 938 q 561 1015 447 1015 q 705 998 638 1015 q 828 948 772 980 q 930 869 885 915 q 1006 766 974 823 q 1053 642 1037 709 q 1069 502 1069 576 m 878 502 q 856 650 878 585 q 793 762 834 716 q 693 832 752 808 q 561 856 635 856 q 429 832 488 856 q 329 762 370 808 q 265 650 288 716 q 243 502 243 585 q 265 354 243 419 q 329 243 288 288 q 429 173 370 197 q 561 149 488 149 q 693 173 635 149 q 793 243 752 197 q 856 354 834 288 q 878 502 878 419 z "},"Ø":{"ha":1122,"x_min":52,"x_max":1069,"o":"m 411 181 q 561 149 477 149 q 693 173 635 149 q 793 243 752 197 q 856 354 834 288 q 878 502 878 419 q 862 632 878 574 q 815 735 846 691 l 411 181 m 731 813 q 653 845 696 834 q 561 856 610 856 q 429 832 488 856 q 329 762 370 808 q 265 650 288 716 q 243 502 243 585 q 263 359 243 422 q 322 250 283 296 l 731 813 m 919 879 q 1030 714 991 810 q 1069 502 1069 617 q 1033 298 1069 392 q 930 135 997 203 q 769 27 863 66 q 561 -11 676 -11 q 429 3 491 -11 q 313 46 367 18 l 260 -27 q 213 -66 240 -55 q 158 -77 185 -77 l 84 -77 l 219 109 q 96 279 140 178 q 52 502 52 380 q 89 707 52 613 q 193 869 126 801 q 353 977 260 938 q 561 1015 447 1015 q 705 998 638 1015 q 829 947 772 981 l 870 1004 q 887 1025 879 1017 q 903 1040 894 1034 q 922 1048 911 1045 q 948 1050 933 1050 l 1043 1050 l 919 879 z "},"Œ":{"ha":1502,"x_min":53,"x_max":1449,"o":"m 531 144 q 650 169 597 144 q 740 240 703 194 q 796 353 776 287 q 815 502 815 419 q 796 651 815 585 q 740 764 776 717 q 650 836 703 811 q 531 861 597 861 q 411 836 465 861 q 322 764 358 811 q 265 651 285 717 q 245 502 245 585 q 265 353 245 419 q 322 240 285 287 q 411 169 358 194 q 531 144 465 144 m 1449 149 l 1448 0 l 838 0 l 838 129 q 695 26 778 63 q 512 -10 613 -10 q 325 28 409 -10 q 180 135 240 67 q 86 298 119 203 q 53 502 53 392 q 86 707 53 613 q 180 869 119 801 q 325 977 240 938 q 512 1015 409 1015 q 695 978 613 1015 q 838 875 778 942 l 838 1004 l 1448 1004 l 1448 856 l 1003 856 l 1003 577 l 1354 577 l 1354 433 l 1003 433 l 1003 149 l 1449 149 z "},"P":{"ha":860,"x_min":112,"x_max":828,"o":"m 438 499 q 528 512 490 499 q 591 549 566 525 q 629 607 617 573 q 642 684 642 642 q 629 757 642 724 q 592 813 617 790 q 528 848 567 835 q 438 860 490 860 l 299 860 l 299 499 l 438 499 m 438 1004 q 613 981 539 1004 q 734 915 686 957 q 805 813 782 872 q 828 684 828 754 q 804 550 828 611 q 731 446 780 490 q 609 378 683 402 q 438 353 536 353 l 299 353 l 299 0 l 112 0 l 112 1004 l 438 1004 z "},"Þ":{"ha":855,"x_min":112,"x_max":828,"o":"m 438 327 q 528 340 490 327 q 591 377 566 353 q 629 435 617 401 q 642 512 642 469 q 629 585 642 552 q 592 640 617 617 q 528 675 567 663 q 438 688 490 688 l 299 688 l 299 327 l 438 327 m 438 832 q 613 808 539 832 q 734 742 686 785 q 805 641 782 700 q 828 512 828 582 q 804 378 828 439 q 731 274 780 317 q 609 206 683 230 q 438 181 536 181 l 299 181 l 299 0 l 112 0 l 112 1004 l 299 1004 l 299 832 l 438 832 z "},"Q":{"ha":1122,"x_min":53,"x_max":1122,"o":"m 244 502 q 266 354 244 419 q 330 243 288 288 q 430 173 371 197 q 562 149 488 149 q 694 173 635 149 q 794 243 753 197 q 857 354 835 288 q 879 502 879 419 q 857 650 879 585 q 794 762 835 716 q 694 832 753 808 q 562 856 635 856 q 430 832 488 856 q 330 762 371 808 q 266 650 288 716 q 244 502 244 585 m 1122 -197 l 968 -197 q 908 -187 935 -197 q 859 -154 881 -178 l 712 8 q 639 -6 676 -1 q 562 -11 602 -11 q 354 27 448 -11 q 193 135 260 66 q 90 298 126 203 q 53 502 53 392 q 90 707 53 613 q 193 869 126 801 q 354 977 260 938 q 562 1015 448 1015 q 706 998 638 1015 q 829 948 773 980 q 930 869 885 915 q 1006 766 975 823 q 1054 642 1038 709 q 1070 502 1070 576 q 1056 373 1070 435 q 1016 258 1042 312 q 953 160 990 205 q 867 81 915 115 l 1122 -197 z "},"R":{"ha":893,"x_min":112,"x_max":896,"o":"m 415 526 q 507 540 468 526 q 572 576 547 553 q 610 631 597 599 q 622 701 622 663 q 572 819 622 778 q 418 860 522 860 l 299 860 l 299 526 l 415 526 m 896 0 l 727 0 q 658 38 679 0 l 447 359 q 420 385 435 377 q 378 392 406 392 l 299 392 l 299 0 l 112 0 l 112 1004 l 418 1004 q 593 983 520 1004 q 714 924 667 962 q 783 832 760 885 q 805 715 805 779 q 790 619 805 665 q 747 538 775 574 q 677 473 719 501 q 583 429 636 445 q 617 405 601 419 q 644 371 632 390 l 896 0 z "},"S":{"ha":762,"x_min":32,"x_max":711,"o":"m 647 822 q 629 800 638 807 q 606 794 619 794 q 574 805 591 794 q 533 828 557 815 q 478 852 510 842 q 403 863 447 863 q 335 854 365 863 q 286 828 306 844 q 257 788 267 811 q 247 737 247 765 q 267 678 247 701 q 319 638 287 654 q 394 608 352 621 q 479 580 435 594 q 565 545 523 565 q 639 495 606 525 q 691 421 672 465 q 711 315 711 377 q 688 187 711 247 q 620 84 665 128 q 510 14 575 40 q 363 -11 446 -11 q 268 -2 315 -11 q 179 25 222 8 q 99 67 136 42 q 32 121 61 91 l 87 210 q 105 227 94 220 q 128 233 116 233 q 166 219 146 233 q 214 188 186 205 q 279 156 242 170 q 368 142 316 142 q 492 180 448 142 q 535 288 535 217 q 516 353 535 328 q 463 395 496 378 q 389 424 431 412 q 304 449 347 435 q 219 483 261 463 q 145 533 178 502 q 93 611 113 565 q 73 727 73 658 q 95 834 73 782 q 158 926 117 886 q 261 991 200 967 q 401 1015 322 1015 q 565 988 490 1015 q 693 910 640 960 l 647 822 z "},"Ş":{"ha":762,"x_min":32,"x_max":711,"o":"m 647 822 q 629 800 638 807 q 606 794 619 794 q 574 805 591 794 q 533 828 557 815 q 478 852 510 842 q 403 863 447 863 q 335 854 365 863 q 286 828 306 844 q 257 788 267 811 q 247 737 247 765 q 267 678 247 701 q 319 638 287 654 q 394 608 352 621 q 479 580 435 594 q 565 545 523 565 q 639 495 606 525 q 691 421 672 465 q 711 315 711 377 q 693 200 711 254 q 639 104 674 147 q 552 33 603 62 q 433 -6 500 5 l 423 -42 q 515 -84 488 -58 q 541 -146 541 -110 q 529 -188 541 -169 q 494 -220 517 -207 q 440 -240 472 -233 q 372 -247 409 -247 q 318 -243 343 -247 q 269 -232 294 -240 l 285 -178 q 306 -162 290 -162 q 327 -168 315 -162 q 360 -173 338 -173 q 395 -164 383 -173 q 406 -143 406 -156 q 381 -114 406 -123 q 304 -98 356 -106 l 334 -10 q 248 3 290 -8 q 166 30 205 13 q 93 70 127 47 q 32 121 59 93 l 87 210 q 105 227 94 220 q 128 233 116 233 q 166 219 146 233 q 214 188 186 205 q 279 156 242 170 q 368 142 316 142 q 492 180 448 142 q 535 288 535 217 q 516 353 535 328 q 463 395 496 378 q 389 424 431 412 q 304 449 347 435 q 219 483 261 463 q 145 533 178 502 q 93 611 113 565 q 73 727 73 658 q 95 834 73 782 q 158 926 117 886 q 261 991 200 967 q 401 1015 322 1015 q 565 988 490 1015 q 693 910 640 960 l 647 822 z "},"T":{"ha":833,"x_min":21,"x_max":813,"o":"m 813 851 l 510 851 l 510 0 l 324 0 l 324 851 l 21 851 l 21 1004 l 813 1004 l 813 851 z "},"Ŧ":{"ha":851,"x_min":29,"x_max":822,"o":"m 519 851 l 519 592 l 736 592 l 736 486 l 519 486 l 519 0 l 332 0 l 332 486 l 115 486 l 115 592 l 332 592 l 332 851 l 29 851 l 29 1004 l 822 1004 l 822 851 l 519 851 z "},"U":{"ha":1031,"x_min":99,"x_max":932,"o":"m 516 151 q 613 169 570 151 q 685 219 656 187 q 730 299 714 252 q 745 403 745 345 l 745 1004 l 932 1004 l 932 403 q 903 237 932 313 q 820 106 874 161 q 690 20 767 51 q 516 -11 613 -11 q 342 20 419 -11 q 211 106 265 51 q 128 237 157 161 q 99 403 99 313 l 99 1004 l 286 1004 l 286 403 q 302 299 286 346 q 347 220 317 253 q 419 169 376 187 q 516 151 462 151 z "},"Ų":{"ha":1031,"x_min":99,"x_max":932,"o":"m 932 1004 l 932 403 q 909 253 932 322 q 843 131 886 184 q 737 42 799 77 q 595 -6 674 7 q 570 -23 582 -13 q 549 -43 558 -32 q 534 -68 540 -55 q 528 -96 528 -81 q 542 -129 528 -117 q 578 -141 555 -141 q 600 -140 592 -141 q 614 -136 608 -138 q 623 -133 619 -134 q 630 -131 626 -131 q 646 -142 642 -131 l 672 -206 q 615 -231 649 -221 q 542 -241 581 -241 q 438 -212 474 -241 q 401 -139 401 -184 q 423 -70 401 -103 q 485 -10 444 -37 q 324 27 395 -6 q 202 115 252 60 q 126 243 152 170 q 99 403 99 317 l 99 1004 l 286 1004 l 286 403 q 302 299 286 346 q 347 220 317 253 q 419 169 376 187 q 516 151 462 151 q 613 169 570 151 q 685 219 656 187 q 730 299 714 252 q 745 403 745 345 l 745 1004 l 932 1004 z "},"V":{"ha":965,"x_min":-8,"x_max":972,"o":"m 972 1004 l 567 0 l 398 0 l -8 1004 l 142 1004 q 182 992 167 1004 q 205 962 197 981 l 442 349 q 464 284 453 319 q 485 209 475 248 q 503 284 493 248 q 524 349 513 319 l 760 962 q 782 991 765 978 q 822 1004 798 1004 l 972 1004 z "},"W":{"ha":1460,"x_min":12,"x_max":1448,"o":"m 1448 1004 l 1136 0 l 967 0 l 748 686 q 731 747 739 711 q 723 715 727 730 q 714 686 719 699 l 492 0 l 323 0 l 12 1004 l 168 1004 q 209 993 192 1004 q 231 962 225 981 l 401 361 q 412 313 407 339 q 423 258 417 287 q 435 313 428 288 q 449 361 442 339 l 647 962 q 668 991 652 978 q 708 1004 685 1004 l 763 1004 q 803 992 788 1004 q 826 962 818 981 l 1022 361 q 1049 262 1037 318 q 1069 361 1058 317 l 1240 962 q 1261 992 1244 979 q 1301 1004 1278 1004 l 1448 1004 z "},"X":{"ha":931,"x_min":2,"x_max":928,"o":"m 928 0 l 742 0 q 711 10 722 0 q 692 32 699 19 l 460 417 q 447 388 454 400 l 224 32 q 205 10 215 20 q 176 0 194 0 l 2 0 l 335 517 l 15 1004 l 201 1004 q 230 999 221 1004 q 246 982 238 994 l 474 614 q 491 649 481 631 l 701 978 q 717 998 708 992 q 740 1004 726 1004 l 919 1004 l 596 524 l 928 0 z "},"Y":{"ha":900,"x_min":-9,"x_max":909,"o":"m 543 389 l 543 0 l 357 0 l 357 389 l -9 1004 l 156 1004 q 194 992 180 1004 q 218 963 208 981 l 401 627 q 430 571 417 597 q 451 518 442 544 q 472 571 460 544 q 499 627 484 597 l 682 963 q 705 991 690 978 q 744 1004 720 1004 l 909 1004 l 543 389 z "},"Z":{"ha":841,"x_min":28,"x_max":803,"o":"m 803 935 q 785 877 803 903 l 270 149 l 792 149 l 792 0 l 28 0 l 28 74 q 33 100 28 88 q 45 124 38 113 l 562 856 l 60 856 l 60 1004 l 803 1004 l 803 935 z "},"a":{"ha":705,"x_min":34,"x_max":628,"o":"m 461 304 q 336 291 387 301 q 255 267 285 282 q 211 233 224 253 q 198 191 198 214 q 225 126 198 146 q 294 107 251 107 q 386 126 347 107 q 461 184 424 145 l 461 304 m 68 613 q 364 726 191 726 q 476 705 426 726 q 559 648 525 685 q 611 561 593 612 q 628 450 628 510 l 628 0 l 551 0 q 513 7 526 0 q 492 37 500 15 l 477 88 q 424 45 450 64 q 371 15 399 27 q 311 -5 343 2 q 242 -11 280 -11 q 158 1 197 -11 q 92 38 120 13 q 49 98 65 62 q 34 182 34 134 q 43 236 34 209 q 73 287 52 263 q 126 333 93 311 q 206 370 158 354 q 317 396 253 386 q 461 408 380 406 l 461 450 q 431 556 461 522 q 342 590 400 590 q 273 581 301 590 q 225 559 246 571 q 187 537 204 547 q 149 527 170 527 q 119 536 131 527 q 99 558 106 546 l 68 613 z "},"ą":{"ha":705,"x_min":34,"x_max":699,"o":"m 461 304 q 336 291 387 301 q 255 267 285 282 q 211 233 224 253 q 198 191 198 214 q 225 126 198 146 q 294 107 251 107 q 386 126 347 107 q 461 184 424 145 l 461 304 m 699 -204 q 641 -230 676 -219 q 569 -240 607 -240 q 464 -211 501 -240 q 427 -137 427 -183 q 453 -63 427 -99 q 528 2 480 -27 q 506 13 515 5 q 492 37 498 21 l 477 88 q 424 45 450 64 q 371 15 399 27 q 311 -5 343 2 q 242 -11 280 -11 q 158 1 197 -11 q 92 38 120 13 q 49 98 65 62 q 34 182 34 134 q 43 236 34 209 q 73 287 52 263 q 126 333 93 311 q 206 370 158 354 q 317 396 253 386 q 461 408 380 406 l 461 450 q 431 556 461 522 q 342 590 400 590 q 273 581 301 590 q 225 559 246 571 q 187 537 204 547 q 149 527 170 527 q 119 536 131 527 q 99 558 106 546 l 68 613 q 364 726 191 726 q 476 705 426 726 q 559 648 525 685 q 611 561 593 612 q 628 450 628 510 l 628 0 q 601 -17 615 -8 q 578 -39 588 -27 q 561 -65 567 -51 q 555 -94 555 -79 q 568 -127 555 -115 q 605 -140 581 -140 q 626 -138 618 -140 q 640 -135 635 -137 q 649 -131 645 -133 q 656 -130 653 -130 q 672 -141 669 -130 l 699 -204 z "},"æ":{"ha":1124,"x_min":35,"x_max":1079,"o":"m 463 321 q 338 307 388 317 q 257 280 288 296 q 213 243 226 264 q 200 199 200 222 q 227 129 200 151 q 301 107 253 107 q 365 117 335 107 q 416 150 394 128 q 450 206 438 172 q 463 289 463 241 l 463 321 m 926 424 q 918 490 926 458 q 892 547 910 522 q 849 586 875 572 q 788 601 823 601 q 675 555 715 601 q 626 424 635 508 l 926 424 m 625 321 q 683 170 635 219 q 807 122 731 122 q 884 131 854 122 q 933 151 914 140 q 966 172 953 163 q 993 181 978 181 q 1028 165 1018 181 l 1074 106 q 1011 50 1046 73 q 940 14 977 28 q 865 -5 903 1 q 791 -10 827 -10 q 650 24 715 -10 q 542 130 584 58 q 490 66 521 92 q 422 22 459 40 q 344 -3 385 5 q 260 -11 302 -11 q 167 2 208 -11 q 96 41 125 15 q 51 104 67 66 q 35 191 35 142 q 44 245 35 218 q 74 298 53 272 q 127 346 94 324 q 207 385 160 368 q 318 413 255 403 q 463 426 381 424 l 463 450 q 432 558 463 522 q 344 595 401 595 q 275 584 302 595 q 226 561 247 574 q 189 538 206 549 q 151 527 172 527 q 120 536 133 527 q 100 558 108 546 l 69 613 q 198 698 131 669 q 347 726 265 726 q 479 695 428 726 q 557 611 531 665 q 656 693 597 663 q 794 724 715 724 q 907 700 855 724 q 997 633 959 677 q 1057 527 1035 590 q 1079 387 1079 465 q 1077 355 1079 367 q 1072 334 1076 342 q 1060 324 1067 327 q 1041 321 1053 321 l 625 321 z "},"b":{"ha":788,"x_min":85,"x_max":740,"o":"m 256 185 q 320 135 285 149 q 392 120 354 120 q 464 134 432 120 q 517 179 495 149 q 551 256 540 209 q 563 368 563 303 q 524 538 563 485 q 413 590 485 590 q 326 568 363 590 q 256 504 290 545 l 256 185 m 256 625 q 352 697 299 670 q 472 724 404 724 q 583 699 533 724 q 668 630 633 675 q 722 519 703 584 q 740 374 740 455 q 719 217 740 288 q 657 95 697 146 q 561 17 617 45 q 436 -10 505 -10 q 376 -4 403 -10 q 326 15 349 3 q 284 43 303 26 q 247 81 265 60 l 240 33 q 225 8 235 15 q 198 0 215 0 l 85 0 l 85 1032 l 256 1032 l 256 625 z "},"c":{"ha":669,"x_min":47,"x_max":647,"o":"m 595 562 q 580 547 588 552 q 559 541 573 541 q 533 549 546 541 q 503 567 521 557 q 462 585 486 577 q 403 593 438 593 q 324 577 358 593 q 267 530 290 560 q 233 456 244 499 q 222 358 222 413 q 234 256 222 301 q 269 182 247 212 q 325 136 292 151 q 399 120 358 120 q 465 130 440 120 q 508 152 490 140 q 538 175 525 165 q 567 185 551 185 q 598 169 588 185 l 647 106 q 585 50 619 73 q 516 14 552 28 q 443 -5 481 1 q 367 -10 405 -10 q 243 14 301 -10 q 141 86 185 39 q 72 202 97 133 q 47 358 47 270 q 69 503 47 436 q 135 619 92 570 q 244 696 179 668 q 392 724 308 724 q 532 698 472 724 q 640 624 592 672 l 595 562 z "},"ç":{"ha":671,"x_min":47,"x_max":647,"o":"m 647 106 q 541 25 600 51 q 418 -8 481 -1 l 409 -42 q 500 -84 474 -58 q 526 -146 526 -110 q 514 -188 526 -169 q 480 -220 502 -207 q 426 -240 457 -233 q 358 -247 395 -247 q 304 -243 329 -247 q 256 -232 279 -240 l 271 -178 q 291 -162 275 -162 q 313 -168 301 -162 q 347 -173 324 -173 q 381 -164 369 -173 q 392 -143 392 -156 q 367 -114 392 -123 q 290 -98 342 -106 l 321 -7 q 213 30 263 1 q 126 104 163 58 q 68 214 89 150 q 47 358 47 278 q 69 503 47 436 q 135 619 92 570 q 244 696 179 668 q 392 724 308 724 q 532 698 472 724 q 640 624 592 672 l 595 562 q 580 547 588 552 q 559 541 573 541 q 533 549 546 541 q 503 567 521 557 q 462 585 486 577 q 403 593 438 593 q 324 577 358 593 q 267 530 290 560 q 233 456 244 499 q 222 358 222 413 q 234 256 222 301 q 269 182 247 212 q 325 136 292 151 q 399 120 358 120 q 465 130 440 120 q 508 152 490 140 q 538 175 525 165 q 567 185 551 185 q 598 169 588 185 l 647 106 z "},"d":{"ha":788,"x_min":48,"x_max":703,"o":"m 532 531 q 468 581 503 566 q 394 595 434 595 q 324 581 356 595 q 271 536 293 566 q 237 461 249 507 q 225 354 225 416 q 235 248 225 292 q 264 177 245 205 q 310 138 283 150 q 370 126 337 126 q 461 148 424 126 q 532 211 499 170 l 532 531 m 703 1032 l 703 0 l 599 0 q 556 31 565 0 l 541 100 q 442 20 498 51 q 312 -10 386 -10 q 205 14 253 -10 q 121 84 156 38 q 67 199 86 131 q 48 354 48 267 q 69 501 48 433 q 131 619 91 569 q 228 698 172 669 q 354 726 284 726 q 456 707 414 726 q 532 656 499 688 l 532 1032 l 703 1032 z "},"ď":{"ha":788,"x_min":48,"x_max":944,"o":"m 532 531 q 468 581 503 566 q 394 595 434 595 q 324 581 356 595 q 271 536 293 566 q 237 461 249 507 q 225 354 225 416 q 235 248 225 292 q 264 177 245 205 q 310 138 283 150 q 370 126 337 126 q 461 148 424 126 q 532 211 499 170 l 532 531 m 703 1032 l 703 0 l 599 0 q 556 31 565 0 l 541 100 q 442 20 498 51 q 312 -10 386 -10 q 205 14 253 -10 q 121 84 156 38 q 67 199 86 131 q 48 354 48 267 q 69 501 48 433 q 131 619 91 569 q 228 698 172 669 q 354 726 284 726 q 456 707 414 726 q 532 656 499 688 l 532 1032 l 703 1032 m 915 1033 q 939 1025 935 1033 q 944 1008 944 1016 q 941 991 944 1001 q 932 959 939 980 q 911 907 924 939 q 877 824 898 874 q 854 799 868 804 q 818 793 840 793 l 757 793 l 800 1033 l 915 1033 z "},"đ":{"ha":789,"x_min":49,"x_max":804,"o":"m 533 510 q 469 560 503 546 q 395 574 435 574 q 325 561 356 574 q 272 520 294 548 q 238 449 250 492 q 226 343 226 405 q 236 239 226 281 q 265 172 247 197 q 311 136 284 147 q 371 126 338 126 q 462 148 424 126 q 533 210 500 169 l 533 510 m 804 785 l 705 785 l 705 0 l 599 0 q 556 31 565 0 l 542 100 q 443 20 499 51 q 313 -10 387 -10 q 206 12 254 -10 q 123 79 158 35 q 68 190 88 124 q 49 343 49 256 q 71 489 49 423 q 132 603 92 556 q 229 678 172 651 q 356 705 285 705 q 457 686 415 705 q 533 635 499 667 l 533 785 l 376 785 l 376 892 l 533 892 l 533 1032 l 705 1032 l 705 892 l 804 892 l 804 785 z "},"ð":{"ha":792,"x_min":44,"x_max":739,"o":"m 387 120 q 461 135 427 120 q 520 182 495 149 q 560 266 545 214 q 578 391 576 317 q 550 440 567 417 q 512 480 534 463 q 461 506 490 497 q 397 516 433 516 q 318 501 352 516 q 261 461 284 487 q 226 401 238 435 q 215 328 215 367 q 228 239 215 277 q 265 174 242 200 q 320 134 288 147 q 387 120 351 120 m 566 844 q 638 766 606 809 q 692 670 669 722 q 727 556 715 617 q 739 422 739 494 q 716 240 739 320 q 647 104 692 160 q 535 19 602 48 q 383 -10 469 -10 q 249 13 310 -10 q 142 80 187 36 q 70 186 97 124 q 44 329 44 249 q 67 451 44 393 q 131 552 90 508 q 231 621 172 595 q 362 647 290 647 q 579 553 494 647 q 530 680 565 627 q 436 772 496 733 l 299 683 l 267 738 q 260 769 256 753 q 282 794 265 784 l 334 824 q 235 856 288 841 q 215 865 224 858 q 201 882 206 872 q 195 905 196 892 q 201 935 195 919 l 221 994 q 356 961 291 983 q 479 906 421 940 l 601 985 l 635 929 q 640 900 644 914 q 622 876 636 885 l 566 844 z "},"e":{"ha":742,"x_min":46,"x_max":698,"o":"m 544 438 q 534 501 544 472 q 506 553 525 531 q 459 588 488 575 q 392 601 430 601 q 275 558 317 601 q 220 438 232 516 l 544 438 m 217 335 q 236 240 221 280 q 276 174 251 200 q 336 135 301 148 q 412 122 370 122 q 484 132 453 122 q 536 153 514 142 q 576 175 559 165 q 609 185 593 185 q 641 169 631 185 l 690 106 q 626 50 662 73 q 552 14 591 28 q 474 -5 514 1 q 397 -10 434 -10 q 258 14 322 -10 q 147 87 194 39 q 73 207 100 135 q 46 372 46 278 q 69 509 46 444 q 137 620 93 573 q 245 696 181 668 q 388 724 308 724 q 513 702 456 724 q 610 639 569 681 q 675 538 651 598 q 698 401 698 478 q 690 348 698 362 q 658 335 681 335 l 217 335 z "},"ę":{"ha":742,"x_min":46,"x_max":698,"o":"m 544 438 q 534 501 544 472 q 506 553 525 531 q 459 588 488 575 q 392 601 430 601 q 275 558 317 601 q 220 438 232 516 l 544 438 m 217 335 q 236 240 221 280 q 276 174 251 200 q 336 135 301 148 q 412 122 370 122 q 484 132 453 122 q 536 153 514 142 q 576 175 559 165 q 609 185 593 185 q 641 169 631 185 l 690 106 q 594 32 649 58 q 481 -3 539 6 q 456 -21 468 -11 q 434 -42 444 -31 q 419 -67 425 -53 q 414 -94 414 -80 q 427 -127 414 -115 q 464 -140 440 -140 q 485 -138 477 -140 q 499 -135 494 -137 q 508 -131 504 -133 q 515 -130 512 -130 q 531 -141 528 -130 l 558 -204 q 500 -230 535 -219 q 428 -240 466 -240 q 323 -211 360 -240 q 286 -137 286 -183 q 308 -69 286 -102 q 369 -10 329 -37 q 241 21 300 -6 q 139 96 182 48 q 70 214 95 144 q 46 372 46 283 q 69 509 46 444 q 137 620 93 573 q 245 696 181 668 q 388 724 308 724 q 513 702 456 724 q 610 639 569 681 q 675 538 651 598 q 698 401 698 478 q 690 348 698 362 q 658 335 681 335 l 217 335 z "},"f":{"ha":498,"x_min":28,"x_max":492,"o":"m 135 0 l 135 583 l 73 593 q 41 607 53 597 q 28 636 28 617 l 28 706 l 135 706 l 135 759 q 153 869 135 820 q 206 951 172 917 q 290 1003 240 985 q 401 1022 339 1022 q 492 1008 450 1022 l 489 922 q 483 907 488 913 q 470 898 478 901 q 452 893 463 894 q 430 892 442 892 q 375 886 399 892 q 335 863 351 879 q 309 820 318 847 q 301 753 301 793 l 301 706 l 486 706 l 486 584 l 306 584 l 306 0 l 135 0 z "},"ﬀ":{"ha":948,"x_min":28,"x_max":942,"o":"m 135 0 l 135 583 l 73 593 q 41 607 53 597 q 28 636 28 617 l 28 706 l 135 706 l 135 747 q 153 856 135 808 q 206 939 172 905 q 290 991 240 973 q 401 1009 339 1009 q 492 996 450 1009 l 489 910 q 483 894 488 901 q 470 885 478 888 q 452 881 463 882 q 430 880 442 880 q 375 873 399 880 q 335 850 351 867 q 309 807 318 834 q 301 741 301 781 l 301 706 l 585 706 l 585 769 q 603 879 585 831 q 656 962 622 928 q 740 1014 690 996 q 851 1032 789 1032 q 898 1029 875 1032 q 942 1019 920 1026 l 938 933 q 920 908 937 913 q 880 903 903 903 q 825 896 849 903 q 785 873 801 890 q 759 830 768 857 q 751 764 751 803 l 751 706 l 935 706 l 935 584 l 756 584 l 756 0 l 585 0 l 585 584 l 306 584 l 306 0 l 135 0 z "},"ﬁ":{"ha":834,"x_min":29,"x_max":743,"o":"m 135 0 l 135 583 l 74 593 q 41 607 53 597 q 29 636 29 617 l 29 706 l 135 706 l 135 729 q 157 850 135 794 q 222 947 178 906 q 333 1011 266 988 q 491 1035 400 1035 q 550 1032 520 1035 q 603 1022 581 1028 l 597 933 q 580 914 596 917 q 540 910 564 910 q 427 899 473 910 q 354 864 382 887 q 314 805 326 840 q 301 724 301 770 l 301 706 l 743 706 l 743 0 l 572 0 l 572 584 l 307 584 l 307 0 l 135 0 z "},"ﬃ":{"ha":1284,"x_min":29,"x_max":1193,"o":"m 135 0 l 135 583 l 74 593 q 41 607 53 597 q 29 636 29 617 l 29 706 l 135 706 l 135 747 q 154 856 135 808 q 207 939 172 905 q 290 991 241 973 q 401 1009 340 1009 q 492 996 450 1009 l 489 910 q 470 885 488 890 q 431 880 453 880 q 376 873 400 880 q 335 850 352 867 q 310 807 319 834 q 301 741 301 781 l 301 706 l 585 706 l 585 729 q 606 850 585 794 q 672 947 628 906 q 782 1011 715 988 q 940 1035 849 1035 q 1000 1032 969 1035 q 1053 1022 1031 1028 l 1047 933 q 1030 914 1046 917 q 990 910 1014 910 q 877 899 923 910 q 804 864 832 887 q 764 805 776 840 q 751 724 751 770 l 751 706 l 1193 706 l 1193 0 l 1022 0 l 1022 584 l 757 584 l 757 0 l 585 0 l 585 584 l 307 584 l 307 0 l 135 0 z "},"ﬂ":{"ha":850,"x_min":29,"x_max":763,"o":"m 135 0 l 135 583 l 74 593 q 41 607 53 597 q 29 636 29 617 l 29 706 l 135 706 l 135 736 q 153 845 135 793 q 208 937 172 897 q 301 1001 245 977 q 434 1025 358 1025 q 545 1021 493 1025 q 650 1017 598 1017 l 763 1017 l 763 0 l 592 0 l 592 897 q 520 901 556 899 q 461 903 485 903 q 342 859 383 903 q 301 736 301 816 l 301 706 l 470 706 l 470 584 l 307 584 l 307 0 l 135 0 z "},"ﬄ":{"ha":1299,"x_min":28,"x_max":1213,"o":"m 135 0 l 135 583 l 73 593 q 41 607 53 597 q 28 636 28 617 l 28 706 l 135 706 l 135 747 q 153 856 135 808 q 206 939 172 905 q 290 991 240 973 q 401 1009 339 1009 q 492 996 450 1009 l 489 910 q 483 894 488 901 q 470 885 478 888 q 452 881 463 882 q 430 880 442 880 q 375 873 399 880 q 335 850 351 867 q 309 807 318 834 q 301 741 301 781 l 301 706 l 585 706 l 585 736 q 603 845 585 793 q 658 937 621 897 q 751 1001 694 977 q 883 1025 807 1025 q 1003 1021 947 1025 q 1117 1017 1060 1017 l 1213 1017 l 1213 0 l 1042 0 l 1042 897 q 970 901 1005 899 q 910 903 935 903 q 792 859 833 903 q 751 736 751 816 l 751 706 l 935 706 l 935 584 l 756 584 l 756 0 l 585 0 l 585 584 l 306 584 l 306 0 l 135 0 z "},"g":{"ha":733,"x_min":34,"x_max":710,"o":"m 345 374 q 401 382 377 374 q 440 406 424 391 q 464 443 456 422 q 472 490 472 465 q 440 574 472 543 q 345 605 408 605 q 250 574 282 605 q 219 490 219 543 q 227 444 219 465 q 250 407 235 422 q 290 382 266 391 q 345 374 314 374 m 539 -32 q 526 2 539 -11 q 492 23 514 15 q 442 33 471 30 q 381 39 413 37 q 314 42 349 40 q 247 47 280 43 q 201 10 219 31 q 183 -40 183 -12 q 193 -75 183 -59 q 223 -103 202 -92 q 276 -122 243 -115 q 356 -128 308 -128 q 438 -121 403 -128 q 495 -101 473 -114 q 528 -70 518 -88 q 539 -32 539 -53 m 710 688 l 710 624 q 673 587 710 594 l 609 575 q 624 494 624 538 q 602 399 624 442 q 544 326 581 356 q 455 280 506 297 q 345 264 404 264 q 305 266 324 264 q 267 272 285 268 q 233 226 233 251 q 253 195 233 205 q 306 181 273 185 q 380 175 338 176 q 465 171 422 174 q 551 159 509 167 q 625 131 592 150 q 677 80 658 113 q 697 -3 697 48 q 674 -94 697 -50 q 607 -174 651 -139 q 498 -230 563 -208 q 352 -251 434 -251 q 212 -235 272 -251 q 113 -193 152 -219 q 53 -133 73 -167 q 34 -62 34 -99 q 64 21 34 -12 q 147 75 94 55 q 102 114 119 90 q 85 178 85 138 q 91 211 85 194 q 109 244 97 228 q 138 276 120 261 q 178 303 155 291 q 93 381 124 332 q 63 494 63 429 q 84 590 63 547 q 143 663 105 633 q 232 709 181 693 q 345 725 284 725 q 431 716 391 725 q 505 688 472 706 l 710 688 z "},"h":{"ha":783,"x_min":85,"x_max":706,"o":"m 256 636 q 348 699 298 675 q 465 724 398 724 q 569 704 524 724 q 644 648 614 684 q 690 563 674 613 q 706 453 706 513 l 706 0 l 534 0 l 534 453 q 504 555 534 519 q 413 590 474 590 q 330 570 369 590 q 256 515 291 550 l 256 0 l 85 0 l 85 1032 l 256 1032 l 256 636 z "},"ĥ":{"ha":783,"x_min":-76,"x_max":706,"o":"m 256 636 q 348 699 298 675 q 465 724 398 724 q 569 704 524 724 q 644 648 614 684 q 690 563 674 613 q 706 453 706 513 l 706 0 l 534 0 l 534 453 q 504 555 534 519 q 413 590 474 590 q 330 570 369 590 q 256 515 291 550 l 256 0 l 85 0 l 85 1032 l 256 1032 l 256 636 m 415 1076 l 290 1076 q 265 1080 280 1076 q 234 1102 250 1083 l 177 1176 q 167 1191 170 1185 q 156 1176 163 1185 l 99 1102 q 68 1080 83 1083 q 43 1076 53 1076 l -76 1076 l 92 1267 l 247 1267 l 415 1076 z "},"ħ":{"ha":783,"x_min":-15,"x_max":705,"o":"m 256 615 q 348 678 298 653 q 465 702 398 702 q 568 682 524 702 q 643 627 613 663 q 689 541 674 591 q 705 432 705 492 l 705 0 l 533 0 l 533 432 q 503 533 533 497 q 413 569 474 569 q 330 549 369 569 q 256 494 291 528 l 256 0 l 85 0 l 85 790 l -15 790 l -15 897 l 85 897 l 85 1032 l 256 1032 l 256 897 l 451 897 l 451 790 l 256 790 l 256 615 z "},"i":{"ha":353,"x_min":67,"x_max":286,"o":"m 263 713 l 263 0 l 90 0 l 90 713 l 263 713 m 286 920 q 277 878 286 898 q 253 844 268 859 q 218 821 238 830 q 175 813 198 813 q 133 821 153 813 q 99 844 113 830 q 75 878 84 859 q 67 920 67 898 q 75 963 67 943 q 99 998 84 983 q 133 1021 113 1013 q 175 1030 153 1030 q 218 1021 198 1030 q 253 998 238 1013 q 277 963 268 983 q 286 920 286 943 z "},"į":{"ha":353,"x_min":46,"x_max":317,"o":"m 175 813 q 133 821 153 813 q 99 844 113 830 q 75 878 84 859 q 67 920 67 898 q 75 963 67 943 q 99 998 84 983 q 133 1021 113 1013 q 175 1030 153 1030 q 218 1021 198 1030 q 253 998 238 1013 q 277 963 268 983 q 286 920 286 943 q 277 878 286 898 q 253 844 268 859 q 218 821 238 830 q 175 813 198 813 m 317 -204 q 260 -230 294 -219 q 188 -240 226 -240 q 83 -211 119 -240 q 46 -137 46 -183 q 71 -64 46 -99 q 144 0 97 -29 l 90 0 l 90 713 l 263 713 l 263 0 l 247 0 q 220 -17 233 -8 q 197 -39 207 -27 q 180 -65 186 -51 q 174 -94 174 -79 q 187 -127 174 -115 q 224 -140 200 -140 q 245 -138 237 -140 q 259 -135 253 -137 q 268 -131 264 -133 q 275 -130 272 -130 q 291 -141 288 -130 l 317 -204 z "},"ı":{"ha":354,"x_min":91,"x_max":263,"o":"m 263 713 l 263 0 l 91 0 l 91 713 l 263 713 z "},"j":{"ha":353,"x_min":-53,"x_max":286,"o":"m 263 713 l 263 -24 q 250 -112 263 -71 q 211 -184 238 -153 q 141 -232 185 -215 q 35 -250 98 -250 q -10 -247 11 -250 q -53 -237 -31 -244 l -47 -144 q -35 -127 -44 -131 q -1 -123 -26 -123 q 43 -118 25 -123 q 71 -101 60 -112 q 86 -71 81 -90 q 90 -24 90 -52 l 90 713 l 263 713 m 286 920 q 277 878 286 898 q 253 844 268 859 q 218 821 238 830 q 174 813 197 813 q 133 821 152 813 q 99 844 113 830 q 75 878 84 859 q 67 920 67 898 q 75 963 67 943 q 99 998 84 983 q 133 1021 113 1013 q 174 1030 152 1030 q 218 1021 197 1030 q 253 998 238 1013 q 277 963 268 983 q 286 920 286 943 z "},"ȷ":{"ha":354,"x_min":-52,"x_max":263,"o":"m 263 713 l 263 -24 q 250 -112 263 -71 q 211 -184 238 -153 q 141 -232 185 -215 q 35 -250 98 -250 q -10 -247 11 -250 q -52 -237 -31 -244 l -46 -144 q -35 -127 -44 -131 q 0 -123 -26 -123 q 43 -118 26 -123 q 71 -101 60 -112 q 86 -71 82 -90 q 91 -24 91 -52 l 91 713 l 263 713 z "},"k":{"ha":742,"x_min":85,"x_max":742,"o":"m 256 1032 l 256 441 l 288 441 q 316 445 306 441 q 336 464 326 450 l 513 683 q 538 705 524 697 q 573 713 551 713 l 730 713 l 508 448 q 457 400 485 417 q 483 376 472 390 q 505 346 494 362 l 742 0 l 588 0 q 553 7 567 0 q 528 31 538 13 l 347 301 q 326 322 337 317 q 295 326 316 326 l 256 326 l 256 0 l 85 0 l 85 1032 l 256 1032 z "},"ĸ":{"ha":742,"x_min":85,"x_max":742,"o":"m 256 713 l 256 441 l 288 441 q 316 445 306 441 q 336 464 326 450 l 513 683 q 538 705 524 697 q 573 713 551 713 l 730 713 l 508 448 q 457 400 485 417 q 483 376 472 390 q 505 346 494 362 l 742 0 l 588 0 q 553 7 567 0 q 528 31 538 13 l 347 301 q 326 322 337 317 q 295 326 316 326 l 256 326 l 256 0 l 85 0 l 85 713 l 256 713 z "},"ł":{"ha":458,"x_min":27,"x_max":439,"o":"m 439 717 l 439 619 q 415 581 439 590 l 315 539 l 315 0 l 144 0 l 144 479 l 27 431 l 27 533 q 48 566 27 556 l 144 607 l 144 1032 l 315 1032 l 315 667 l 439 717 z "},"ľ":{"ha":344,"x_min":87,"x_max":510,"o":"m 258 1032 l 258 0 l 87 0 l 87 1032 l 258 1032 m 482 1033 q 506 1025 501 1033 q 510 1008 510 1016 q 508 991 510 1001 q 498 959 506 980 q 478 907 491 939 q 444 824 465 874 q 421 799 435 804 q 385 793 407 793 l 324 793 l 367 1033 l 482 1033 z "},"m":{"ha":1163,"x_min":85,"x_max":1085,"o":"m 85 0 l 85 713 l 190 713 q 233 681 223 713 l 244 628 q 284 667 263 649 q 327 697 304 684 q 377 716 351 709 q 436 724 404 724 q 547 687 503 724 q 612 590 590 651 q 653 651 628 626 q 708 692 678 676 q 772 716 738 708 q 840 724 806 724 q 944 706 899 724 q 1022 653 990 688 q 1069 568 1053 618 q 1085 453 1085 518 l 1085 0 l 914 0 l 914 453 q 884 556 914 522 q 797 590 854 590 q 748 581 770 590 q 708 555 725 572 q 681 513 691 538 q 672 453 672 487 l 672 0 l 499 0 l 499 453 q 470 558 499 525 q 386 590 442 590 q 316 572 349 590 q 256 522 284 553 l 256 0 l 85 0 z "},"n":{"ha":783,"x_min":85,"x_max":706,"o":"m 245 625 q 291 665 267 647 q 341 696 315 683 q 399 716 368 709 q 465 724 429 724 q 569 704 524 724 q 644 648 614 684 q 690 563 674 613 q 706 453 706 513 l 706 0 l 534 0 l 534 453 q 504 555 534 519 q 413 590 474 590 q 330 570 369 590 q 256 515 291 550 l 256 0 l 85 0 l 85 713 l 190 713 q 233 681 223 713 l 245 625 z "},"ŋ":{"ha":783,"x_min":85,"x_max":706,"o":"m 245 625 q 291 665 267 647 q 341 696 315 683 q 399 716 368 709 q 465 724 429 724 q 569 704 524 724 q 644 648 614 684 q 690 563 674 613 q 706 453 706 513 l 706 25 q 691 -86 706 -35 q 644 -173 676 -137 q 563 -230 613 -210 q 446 -251 514 -251 q 380 -244 409 -251 q 316 -223 350 -237 l 335 -148 q 350 -122 340 -128 q 373 -115 360 -115 q 395 -119 383 -115 q 430 -124 408 -124 q 508 -92 482 -124 q 534 5 534 -61 l 534 453 q 504 555 534 519 q 413 590 474 590 q 330 570 369 590 q 256 515 291 550 l 256 0 l 85 0 l 85 713 l 190 713 q 233 681 223 713 l 245 625 z "},"o":{"ha":798,"x_min":47,"x_max":751,"o":"m 400 724 q 544 698 479 724 q 655 625 609 672 q 726 510 701 578 q 751 358 751 442 q 726 205 751 273 q 655 89 701 137 q 544 15 609 41 q 400 -10 479 -10 q 255 15 320 -10 q 143 89 190 41 q 72 205 97 137 q 47 358 47 273 q 72 510 47 442 q 143 625 97 578 q 255 698 190 672 q 400 724 320 724 m 400 122 q 532 181 489 122 q 574 356 574 241 q 532 532 574 472 q 400 592 489 592 q 266 532 310 592 q 223 356 223 471 q 266 182 223 242 q 400 122 310 122 z "},"ø":{"ha":797,"x_min":34,"x_max":778,"o":"m 304 138 q 400 116 345 116 q 537 178 489 116 q 585 356 585 241 q 579 431 585 397 q 563 490 574 464 l 304 138 m 496 574 q 400 597 457 597 q 261 534 309 597 q 213 356 213 472 q 235 219 213 274 l 496 574 m 660 620 q 727 507 703 573 q 751 358 751 440 q 726 205 751 273 q 655 89 701 137 q 544 15 609 41 q 400 -10 479 -10 q 306 0 350 -10 q 224 29 262 10 l 200 -3 q 178 -27 190 -17 q 152 -43 166 -37 q 124 -51 139 -49 q 97 -53 110 -53 l 34 -53 l 141 92 q 71 207 95 140 q 47 358 47 274 q 72 510 47 442 q 143 625 97 578 q 255 698 190 672 q 400 724 320 724 q 577 683 500 724 l 615 735 q 631 757 624 748 q 647 771 638 766 q 667 779 656 776 q 693 781 678 781 l 778 781 l 660 620 z "},"œ":{"ha":1217,"x_min":47,"x_max":1171,"o":"m 386 122 q 508 181 468 122 q 547 356 547 241 q 508 532 547 472 q 386 592 468 592 q 263 532 303 592 q 224 356 224 471 q 263 181 224 241 q 386 122 302 122 m 1018 424 q 1010 490 1018 458 q 984 547 1001 522 q 941 586 967 572 q 880 601 915 601 q 768 555 808 601 q 718 424 728 508 l 1018 424 m 717 321 q 775 170 727 219 q 900 122 824 122 q 966 132 938 122 q 1016 153 994 142 q 1053 175 1037 165 q 1086 185 1070 185 q 1116 169 1106 185 l 1167 106 q 1104 50 1138 73 q 1033 14 1069 28 q 958 -5 996 1 q 883 -10 919 -10 q 743 24 808 -10 q 635 130 677 58 q 526 26 593 63 q 369 -10 459 -10 q 240 15 299 -10 q 138 89 181 41 q 70 205 94 137 q 47 358 47 273 q 71 510 47 442 q 139 625 95 578 q 243 698 182 672 q 376 724 303 724 q 528 688 463 724 q 633 587 593 653 q 735 686 672 649 q 888 724 799 724 q 1000 700 948 724 q 1090 633 1051 677 q 1149 527 1128 590 q 1171 387 1171 465 q 1169 355 1171 367 q 1163 334 1167 342 q 1152 324 1159 327 q 1133 321 1144 321 l 717 321 z "},"p":{"ha":789,"x_min":85,"x_max":740,"o":"m 256 185 q 320 135 285 149 q 394 120 354 120 q 465 135 433 120 q 518 179 496 149 q 551 255 540 209 q 563 362 563 300 q 553 468 563 424 q 524 538 543 511 q 479 578 506 565 q 418 590 452 590 q 327 568 365 590 q 256 504 290 545 l 256 185 m 247 615 q 347 695 291 665 q 477 726 402 726 q 584 701 535 726 q 667 631 632 677 q 721 517 702 585 q 740 362 740 449 q 719 214 740 282 q 657 96 697 146 q 561 18 617 46 q 434 -10 504 -10 q 332 8 374 -10 q 256 59 290 26 l 256 -233 l 85 -233 l 85 713 l 190 713 q 233 681 223 713 l 247 615 z "},"þ":{"ha":789,"x_min":85,"x_max":740,"o":"m 256 185 q 320 135 285 149 q 394 120 354 120 q 465 135 433 120 q 518 179 496 149 q 551 255 540 209 q 563 362 563 300 q 553 468 563 424 q 524 538 543 511 q 479 578 506 565 q 418 590 452 590 q 327 568 365 590 q 256 504 290 545 l 256 185 m 256 625 q 352 697 299 669 q 477 724 406 724 q 584 700 535 724 q 667 630 632 676 q 721 517 702 584 q 740 362 740 449 q 719 214 740 282 q 657 96 697 146 q 561 18 617 46 q 434 -10 504 -10 q 331 11 373 -10 q 256 71 289 33 l 256 -233 l 85 -233 l 85 1032 l 256 1032 l 256 625 z "},"q":{"ha":788,"x_min":48,"x_max":703,"o":"m 532 531 q 469 581 503 566 q 394 595 434 595 q 324 581 356 595 q 271 536 293 566 q 237 461 249 507 q 225 354 225 416 q 235 248 225 292 q 264 177 245 205 q 310 138 283 150 q 370 126 337 126 q 461 148 424 126 q 532 211 499 170 l 532 531 m 703 713 l 703 -233 l 532 -233 l 532 90 q 436 17 490 45 q 312 -10 383 -10 q 205 14 253 -10 q 121 84 156 38 q 67 199 86 131 q 48 354 48 267 q 69 501 48 433 q 131 619 91 569 q 228 698 172 669 q 354 726 284 726 q 466 703 421 726 q 547 641 511 680 l 556 681 q 599 713 565 713 l 703 713 z "},"r":{"ha":518,"x_min":85,"x_max":513,"o":"m 247 589 q 326 689 280 653 q 434 726 372 726 q 513 704 483 726 l 502 576 q 492 558 499 563 q 474 553 485 553 q 443 556 464 553 q 403 560 423 560 q 353 551 375 560 q 313 527 331 543 q 282 490 295 512 q 256 439 268 467 l 256 0 l 85 0 l 85 713 l 185 713 q 222 703 212 713 q 236 669 233 694 l 247 589 z "},"s":{"ha":610,"x_min":34,"x_max":566,"o":"m 519 574 q 505 558 513 563 q 485 553 497 553 q 459 560 473 553 q 426 576 444 567 q 383 592 407 585 q 326 599 359 599 q 247 577 276 599 q 218 521 218 556 q 233 482 218 498 q 273 455 248 467 q 328 434 297 443 q 392 413 360 424 q 456 388 424 402 q 511 352 487 374 q 551 299 536 330 q 566 226 566 269 q 548 131 566 174 q 493 56 529 88 q 404 7 457 24 q 281 -11 351 -11 q 209 -5 244 -11 q 142 14 174 2 q 82 42 110 26 q 34 76 55 58 l 74 142 q 92 160 81 153 q 118 166 102 166 q 148 157 134 166 q 181 138 163 148 q 225 118 200 127 q 290 109 251 109 q 342 116 320 109 q 378 135 364 124 q 399 163 392 147 q 406 195 406 178 q 391 236 406 220 q 351 264 376 252 q 295 285 326 276 q 230 306 263 294 q 166 332 197 317 q 109 369 134 347 q 70 426 85 392 q 55 506 55 459 q 72 590 55 550 q 123 659 90 629 q 207 706 157 688 q 324 724 258 724 q 458 699 397 724 q 558 635 518 675 l 519 574 z "},"ş":{"ha":610,"x_min":34,"x_max":566,"o":"m 519 574 q 505 558 513 563 q 485 553 497 553 q 459 560 473 553 q 426 576 444 567 q 383 592 407 585 q 326 599 359 599 q 247 577 276 599 q 218 521 218 556 q 233 482 218 498 q 273 455 248 467 q 328 434 297 443 q 392 413 360 424 q 456 388 424 402 q 511 352 487 374 q 551 299 536 330 q 566 226 566 269 q 551 140 566 180 q 507 70 536 101 q 436 19 478 40 q 338 -8 393 -1 l 328 -42 q 419 -84 393 -58 q 446 -146 446 -110 q 434 -188 446 -169 q 399 -220 422 -207 q 345 -240 376 -233 q 276 -247 314 -247 q 223 -243 248 -247 q 174 -232 199 -240 l 190 -178 q 210 -162 194 -162 q 232 -168 220 -162 q 265 -173 243 -173 q 300 -164 288 -173 q 311 -143 311 -156 q 286 -114 311 -123 q 209 -98 261 -106 l 240 -9 q 124 21 178 -2 q 34 76 69 44 l 74 142 q 92 160 81 153 q 118 166 102 166 q 148 157 134 166 q 181 138 163 148 q 225 118 200 127 q 290 109 251 109 q 342 116 320 109 q 378 135 364 124 q 399 163 392 147 q 406 195 406 178 q 391 236 406 220 q 351 264 376 252 q 295 285 326 276 q 230 306 263 294 q 166 332 197 317 q 109 369 134 347 q 70 426 85 392 q 55 506 55 459 q 72 590 55 550 q 123 659 90 629 q 207 706 157 688 q 324 724 258 724 q 458 699 397 724 q 558 635 518 675 l 519 574 z "},"ß":{"ha":837,"x_min":85,"x_max":801,"o":"m 449 1022 q 588 998 530 1022 q 681 939 645 974 q 734 863 717 903 q 751 786 751 822 q 737 717 751 746 q 703 667 724 689 q 659 630 683 646 q 615 599 635 614 q 581 569 594 585 q 567 533 567 553 q 585 494 567 510 q 628 461 602 477 q 684 427 653 445 q 740 383 715 409 q 783 320 766 357 q 801 230 801 283 q 779 126 801 171 q 719 51 757 81 q 632 5 682 20 q 527 -11 583 -11 q 464 -5 495 -11 q 404 14 433 2 q 349 42 375 26 q 303 76 324 58 l 343 142 q 360 160 350 153 q 387 166 371 166 q 417 157 403 166 q 449 138 432 148 q 489 118 467 127 q 542 109 511 109 q 613 135 586 109 q 640 203 640 161 q 621 257 640 235 q 574 295 602 278 q 514 329 547 313 q 453 367 481 345 q 406 420 425 389 q 388 499 388 451 q 402 567 388 539 q 439 618 417 596 q 486 658 460 640 q 533 694 511 676 q 569 735 555 713 q 584 785 584 756 q 576 829 584 808 q 551 864 568 849 q 506 888 533 879 q 441 897 479 897 q 303 841 350 897 q 256 678 256 785 l 256 0 l 85 0 l 85 683 q 110 819 85 757 q 182 926 135 881 q 297 996 229 971 q 449 1022 364 1022 z "},"ſ":{"ha":419,"x_min":29,"x_max":493,"o":"m 135 759 q 154 869 135 820 q 207 951 172 917 q 290 1003 241 985 q 401 1022 340 1022 q 493 1008 451 1022 l 488 919 q 469 900 486 903 q 431 897 453 897 q 377 890 400 897 q 339 865 354 882 q 315 820 323 848 q 307 753 307 793 l 307 0 l 135 0 l 135 583 l 74 593 q 41 607 53 597 q 29 636 29 617 l 29 706 l 135 706 l 135 759 z "},"t":{"ha":517,"x_min":24,"x_max":509,"o":"m 322 -11 q 180 41 229 -11 q 130 186 130 94 l 130 584 l 57 584 q 33 593 43 584 q 24 620 24 602 l 24 688 l 138 707 l 174 901 q 188 923 178 915 q 213 931 197 931 l 301 931 l 301 706 l 492 706 l 492 584 l 301 584 l 301 198 q 318 146 301 165 q 363 127 334 127 q 389 131 378 127 q 408 139 400 135 q 422 147 416 143 q 435 151 428 151 q 447 147 442 151 q 458 135 452 143 l 509 52 q 423 5 472 21 q 322 -11 374 -11 z "},"ť":{"ha":516,"x_min":23,"x_max":603,"o":"m 322 -11 q 179 41 228 -11 q 129 186 129 94 l 129 584 l 56 584 q 33 593 42 584 q 23 620 23 602 l 23 688 l 138 707 l 174 901 q 187 923 177 915 q 212 931 197 931 l 301 931 l 301 706 l 491 706 l 491 584 l 301 584 l 301 198 q 317 146 301 165 q 362 127 333 127 q 389 131 378 127 q 407 139 399 135 q 422 147 415 143 q 434 151 428 151 q 447 147 442 151 q 457 135 451 143 l 508 52 q 422 5 471 21 q 322 -11 374 -11 m 574 1033 q 598 1025 594 1033 q 603 1008 603 1016 q 600 991 603 1001 q 591 959 598 980 q 570 907 583 939 q 536 824 557 874 q 513 799 527 804 q 477 793 499 793 l 416 793 l 459 1033 l 574 1033 z "},"ŧ":{"ha":522,"x_min":25,"x_max":510,"o":"m 41 482 l 131 482 l 131 584 l 58 584 q 35 593 44 584 q 25 620 25 602 l 25 688 l 140 707 l 176 901 q 189 923 179 915 q 214 931 199 931 l 303 931 l 303 706 l 493 706 l 493 584 l 303 584 l 303 482 l 498 482 l 498 376 l 303 376 l 303 198 q 319 146 303 165 q 364 127 335 127 q 391 131 380 127 q 409 139 401 135 q 424 147 417 143 q 436 151 430 151 q 449 147 444 151 q 459 135 453 143 l 510 52 q 424 5 473 21 q 324 -11 376 -11 q 181 41 231 -11 q 131 186 131 94 l 131 376 l 41 376 l 41 482 z "},"u":{"ha":783,"x_min":78,"x_max":699,"o":"m 699 713 l 699 0 l 594 0 q 551 31 560 0 l 539 88 q 442 16 495 44 q 318 -11 390 -11 q 215 9 260 -11 q 140 65 170 28 q 93 150 109 101 q 78 260 78 200 l 78 713 l 249 713 l 249 260 q 280 159 249 194 q 370 123 310 123 q 453 143 415 123 q 527 197 492 163 l 527 713 l 699 713 z "},"ų":{"ha":783,"x_min":78,"x_max":769,"o":"m 769 -204 q 711 -230 746 -219 q 639 -240 677 -240 q 534 -211 571 -240 q 497 -137 497 -183 q 523 -64 497 -99 q 595 0 548 -29 l 594 0 q 551 31 560 0 l 539 88 q 442 16 495 44 q 318 -11 390 -11 q 215 9 260 -11 q 140 65 170 28 q 93 150 109 101 q 78 260 78 200 l 78 713 l 249 713 l 249 260 q 280 159 249 194 q 370 123 310 123 q 453 143 415 123 q 527 197 492 163 l 527 713 l 699 713 l 699 0 q 672 -17 685 -8 q 648 -39 658 -27 q 631 -65 638 -51 q 625 -94 625 -79 q 638 -127 625 -115 q 675 -140 651 -140 q 697 -138 688 -140 q 710 -135 705 -137 q 719 -131 715 -133 q 726 -130 723 -130 q 742 -141 739 -130 l 769 -204 z "},"v":{"ha":733,"x_min":6,"x_max":727,"o":"m 727 713 l 444 0 l 289 0 l 6 713 l 148 713 q 180 703 167 713 q 197 681 193 694 l 335 300 q 354 235 346 267 q 369 171 363 203 q 384 235 376 203 q 404 300 392 267 l 544 681 q 562 703 549 694 q 592 713 574 713 l 727 713 z "},"w":{"ha":1115,"x_min":13,"x_max":1102,"o":"m 1102 713 l 876 0 l 738 0 q 706 31 715 0 l 578 442 q 566 484 572 463 q 558 525 561 504 q 548 483 553 504 q 537 441 543 462 l 407 31 q 370 0 399 0 l 238 0 l 13 713 l 149 713 q 181 703 168 713 q 199 681 194 694 l 301 300 q 314 239 308 269 q 324 179 320 209 q 341 239 332 209 q 359 300 349 269 l 477 682 q 493 705 481 696 q 523 714 506 714 l 599 714 q 630 705 617 714 q 647 682 642 696 l 761 300 q 778 239 770 269 q 794 178 786 208 q 819 300 803 238 l 924 681 q 942 703 929 694 q 972 713 954 713 l 1102 713 z "},"x":{"ha":725,"x_min":4,"x_max":721,"o":"m 721 0 l 556 0 q 525 10 537 0 q 506 32 514 19 l 356 280 q 348 258 352 268 q 338 238 343 247 l 204 32 q 185 10 197 20 q 158 0 174 0 l 4 0 l 249 367 l 14 713 l 179 713 q 207 707 198 713 q 223 690 216 702 l 372 453 q 394 499 380 476 l 514 687 q 553 713 529 713 l 711 713 l 477 375 l 721 0 z "},"y":{"ha":733,"x_min":4,"x_max":732,"o":"m 732 713 l 344 -196 q 324 -223 336 -214 q 287 -233 312 -233 l 159 -233 l 292 53 l 4 713 l 155 713 q 186 703 175 713 q 203 681 198 693 l 355 311 q 368 274 363 292 q 378 235 373 255 q 390 274 384 255 q 404 312 397 293 l 547 681 q 566 703 553 694 q 594 713 578 713 l 732 713 z "},"z":{"ha":638,"x_min":36,"x_max":597,"o":"m 597 642 q 590 606 597 624 q 574 578 584 589 l 235 132 l 586 132 l 586 0 l 36 0 l 36 72 q 42 100 36 83 q 58 131 47 116 l 400 581 l 56 581 l 56 713 l 597 713 l 597 642 z "},"ª":{"ha":510,"x_min":56,"x_max":432,"o":"m 312 758 q 244 752 271 756 q 202 740 218 747 q 181 723 187 733 q 174 702 174 713 q 187 671 174 680 q 224 663 200 663 q 271 672 251 663 q 312 701 292 681 l 312 758 m 77 950 q 163 1002 116 985 q 263 1018 209 1018 q 334 1006 303 1018 q 387 970 365 993 q 420 917 409 948 q 432 851 432 887 l 432 584 l 374 584 q 349 589 358 584 q 333 609 340 594 l 324 635 q 292 610 308 621 q 261 592 277 599 q 227 582 245 585 q 185 578 208 578 q 133 586 156 578 q 92 609 109 594 q 66 645 75 624 q 56 696 56 667 q 68 743 56 719 q 109 786 80 767 q 188 819 138 806 q 312 833 237 832 l 312 851 q 295 904 312 888 q 248 919 279 919 q 209 915 224 919 q 182 903 194 910 q 160 892 170 897 q 135 888 149 888 q 113 895 122 888 q 99 910 104 902 l 77 950 z "},"º":{"ha":556,"x_min":51,"x_max":506,"o":"m 279 1017 q 372 1001 330 1017 q 443 958 413 986 q 489 889 473 930 q 506 798 506 849 q 489 705 506 747 q 443 635 473 664 q 372 591 413 606 q 279 576 330 576 q 186 591 228 576 q 114 635 144 606 q 67 705 84 664 q 51 798 51 747 q 67 889 51 849 q 114 958 84 930 q 186 1001 144 986 q 279 1017 228 1017 m 279 676 q 348 705 326 676 q 371 797 371 735 q 348 888 371 858 q 279 917 326 917 q 208 888 231 917 q 185 797 185 858 q 208 705 185 735 q 279 676 231 676 z "},"ⁿ":{"ha":433,"x_min":51,"x_max":388,"o":"m 151 958 q 199 995 173 981 q 263 1010 224 1010 q 317 999 293 1010 q 356 969 340 988 q 380 925 372 951 q 388 870 388 900 l 388 637 l 269 637 l 269 870 q 258 904 269 892 q 226 916 247 916 q 197 910 210 916 q 169 892 183 903 l 169 637 l 51 637 l 51 1004 l 114 1004 q 145 980 136 1004 l 151 958 z "},"`":{"ha":556,"x_min":56,"x_max":381,"o":"m 216 1015 q 258 1006 244 1015 q 282 978 272 997 l 381 810 l 283 810 q 252 815 264 810 q 227 834 240 820 l 56 1015 l 216 1015 z "},"´":{"ha":556,"x_min":187,"x_max":518,"o":"m 518 1015 l 347 834 q 321 815 333 820 q 290 810 309 810 l 187 810 l 285 978 q 310 1006 296 997 q 351 1015 324 1015 l 518 1015 z "},"ˆ":{"ha":556,"x_min":38,"x_max":517,"o":"m 517 811 l 403 811 q 383 815 393 811 q 363 828 373 819 l 295 901 q 281 917 288 908 q 266 901 273 908 l 197 828 q 178 815 188 819 q 157 811 167 811 l 38 811 l 197 1004 l 358 1004 l 517 811 z "},"ˇ":{"ha":556,"x_min":38,"x_max":517,"o":"m 517 1004 l 358 811 l 197 811 l 38 1004 l 157 1004 q 177 1001 167 1004 q 192 992 186 997 l 265 915 q 273 907 269 912 q 281 898 276 903 q 288 907 284 903 q 295 915 292 912 l 368 992 q 383 1000 374 997 q 403 1004 393 1004 l 517 1004 z "},"̕":{"ha":0,"x_min":190,"x_max":377,"o":"m 349 1033 q 373 1025 368 1033 q 377 1008 377 1016 q 375 991 377 1001 q 365 959 372 980 q 344 907 358 939 q 310 824 331 874 q 288 799 301 804 q 251 793 274 793 l 190 793 l 233 1033 l 349 1033 z "},"˜":{"ha":556,"x_min":57,"x_max":501,"o":"m 352 944 q 385 955 373 944 q 397 997 397 967 l 501 997 q 490 926 501 958 q 460 872 479 894 q 416 837 442 849 q 358 825 390 825 q 312 834 333 825 q 272 853 290 843 q 236 873 253 864 q 206 882 220 882 q 175 870 186 882 q 163 828 163 858 l 57 828 q 68 899 57 867 q 98 953 78 931 q 143 988 117 976 q 200 1001 169 1001 q 247 992 225 1001 q 288 972 269 983 q 322 953 306 962 q 352 944 338 944 z "},"¨":{"ha":556,"x_min":42,"x_max":514,"o":"m 233 897 q 226 861 233 878 q 205 831 218 844 q 173 811 191 819 q 135 804 156 804 q 100 811 117 804 q 70 831 83 819 q 49 861 57 844 q 42 897 42 878 q 49 935 42 917 q 70 966 57 953 q 100 987 83 979 q 135 994 117 994 q 173 987 156 994 q 205 966 191 979 q 226 935 218 953 q 233 897 233 917 m 514 897 q 506 861 514 878 q 486 831 499 844 q 455 811 473 819 q 417 804 438 804 q 381 811 398 804 q 350 831 363 819 q 330 861 338 844 q 322 897 322 878 q 330 935 322 917 q 350 966 338 953 q 381 987 363 979 q 417 994 398 994 q 455 987 438 994 q 486 966 473 979 q 506 935 499 953 q 514 897 514 917 z "},"¯":{"ha":556,"x_min":70,"x_max":485,"o":"m 70 953 l 485 953 l 485 843 l 70 843 l 70 953 z "},"˘":{"ha":556,"x_min":68,"x_max":488,"o":"m 278 806 q 178 822 218 806 q 114 865 138 838 q 78 928 89 892 q 68 1004 68 964 l 188 1004 q 192 967 188 983 q 206 939 196 950 q 233 921 216 927 q 278 915 251 915 q 322 921 305 915 q 350 939 340 927 q 364 967 360 950 q 367 1004 367 983 l 488 1004 q 477 928 488 964 q 442 865 467 892 q 377 822 417 838 q 278 806 337 806 z "},"˚":{"ha":556,"x_min":123,"x_max":433,"o":"m 123 920 q 135 978 123 952 q 169 1024 148 1005 q 218 1053 190 1042 q 276 1063 246 1063 q 336 1053 308 1063 q 386 1024 365 1042 q 420 978 408 1005 q 433 920 433 952 q 420 863 433 889 q 386 819 408 838 q 336 791 365 801 q 276 781 308 781 q 218 791 246 781 q 169 819 190 801 q 135 863 148 838 q 123 920 123 889 m 216 920 q 232 876 216 894 q 279 858 249 858 q 324 876 307 858 q 340 920 340 894 q 324 966 340 949 q 279 983 307 983 q 232 966 249 983 q 216 920 216 949 z "},"˝":{"ha":556,"x_min":104,"x_max":612,"o":"m 369 1015 l 231 834 q 207 815 220 820 q 174 810 194 810 l 104 810 l 192 978 q 216 1006 201 997 q 258 1015 230 1015 l 369 1015 m 612 1015 l 437 834 q 412 815 424 820 q 380 810 400 810 l 299 810 l 422 978 q 434 994 428 988 q 448 1006 440 1001 q 465 1013 455 1010 q 488 1015 474 1015 l 612 1015 z "},"˙":{"ha":556,"x_min":169,"x_max":388,"o":"m 388 923 q 379 881 388 901 q 355 847 370 861 q 320 823 340 832 q 276 815 299 815 q 235 823 254 815 q 201 847 215 832 q 177 881 186 861 q 169 923 169 901 q 177 966 169 946 q 201 1000 186 985 q 235 1024 215 1015 q 276 1033 254 1033 q 320 1024 299 1033 q 355 1000 340 1015 q 379 966 370 985 q 388 923 388 946 z "},"¸":{"ha":556,"x_min":159,"x_max":431,"o":"m 313 -42 q 404 -84 378 -58 q 431 -146 431 -110 q 418 -188 431 -169 q 384 -220 406 -207 q 330 -240 361 -233 q 261 -247 299 -247 q 208 -243 233 -247 q 159 -232 183 -240 l 175 -178 q 195 -162 179 -162 q 216 -168 205 -162 q 250 -173 228 -173 q 284 -164 273 -173 q 296 -143 296 -156 q 271 -114 296 -123 q 194 -98 246 -106 l 235 24 l 331 24 l 313 -42 z "},"˛":{"ha":556,"x_min":147,"x_max":419,"o":"m 376 -130 q 392 -141 389 -130 l 419 -204 q 361 -230 396 -219 q 289 -240 327 -240 q 184 -211 221 -240 q 147 -137 147 -183 q 176 -59 147 -97 q 260 8 206 -21 l 349 0 q 322 -17 335 -8 q 298 -39 308 -27 q 281 -65 288 -51 q 275 -94 275 -79 q 288 -127 275 -115 q 325 -140 301 -140 q 347 -138 338 -140 q 360 -135 355 -137 q 369 -131 365 -133 q 376 -130 373 -130 z "},"Γ":{"ha":766,"x_min":112,"x_max":745,"o":"m 745 860 l 299 860 l 299 0 l 112 0 l 112 1004 l 745 1004 l 745 860 z "},"Δ":{"ha":969,"x_min":13,"x_max":956,"o":"m 205 148 l 746 148 l 519 713 q 499 772 510 738 q 478 845 488 806 q 458 772 469 805 q 438 712 447 738 l 205 148 m 933 163 q 956 53 956 108 l 956 0 l 13 0 l 13 53 q 35 160 13 103 l 391 1004 l 581 1004 l 933 163 z "},"Θ":{"ha":1122,"x_min":52,"x_max":1069,"o":"m 375 579 l 746 579 l 746 430 l 375 430 l 375 579 m 1069 502 q 1033 298 1069 392 q 930 135 997 203 q 769 27 863 66 q 561 -11 676 -11 q 353 27 447 -11 q 193 135 260 66 q 89 298 126 203 q 52 502 52 392 q 89 707 52 613 q 193 869 126 801 q 353 977 260 938 q 561 1015 447 1015 q 705 998 638 1015 q 828 948 772 980 q 930 869 885 915 q 1006 766 974 823 q 1053 642 1037 709 q 1069 502 1069 576 m 878 502 q 856 650 878 585 q 793 762 834 716 q 693 832 752 808 q 561 856 635 856 q 429 832 488 856 q 329 762 370 808 q 265 650 288 716 q 243 502 243 585 q 265 354 243 419 q 329 243 288 288 q 429 173 370 197 q 561 149 488 149 q 693 173 635 149 q 793 243 752 197 q 856 354 834 288 q 878 502 878 419 z "},"Λ":{"ha":963,"x_min":-9,"x_max":971,"o":"m 971 0 l 810 0 q 770 12 785 0 q 747 42 755 24 l 511 656 q 488 721 499 685 q 467 797 477 757 q 428 656 451 717 l 192 42 q 170 13 187 26 q 131 0 154 0 l -9 0 l 397 1004 l 565 1004 l 971 0 z "},"Ξ":{"ha":865,"x_min":53,"x_max":815,"o":"m 815 1004 l 815 850 l 53 850 l 53 1004 l 815 1004 m 815 154 l 815 0 l 53 0 l 53 154 l 815 154 m 225 584 l 640 584 l 640 424 l 225 424 l 225 584 z "},"Π":{"ha":1070,"x_min":112,"x_max":958,"o":"m 958 0 l 771 0 l 771 860 l 299 860 l 299 0 l 112 0 l 112 1004 l 958 1004 l 958 0 z "},"Σ":{"ha":851,"x_min":42,"x_max":803,"o":"m 373 860 q 304 863 335 860 q 244 872 274 866 q 304 834 277 854 q 353 790 331 815 l 502 606 q 527 576 517 589 q 541 553 536 563 q 548 535 547 543 q 550 518 550 526 q 549 499 550 508 q 542 477 547 489 q 527 452 537 466 q 502 421 517 438 l 317 200 q 280 160 295 174 q 249 136 265 146 q 304 142 278 140 q 351 144 329 144 l 803 144 l 803 0 l 42 0 l 42 69 q 52 110 42 90 q 76 146 62 131 l 385 501 l 63 872 q 48 897 54 883 q 42 924 42 910 l 42 1004 l 803 1004 l 803 860 l 373 860 z "},"Φ":{"ha":1183,"x_min":40,"x_max":1144,"o":"m 681 199 q 797 225 745 201 q 886 290 849 249 q 943 386 923 331 q 963 504 963 442 q 943 621 963 567 q 886 717 923 676 q 797 783 849 758 q 681 808 745 807 l 681 199 m 503 808 q 386 783 439 807 q 297 717 334 758 q 240 621 260 676 q 220 504 220 567 q 240 386 220 442 q 297 290 260 331 q 386 225 334 249 q 503 199 439 201 l 503 808 m 681 952 q 873 915 787 951 q 1019 819 958 880 q 1112 677 1079 758 q 1144 504 1144 596 q 1130 386 1144 443 q 1088 280 1115 329 q 1019 189 1060 230 q 927 118 978 148 q 814 73 876 89 q 681 56 751 56 l 681 -78 l 503 -78 l 503 56 q 311 92 397 56 q 165 189 225 128 q 72 331 104 249 q 40 504 40 412 q 72 677 40 596 q 165 819 105 758 q 311 915 226 880 q 503 952 397 951 l 503 1083 l 681 1083 l 681 952 z "},"Ψ":{"ha":1157,"x_min":60,"x_max":1097,"o":"m 1097 1004 l 1097 644 q 1069 483 1097 555 q 989 359 1042 411 q 856 276 935 307 q 671 241 776 246 l 671 0 l 483 0 l 483 241 q 299 277 378 247 q 167 360 220 308 q 87 484 114 412 q 60 644 60 556 l 60 1004 l 185 1004 q 231 986 215 1004 q 247 942 247 968 l 247 644 q 259 540 247 585 q 299 463 272 494 q 372 413 327 431 q 483 390 417 394 l 483 1004 l 671 1004 l 671 390 q 783 413 738 394 q 857 462 828 431 q 897 539 885 494 q 909 644 909 585 l 909 942 q 925 986 909 968 q 972 1004 942 1004 l 1097 1004 z "},"Ω":{"ha":1133,"x_min":59,"x_max":1074,"o":"m 1074 153 l 1074 58 q 1057 16 1074 33 q 1011 0 1040 0 l 642 0 l 642 211 q 732 249 690 219 q 806 324 774 278 q 856 427 838 369 q 874 551 874 485 q 849 686 874 628 q 782 781 824 743 q 684 837 740 818 q 566 856 628 856 q 448 837 503 856 q 350 781 392 818 q 284 686 308 743 q 259 551 259 628 q 277 427 259 485 q 327 324 295 369 q 400 249 358 278 q 490 211 442 219 l 490 0 l 122 0 q 76 16 92 0 q 59 58 59 33 l 59 153 l 219 153 q 285 150 251 153 q 353 142 319 147 q 240 204 291 165 q 151 297 188 244 q 94 416 115 351 q 74 553 74 481 q 111 738 74 653 q 216 884 149 822 q 373 981 283 946 q 567 1015 463 1015 q 761 981 671 1015 q 917 884 851 946 q 1022 738 983 822 q 1060 553 1060 653 q 1039 416 1060 481 q 982 298 1019 351 q 894 205 945 244 q 781 142 842 165 q 848 150 814 147 q 914 153 881 153 l 1074 153 z "},"α":{"ha":837,"x_min":47,"x_max":833,"o":"m 548 499 q 524 535 538 517 q 490 566 509 553 q 447 587 470 579 q 396 595 423 595 q 331 581 363 595 q 276 538 300 567 q 238 460 252 508 q 224 347 224 413 q 236 244 224 286 q 269 175 248 201 q 317 138 290 149 q 374 126 344 126 q 431 137 404 126 q 477 172 457 148 q 512 235 498 197 q 531 328 526 274 l 548 499 m 833 119 l 833 51 q 825 30 833 40 q 804 11 818 19 q 770 -2 790 3 q 725 -7 750 -7 q 674 0 699 -7 q 628 21 649 7 q 590 57 607 35 q 562 108 573 78 q 510 53 538 76 q 452 16 482 31 q 391 -4 422 2 q 331 -10 360 -10 q 219 14 271 -10 q 128 84 167 38 q 68 194 90 129 q 47 342 47 260 q 71 499 47 428 q 138 620 95 570 q 239 698 181 671 q 365 726 297 726 q 485 700 433 726 q 573 635 538 675 l 583 681 q 626 713 594 713 l 731 713 l 695 344 q 691 278 694 311 q 688 215 688 245 q 696 172 688 190 q 716 142 703 154 q 746 125 729 131 q 782 119 763 119 l 833 119 z "},"β":{"ha":789,"x_min":84,"x_max":746,"o":"m 256 190 q 313 137 281 153 q 390 121 344 121 q 471 136 436 121 q 528 177 506 151 q 561 239 550 203 q 572 314 572 274 q 557 398 572 365 q 516 449 541 431 q 458 474 490 467 q 391 481 425 481 l 348 481 l 348 615 l 370 615 q 435 622 406 615 q 482 645 463 629 q 511 686 501 660 q 522 748 522 711 q 488 856 522 822 q 394 890 453 890 q 331 876 358 890 q 288 832 305 863 q 264 754 272 802 q 256 636 256 706 l 256 190 m 84 642 q 103 797 84 728 q 160 915 122 866 q 258 989 199 963 q 397 1015 317 1015 q 527 993 473 1015 q 616 935 581 971 q 667 855 651 900 q 683 763 683 810 q 648 634 683 690 q 544 553 613 579 q 630 515 592 540 q 693 458 667 491 q 732 384 719 425 q 746 296 746 342 q 724 179 746 235 q 660 82 701 124 q 561 15 619 40 q 433 -10 503 -10 q 256 56 322 -10 l 256 -241 l 84 -241 l 84 642 z "},"γ":{"ha":776,"x_min":24,"x_max":767,"o":"m 767 713 q 720 551 750 634 q 651 384 690 467 q 567 222 613 301 q 475 72 522 142 l 475 -233 l 303 -233 l 303 70 q 278 195 292 132 q 247 316 265 258 q 209 425 230 374 q 165 513 189 475 q 112 572 140 550 q 51 593 83 593 l 24 593 l 24 656 q 28 680 24 669 q 41 700 31 692 q 67 714 50 709 q 109 719 83 719 q 230 683 178 719 q 321 583 283 648 q 384 427 359 519 q 424 225 409 336 q 474 329 451 274 q 515 440 497 384 q 547 552 533 497 q 571 660 561 608 q 590 701 576 690 q 622 713 604 713 l 767 713 z "},"δ":{"ha":776,"x_min":44,"x_max":732,"o":"m 389 120 q 459 134 427 120 q 513 173 490 147 q 549 235 536 199 q 561 319 561 272 q 547 407 561 369 q 509 476 533 446 q 454 531 485 507 q 389 576 423 555 q 326 542 356 563 q 272 492 295 522 q 235 422 249 462 q 221 329 221 382 q 231 248 221 286 q 262 182 241 210 q 314 137 283 153 q 389 120 346 120 m 640 878 q 626 849 636 856 q 595 842 616 842 q 559 847 583 842 q 505 860 535 853 q 442 872 474 867 q 381 878 409 878 q 316 864 335 878 q 297 831 297 851 q 316 792 297 810 q 365 755 335 774 q 435 715 396 736 q 515 668 474 694 q 594 610 556 642 q 664 536 633 578 q 713 442 694 494 q 732 323 732 389 q 709 190 732 251 q 641 85 685 129 q 533 16 597 40 q 389 -9 469 -9 q 244 16 308 -9 q 135 85 180 41 q 67 190 91 129 q 44 324 44 251 q 101 515 44 435 q 276 641 158 595 q 222 677 247 658 q 177 718 196 696 q 147 768 158 741 q 136 831 136 796 q 152 903 136 870 q 199 960 167 936 q 279 998 231 984 q 393 1011 327 1011 q 453 1009 419 1011 q 521 1003 486 1007 q 590 994 556 999 q 653 983 624 989 l 640 878 z "},"ε":{"ha":635,"x_min":49,"x_max":610,"o":"m 610 106 q 548 51 582 73 q 479 15 515 28 q 408 -3 444 2 q 342 -9 373 -9 q 231 6 283 -9 q 137 48 178 20 q 73 115 97 75 q 49 208 49 156 q 82 307 49 266 q 168 372 115 348 q 119 403 140 385 q 87 441 99 421 q 68 484 74 462 q 63 527 63 506 q 81 602 63 567 q 136 665 99 638 q 226 708 172 692 q 351 724 280 724 q 492 699 433 724 q 592 635 551 675 l 553 569 q 535 550 544 554 q 515 545 527 545 q 492 553 504 545 q 461 569 479 560 q 417 585 442 578 q 354 593 391 593 q 261 570 292 593 q 229 511 229 547 q 265 449 229 473 q 369 426 301 426 l 483 426 l 483 314 l 369 314 q 257 290 292 314 q 223 222 223 265 q 232 182 223 200 q 257 149 240 163 q 297 128 273 135 q 351 120 321 120 q 420 130 393 120 q 466 152 447 140 q 499 175 485 165 q 530 185 514 185 q 561 169 551 185 l 610 106 z "},"ζ":{"ha":562,"x_min":45,"x_max":585,"o":"m 576 933 q 575 914 578 924 q 564 890 573 904 q 539 857 556 876 q 494 811 522 838 q 436 755 467 785 q 373 689 404 724 q 312 614 342 653 q 260 532 283 575 q 223 444 237 490 q 210 350 210 398 q 220 281 210 310 q 252 231 231 252 q 305 193 273 209 q 381 163 338 177 q 483 121 444 143 q 545 75 523 99 q 576 23 568 51 q 585 -35 585 -4 q 569 -130 585 -83 q 522 -226 553 -177 l 389 -174 q 402 -152 395 -165 q 414 -126 408 -140 q 423 -98 419 -112 q 426 -72 426 -84 q 422 -47 426 -59 q 402 -23 417 -35 q 361 2 388 -10 q 292 28 335 15 q 186 72 232 47 q 108 131 140 97 q 61 209 77 165 q 45 314 45 254 q 70 461 45 390 q 141 602 96 533 q 249 739 187 671 q 385 878 311 808 q 232 866 314 866 l 151 866 q 118 871 132 866 q 97 884 105 876 q 84 902 88 892 q 81 922 81 912 l 81 1004 l 560 1004 l 576 933 z "},"η":{"ha":824,"x_min":13,"x_max":746,"o":"m 13 662 q 17 683 13 673 q 32 702 22 694 q 59 715 42 710 q 99 720 75 720 q 199 695 156 720 q 263 618 242 670 q 314 661 287 642 q 371 694 341 681 q 435 716 401 708 q 506 724 468 724 q 609 704 564 724 q 684 648 654 684 q 730 563 715 613 q 746 453 746 513 l 746 -233 l 574 -233 l 574 453 q 544 555 574 519 q 454 590 515 590 q 370 570 409 590 q 297 515 331 550 l 297 0 l 125 0 l 125 503 q 105 572 125 549 q 47 594 85 594 l 13 594 l 13 662 z "},"θ":{"ha":837,"x_min":65,"x_max":772,"o":"m 233 454 q 249 304 235 367 q 287 201 263 241 q 344 142 310 161 q 419 123 377 123 q 494 142 461 123 q 550 201 527 161 q 588 304 574 241 q 604 454 601 367 l 233 454 m 603 571 q 585 713 599 653 q 548 810 571 772 q 492 867 524 849 q 419 885 460 885 q 346 867 378 885 q 290 810 313 849 q 252 713 266 772 q 233 571 238 653 l 603 571 m 419 1016 q 564 983 499 1016 q 675 886 629 951 q 747 726 722 822 q 772 504 772 630 q 747 282 772 378 q 675 120 722 185 q 564 23 629 56 q 419 -10 499 -10 q 274 23 340 -10 q 163 120 209 56 q 91 282 116 185 q 65 504 65 378 q 91 726 65 630 q 163 886 116 822 q 274 983 209 951 q 419 1016 340 1016 z "},"ι":{"ha":389,"x_min":80,"x_max":397,"o":"m 80 713 l 251 713 l 251 211 q 270 142 251 165 q 333 118 289 118 l 397 118 l 397 66 q 386 34 397 48 q 356 11 374 21 q 313 -3 337 2 q 265 -8 289 -8 q 184 8 219 -8 q 127 52 150 24 q 92 118 103 80 q 80 201 80 156 l 80 713 z "},"λ":{"ha":763,"x_min":17,"x_max":765,"o":"m 765 118 l 765 50 q 759 20 765 32 q 743 3 753 9 q 719 -6 733 -3 q 686 -8 704 -8 q 626 -2 656 -8 q 569 20 596 4 q 519 65 542 37 q 481 138 497 93 l 389 384 q 378 417 382 402 q 372 447 374 433 q 363 417 368 432 q 352 386 358 402 l 214 32 q 197 10 208 19 q 164 0 185 0 l 17 0 l 291 641 l 231 817 q 215 852 223 838 q 194 873 206 865 q 166 884 183 881 q 127 888 150 888 l 74 888 l 74 951 q 78 975 74 964 q 94 995 83 987 q 124 1008 106 1003 q 172 1013 143 1013 q 231 1008 201 1013 q 288 987 260 1002 q 337 947 315 972 q 374 881 360 921 l 628 186 q 661 134 640 151 q 722 118 681 118 l 765 118 z "},"μ":{"ha":840,"x_min":85,"x_max":840,"o":"m 840 119 l 840 51 q 833 29 840 40 q 811 11 826 19 q 777 -2 797 3 q 733 -7 758 -7 q 676 1 703 -7 q 627 27 649 10 q 587 70 604 44 q 560 132 569 97 q 475 42 523 74 q 366 10 427 10 q 292 22 324 10 q 234 54 259 33 q 243 -7 241 24 q 246 -66 246 -39 l 246 -233 l 160 -233 q 105 -214 124 -233 q 85 -161 85 -196 l 85 713 l 256 713 l 256 292 q 287 188 256 227 q 377 149 317 149 q 472 180 433 149 q 535 266 511 210 l 535 713 l 706 713 l 706 210 q 728 141 706 163 q 790 119 751 119 l 840 119 z "},"ν":{"ha":725,"x_min":6,"x_max":715,"o":"m 715 713 q 663 527 695 622 q 589 339 631 432 q 498 160 547 247 q 394 0 449 73 l 288 0 l 6 713 l 147 713 q 180 703 167 713 q 197 681 192 694 l 334 300 q 352 240 344 269 q 366 181 360 210 q 420 293 397 233 q 463 416 444 353 q 495 542 481 479 q 520 664 509 606 q 538 702 524 691 q 569 713 552 713 l 715 713 z "},"ξ":{"ha":562,"x_min":47,"x_max":568,"o":"m 558 933 q 552 906 558 918 q 536 886 546 894 q 515 873 527 878 q 490 869 503 869 l 426 869 q 352 857 385 869 q 296 824 319 845 q 259 773 272 803 q 247 708 247 744 q 292 621 247 649 q 421 593 337 593 l 490 593 l 490 460 l 384 460 q 309 449 340 460 q 257 420 277 439 q 226 375 236 401 q 217 317 217 349 q 228 261 217 285 q 263 218 239 238 q 326 181 288 199 q 419 144 365 164 q 489 110 461 128 q 535 71 517 92 q 560 25 553 50 q 568 -28 568 1 q 552 -129 568 -81 q 505 -226 536 -177 l 372 -174 q 385 -152 378 -165 q 397 -126 391 -140 q 406 -99 402 -112 q 409 -74 409 -86 q 405 -48 409 -60 q 392 -25 401 -36 q 365 -6 382 -15 q 323 10 349 3 q 219 48 269 26 q 131 105 169 71 q 69 187 92 140 q 47 301 47 235 q 54 363 47 330 q 78 427 61 396 q 123 486 94 458 q 192 534 151 514 q 115 599 142 559 q 88 696 88 640 q 98 753 88 726 q 125 802 108 780 q 165 843 142 825 q 214 876 188 862 l 127 876 q 73 894 88 876 q 57 942 57 912 l 57 1004 l 558 1004 l 558 933 z "},"π":{"ha":877,"x_min":47,"x_max":838,"o":"m 838 629 q 825 592 838 607 q 785 576 811 576 l 697 576 l 697 533 q 699 372 697 439 q 706 258 701 304 q 719 185 711 213 q 736 143 726 158 q 759 124 747 128 q 787 119 772 119 l 818 119 l 818 51 q 810 27 818 38 q 787 9 801 17 q 753 -2 772 2 q 713 -6 734 -6 q 576 56 620 -6 q 533 238 533 118 q 536 303 533 269 q 543 377 539 337 q 552 467 548 418 q 560 576 557 515 l 340 576 q 330 367 338 457 q 308 213 322 277 q 277 106 295 148 q 235 38 258 63 q 185 3 213 13 q 124 -6 157 -6 q 102 -5 114 -6 q 79 1 90 -3 q 62 12 69 6 q 55 26 55 18 l 55 141 l 69 141 q 112 164 92 141 q 148 239 132 188 q 176 374 165 291 q 191 576 187 457 l 47 576 l 47 649 q 51 669 47 658 q 64 689 56 680 q 84 704 72 698 q 112 710 97 710 l 838 710 l 838 629 z "},"ρ":{"ha":791,"x_min":76,"x_max":744,"o":"m 247 197 q 318 138 278 156 q 399 120 358 120 q 469 135 438 120 q 522 179 500 149 q 556 255 544 209 q 568 362 568 300 q 556 468 568 424 q 523 538 544 511 q 472 578 501 565 q 406 590 442 590 q 344 578 374 590 q 294 542 315 566 q 260 484 272 519 q 247 403 247 449 l 247 197 m 76 403 q 98 536 76 476 q 161 637 119 595 q 265 701 203 678 q 406 724 327 724 q 536 700 475 724 q 644 628 598 675 q 717 514 690 581 q 744 362 744 447 q 723 214 744 282 q 661 96 701 146 q 565 18 622 46 q 438 -10 508 -10 q 333 9 381 -10 q 247 61 285 28 l 247 -233 l 76 -233 l 76 403 z "},"σ":{"ha":854,"x_min":46,"x_max":860,"o":"m 452 581 q 277 522 331 581 q 223 344 223 463 q 399 122 223 122 q 531 179 488 122 q 574 353 574 237 q 569 426 574 390 q 553 493 564 463 q 526 547 542 524 q 486 581 509 570 l 452 581 m 860 711 l 860 630 q 857 614 860 622 q 846 598 853 605 q 829 586 839 590 q 806 581 819 581 l 656 581 q 725 484 700 543 q 750 346 750 426 q 725 203 750 268 q 655 90 701 138 q 544 16 609 42 q 399 -10 479 -10 q 255 14 320 -10 q 144 85 190 39 q 72 198 97 131 q 46 347 46 264 q 74 500 46 433 q 155 615 102 568 q 283 686 208 662 q 453 711 358 711 l 860 711 z "},"ς":{"ha":656,"x_min":45,"x_max":640,"o":"m 594 562 q 580 547 587 552 q 558 541 572 541 q 533 549 545 541 q 503 567 520 557 q 461 585 485 577 q 402 593 438 593 q 323 577 357 593 q 266 535 289 562 q 233 471 244 508 q 222 393 222 435 q 236 293 222 331 q 280 228 250 254 q 356 184 310 202 q 464 144 401 165 q 534 111 506 128 q 580 72 563 93 q 606 26 598 51 q 613 -28 613 1 q 597 -129 613 -81 q 550 -226 581 -177 l 417 -174 q 430 -151 423 -164 q 442 -126 436 -139 q 451 -99 447 -112 q 454 -74 454 -85 q 450 -48 454 -60 q 436 -25 447 -36 q 410 -6 426 -15 q 368 10 393 3 q 284 39 325 24 q 207 74 243 53 q 142 121 172 94 q 90 185 112 148 q 57 271 69 222 q 45 383 45 319 q 68 514 45 451 q 134 622 90 576 q 243 696 178 669 q 392 724 308 724 q 532 698 472 724 q 640 624 592 672 l 594 562 z "},"τ":{"ha":663,"x_min":12,"x_max":648,"o":"m 648 642 q 633 597 648 613 q 589 582 617 582 l 392 582 l 392 213 q 410 143 392 167 q 473 119 429 119 l 537 119 l 537 67 q 525 36 537 49 q 495 13 514 22 q 452 -1 476 3 q 404 -6 428 -6 q 324 9 359 -6 q 266 53 290 25 q 231 119 243 81 q 219 203 219 158 l 219 582 l 12 582 l 12 655 q 26 693 12 676 q 69 710 40 710 l 648 710 l 648 642 z "},"υ":{"ha":777,"x_min":77,"x_max":712,"o":"m 676 713 q 689 627 683 669 q 701 546 696 586 q 709 464 706 506 q 712 379 712 423 q 683 203 712 277 q 608 82 655 129 q 499 11 560 34 q 372 -11 438 -11 q 247 8 301 -11 q 154 62 192 27 q 97 147 117 97 q 77 260 77 197 l 77 713 l 249 713 l 249 260 q 258 202 249 227 q 286 159 268 176 q 328 132 303 142 q 383 123 353 123 q 442 135 413 123 q 494 176 471 147 q 531 255 517 206 q 546 379 546 304 q 542 449 546 415 q 533 518 538 483 q 521 587 527 552 q 510 657 515 622 q 513 683 509 672 q 524 700 517 694 q 540 710 531 707 q 558 713 549 713 l 676 713 z "},"φ":{"ha":1074,"x_min":44,"x_max":1028,"o":"m 614 116 q 794 185 731 118 q 857 376 857 252 q 843 468 857 427 q 806 538 828 509 q 754 582 783 567 q 698 597 726 597 q 637 573 660 597 q 614 486 614 548 l 614 116 m 453 486 q 470 594 453 549 q 519 668 487 639 q 596 710 551 697 q 698 724 642 724 q 833 697 772 724 q 937 623 894 670 q 1005 513 981 576 q 1028 376 1028 449 q 998 216 1028 287 q 913 95 967 145 q 782 18 858 45 q 614 -10 706 -10 l 614 -233 l 453 -233 l 453 -10 q 287 18 362 -9 q 158 93 212 45 q 74 209 104 142 q 44 358 44 276 q 63 476 44 421 q 116 578 82 532 q 199 660 151 624 q 305 719 247 696 l 350 651 q 357 630 356 641 q 355 609 358 619 q 345 591 351 599 q 333 581 340 583 q 247 492 278 549 q 216 356 216 434 q 232 258 216 302 q 278 183 248 215 q 353 135 309 152 q 453 116 397 117 l 453 486 z "},"χ":{"ha":685,"x_min":-1,"x_max":696,"o":"m 696 -119 l 696 -187 q 693 -217 696 -206 q 682 -234 690 -228 q 662 -243 675 -240 q 631 -245 649 -245 q 567 -240 597 -245 q 511 -218 538 -234 q 463 -174 485 -202 q 422 -100 441 -146 l 322 132 q 314 89 319 110 q 303 51 309 67 l 185 -199 q 168 -222 180 -212 q 137 -231 157 -231 l 13 -231 l 245 267 l 133 525 q 114 560 124 546 q 92 582 104 574 q 64 593 80 590 q 25 597 48 597 l -1 597 l -1 659 q -1 684 -1 672 q 6 704 0 695 q 25 717 11 713 q 66 722 39 722 q 136 715 104 722 q 194 693 168 708 q 241 651 220 677 q 277 589 261 626 l 378 358 q 385 401 381 381 q 395 437 390 421 l 508 681 q 524 704 513 694 q 556 713 535 713 l 679 713 l 452 226 l 573 -51 q 589 -81 581 -68 q 608 -102 597 -94 q 634 -115 619 -111 q 669 -119 649 -119 l 696 -119 z "},"ψ":{"ha":1097,"x_min":74,"x_max":1032,"o":"m 995 713 q 1010 627 1003 669 q 1022 546 1017 586 q 1029 464 1026 506 q 1032 379 1032 423 q 1001 206 1032 276 q 916 90 969 135 q 790 23 863 45 q 635 -7 717 0 l 635 -233 l 464 -233 l 464 -8 q 289 27 363 -1 q 168 100 215 55 q 97 208 120 146 q 74 347 74 270 l 74 713 l 193 713 q 213 706 203 713 q 230 690 223 700 q 242 669 238 681 q 246 648 246 658 l 246 347 q 303 197 246 250 q 464 128 360 143 l 464 1004 l 635 1004 l 635 127 q 729 148 688 133 q 800 193 771 164 q 845 268 829 223 q 860 379 860 313 q 856 472 860 433 q 844 542 851 511 q 832 599 838 572 q 824 657 826 626 q 828 683 824 672 q 839 700 832 694 q 855 710 846 707 q 872 713 863 713 l 995 713 z "},"ω":{"ha":1101,"x_min":50,"x_max":1052,"o":"m 963 713 q 1027 543 1002 633 q 1052 365 1052 453 q 1032 214 1052 283 q 975 95 1012 145 q 884 17 938 45 q 766 -11 831 -11 q 693 -2 726 -11 q 633 23 660 7 q 586 60 606 38 q 550 107 565 82 q 514 60 534 82 q 466 23 493 38 q 407 -2 440 7 q 335 -11 375 -11 q 217 17 270 -11 q 127 95 165 45 q 70 214 90 145 q 50 365 50 283 q 75 543 50 453 q 140 713 99 633 l 263 713 q 282 709 272 713 q 300 696 292 705 q 309 673 308 687 q 303 638 311 659 q 283 598 297 627 q 256 530 269 569 q 232 448 242 492 q 222 365 222 405 q 234 244 222 291 q 266 170 247 197 q 310 133 286 143 q 357 123 334 123 q 406 137 386 123 q 440 176 426 151 q 459 235 453 201 q 465 311 465 270 l 465 480 l 636 480 l 636 311 l 637 311 q 643 235 637 270 q 662 176 649 201 q 695 137 675 151 q 744 123 715 123 q 791 133 767 123 q 835 170 815 143 q 867 244 855 197 q 880 365 880 291 q 869 448 880 405 q 845 530 859 492 q 819 598 832 569 q 799 638 806 627 q 793 673 791 659 q 802 696 794 687 q 820 709 809 705 q 839 713 831 713 l 963 713 z "},"΄":{"ha":556,"x_min":226,"x_max":413,"o":"m 226 794 l 266 1049 l 372 1049 q 404 1034 396 1049 q 404 994 413 1019 l 326 794 l 226 794 z "},"΅":{"ha":556,"x_min":40,"x_max":574,"o":"m 224 799 l 264 1055 l 369 1055 q 402 1040 394 1055 q 402 999 410 1025 l 324 799 l 224 799 m 574 899 q 567 870 574 883 q 550 846 561 856 q 525 830 540 835 q 495 824 511 824 q 465 830 479 824 q 440 846 451 835 q 424 870 430 856 q 417 899 417 883 q 424 930 417 916 q 440 955 430 944 q 465 972 451 966 q 495 978 479 978 q 525 972 511 978 q 550 955 540 966 q 567 930 561 944 q 574 899 574 916 m 196 899 q 190 870 196 883 q 172 846 183 856 q 147 830 161 835 q 116 824 133 824 q 87 830 101 824 q 63 846 73 835 q 46 870 52 856 q 40 899 40 883 q 46 930 40 916 q 63 955 52 944 q 87 972 73 966 q 116 978 101 978 q 147 972 133 978 q 172 955 161 966 q 190 930 183 944 q 196 899 196 916 z "},"ʹ":{"ha":313,"x_min":46,"x_max":267,"o":"m 240 1055 q 236 832 267 939 q 118 633 206 724 l 65 666 q 47 689 49 676 q 53 713 46 703 q 89 765 73 740 q 111 816 104 790 q 113 869 117 842 q 88 928 108 897 l 88 1010 q 99 1042 88 1030 q 133 1055 109 1055 l 240 1055 z "},"͵":{"ha":313,"x_min":46,"x_max":267,"o":"m 240 259 q 236 36 267 143 q 118 -163 206 -72 l 65 -130 q 47 -107 49 -120 q 53 -83 46 -93 q 89 -31 73 -56 q 111 20 104 -6 q 113 73 117 46 q 88 132 108 101 l 88 215 q 99 247 88 234 q 133 259 109 259 l 240 259 z "},"Б":{"ha":874,"x_min":112,"x_max":830,"o":"m 462 146 q 549 157 514 146 q 606 189 584 169 q 636 236 627 209 q 645 294 645 263 q 636 356 645 328 q 606 403 627 384 q 549 433 584 422 q 463 443 515 443 l 299 443 l 299 146 l 462 146 m 463 589 q 630 567 560 589 q 744 509 700 546 q 809 421 788 472 q 830 313 830 371 q 805 185 830 242 q 733 86 781 127 q 618 22 686 44 q 462 0 549 0 l 112 0 l 112 1004 l 793 1004 l 793 860 l 299 860 l 299 589 l 463 589 z "},"Г":{"ha":752,"x_min":112,"x_max":731,"o":"m 731 860 l 299 860 l 299 0 l 112 0 l 112 1004 l 731 1004 l 731 860 z "},"Ґ":{"ha":752,"x_min":112,"x_max":731,"o":"m 731 860 l 299 860 l 299 0 l 112 0 l 112 1004 l 587 1004 l 587 1227 l 731 1227 l 731 860 z "},"Д":{"ha":1122,"x_min":10,"x_max":1090,"o":"m 747 144 l 747 860 l 472 860 q 450 598 464 713 q 417 397 435 483 q 375 248 398 310 q 326 144 352 186 l 747 144 m 1090 144 l 1090 -185 q 1074 -224 1090 -210 q 1031 -239 1058 -239 l 919 -239 l 919 0 l 181 0 l 181 -185 q 165 -224 181 -210 q 122 -239 149 -239 l 10 -239 l 10 144 l 119 144 q 158 177 139 154 q 195 242 177 200 q 230 347 213 283 q 259 503 246 411 q 282 719 272 595 q 296 1004 291 842 l 934 1004 l 934 144 l 1090 144 z "},"Ж":{"ha":1483,"x_min":1,"x_max":1481,"o":"m 1481 0 l 1357 0 q 1287 18 1316 0 q 1241 65 1258 35 l 1035 386 q 994 429 1017 417 q 935 442 971 442 l 829 442 l 829 0 l 653 0 l 653 442 l 547 442 q 489 429 513 442 q 448 386 466 417 l 242 65 q 196 18 225 35 q 126 0 167 0 l 1 0 l 264 426 q 317 493 288 468 q 383 531 346 518 q 330 564 352 542 q 288 617 308 585 l 29 1004 l 177 1004 q 230 990 206 1004 q 268 951 253 976 l 474 633 q 515 593 492 603 q 565 583 537 583 l 653 583 l 653 1004 l 829 1004 l 829 583 l 918 583 q 968 593 947 583 q 1010 633 990 603 l 1215 951 q 1253 990 1229 976 q 1306 1004 1277 1004 l 1453 1004 l 1194 617 q 1153 564 1174 585 q 1100 531 1131 542 q 1166 493 1138 518 q 1219 426 1195 468 l 1481 0 z "},"З":{"ha":808,"x_min":16,"x_max":751,"o":"m 54 910 q 193 988 113 960 q 371 1015 273 1015 q 518 996 452 1015 q 629 941 583 976 q 700 858 675 906 q 724 752 724 810 q 692 624 724 681 q 594 531 660 567 q 658 492 629 515 q 707 442 687 469 q 739 383 728 415 q 751 315 751 351 q 725 188 751 247 q 652 85 700 128 q 533 16 603 41 q 373 -10 463 -10 q 270 0 320 -10 q 174 26 219 9 q 88 68 128 44 q 16 122 47 92 l 71 212 q 89 228 78 222 q 113 235 100 235 q 153 220 131 235 q 205 189 174 206 q 277 157 235 172 q 378 143 319 143 q 524 183 472 143 q 575 307 575 224 q 561 368 575 341 q 522 414 547 395 q 459 443 496 433 q 378 453 423 453 l 237 453 l 236 603 l 365 603 q 501 637 452 603 q 550 737 550 672 q 504 829 550 794 q 370 863 458 863 q 283 852 319 863 q 220 828 247 841 q 175 804 193 815 q 142 793 156 793 q 118 800 128 793 q 100 821 108 807 l 54 910 z "},"И":{"ha":1070,"x_min":112,"x_max":958,"o":"m 958 1004 l 958 0 l 771 0 l 771 629 q 773 703 771 665 q 781 786 774 742 q 750 714 767 747 q 719 656 734 681 l 335 58 q 320 37 328 47 q 301 18 311 26 q 278 5 290 10 q 252 0 265 0 l 112 0 l 112 1004 l 299 1004 l 299 375 q 298 300 299 340 q 290 217 296 261 q 320 290 303 256 q 352 348 336 323 l 735 947 q 750 967 742 957 q 769 986 759 978 q 792 999 780 994 q 818 1004 804 1004 l 958 1004 z "},"К":{"ha":967,"x_min":112,"x_max":964,"o":"m 964 0 l 794 0 q 750 14 768 0 q 717 55 733 28 l 503 392 q 486 416 495 407 q 466 432 476 426 q 441 440 455 438 q 410 442 428 442 l 299 442 l 299 0 l 112 0 l 112 1004 l 299 1004 l 299 583 l 393 583 q 442 593 422 583 q 481 629 463 603 l 701 954 q 734 990 715 976 q 779 1004 753 1004 l 939 1004 l 666 601 q 626 558 649 575 q 575 531 603 540 q 645 493 617 519 q 701 424 674 468 l 964 0 z "},"Л":{"ha":1033,"x_min":-3,"x_max":922,"o":"m 922 0 l 733 0 l 733 860 l 459 860 q 432 534 449 672 q 389 299 414 396 q 333 142 365 202 q 264 48 301 81 q 183 2 226 14 q 93 -10 140 -10 q 20 -1 43 -10 q -3 25 -3 8 l -3 142 l 51 142 q 87 146 69 142 q 124 164 106 150 q 160 203 142 177 q 194 272 178 228 q 225 378 210 315 q 250 531 239 442 q 270 736 262 619 q 283 1004 279 853 l 922 1004 l 922 0 z "},"Љ":{"ha":1481,"x_min":-3,"x_max":1452,"o":"m 1085 146 q 1172 157 1137 146 q 1228 189 1207 169 q 1259 236 1249 209 q 1268 294 1268 263 q 1259 356 1268 328 q 1228 403 1250 384 q 1172 433 1207 422 q 1085 443 1137 443 l 922 443 l 922 146 l 1085 146 m 1085 589 q 1252 567 1183 589 q 1367 509 1322 546 q 1432 421 1411 472 q 1452 313 1452 371 q 1427 185 1452 242 q 1356 86 1403 127 q 1241 22 1309 44 q 1085 0 1172 0 l 733 0 l 733 860 l 459 860 q 432 534 449 672 q 389 299 414 396 q 333 142 365 202 q 264 48 301 81 q 183 2 226 14 q 93 -10 140 -10 q 20 -1 43 -10 q -3 25 -3 8 l -3 142 l 51 142 q 87 146 69 142 q 124 164 106 150 q 160 203 142 177 q 194 272 178 228 q 225 378 210 315 q 250 531 239 442 q 270 736 262 619 q 283 1004 279 853 l 922 1004 l 922 589 l 1085 589 z "},"Њ":{"ha":1519,"x_min":112,"x_max":1490,"o":"m 1122 146 q 1209 157 1174 146 q 1265 189 1244 169 q 1296 236 1287 209 q 1305 294 1305 263 q 1296 356 1305 328 q 1266 403 1287 384 q 1209 433 1244 422 q 1122 443 1174 443 l 958 443 l 958 146 l 1122 146 m 1122 589 q 1290 567 1220 589 q 1404 509 1360 546 q 1469 421 1448 472 q 1490 313 1490 371 q 1465 185 1490 242 q 1393 86 1440 127 q 1277 22 1346 44 q 1122 0 1209 0 l 771 0 l 771 439 l 299 439 l 299 0 l 112 0 l 112 1004 l 299 1004 l 299 572 l 771 572 l 771 1004 l 958 1004 l 958 589 l 1122 589 z "},"Ѳ":{"ha":1122,"x_min":52,"x_max":1069,"o":"m 247 440 q 280 317 254 372 q 345 226 305 263 q 440 168 385 188 q 561 149 494 149 q 682 168 628 149 q 776 226 736 188 q 842 317 817 263 q 875 440 867 372 l 247 440 m 873 579 q 838 696 863 644 q 772 783 812 747 q 679 838 732 819 q 561 856 626 856 q 443 838 497 856 q 350 783 390 819 q 284 696 310 747 q 249 579 258 644 l 873 579 m 561 1015 q 705 998 638 1015 q 828 948 772 980 q 930 869 885 915 q 1006 766 974 823 q 1053 642 1037 709 q 1069 502 1069 576 q 1033 298 1069 392 q 930 135 997 203 q 769 27 863 66 q 561 -11 676 -11 q 353 27 447 -11 q 193 135 260 66 q 89 298 126 203 q 52 502 52 392 q 89 707 52 613 q 193 869 126 801 q 353 977 260 938 q 561 1015 447 1015 z "},"П":{"ha":1035,"x_min":112,"x_max":924,"o":"m 924 0 l 735 0 l 735 860 l 299 860 l 299 0 l 112 0 l 112 1004 l 924 1004 l 924 0 z "},"У":{"ha":895,"x_min":-10,"x_max":908,"o":"m 908 1004 l 503 140 q 457 65 481 94 q 405 19 433 36 q 344 -4 376 3 q 275 -10 312 -10 q 202 -1 225 -10 q 179 25 179 8 l 179 142 l 233 142 q 265 144 249 142 q 296 156 281 147 q 326 179 312 164 q 353 219 341 194 l 393 300 l -10 1004 l 165 1004 q 204 992 190 1004 q 228 963 219 981 l 424 594 q 452 534 440 564 q 475 473 465 504 q 522 594 493 535 l 692 963 q 715 991 699 978 q 753 1004 730 1004 l 908 1004 z "},"Ѵ":{"ha":990,"x_min":-10,"x_max":979,"o":"m 688 858 q 764 973 713 935 q 899 1011 815 1011 q 939 1009 924 1011 q 964 1003 955 1007 q 976 992 972 999 q 979 976 979 985 l 979 860 l 941 860 q 852 788 878 860 l 564 0 l 395 0 l -10 1004 l 140 1004 q 179 992 164 1004 q 202 962 194 981 l 439 349 q 461 284 451 319 q 482 208 472 248 q 500 284 490 248 q 522 349 510 319 l 688 858 z "},"Ф":{"ha":1117,"x_min":42,"x_max":1075,"o":"m 647 264 q 745 286 701 265 q 822 342 790 307 q 871 424 853 377 q 889 525 889 471 q 871 625 889 578 q 822 707 853 672 q 745 763 790 742 q 647 785 701 784 l 647 264 m 470 785 q 372 763 416 784 q 296 707 328 742 q 247 625 264 672 q 229 525 229 578 q 247 424 229 471 q 296 342 264 377 q 372 286 328 307 q 470 264 416 265 l 470 785 m 647 929 q 819 894 741 926 q 955 806 898 861 q 1043 679 1011 751 q 1075 525 1075 607 q 1043 370 1075 442 q 955 242 1011 297 q 819 155 898 188 q 647 119 741 122 l 647 0 l 470 0 l 470 119 q 299 155 377 122 q 163 243 220 188 q 74 370 106 297 q 42 525 42 442 q 74 679 42 607 q 163 806 106 751 q 299 893 220 860 q 470 929 377 926 l 470 1047 l 647 1047 l 647 929 z "},"Ц":{"ha":1103,"x_min":112,"x_max":1067,"o":"m 1067 144 l 1067 -185 q 1051 -224 1067 -210 q 1008 -239 1035 -239 l 896 -239 l 896 0 l 112 0 l 112 1004 l 299 1004 l 299 144 l 735 144 l 735 1004 l 924 1004 l 924 144 l 1067 144 z "},"Џ":{"ha":1035,"x_min":112,"x_max":924,"o":"m 924 1004 l 924 0 l 603 0 l 603 -185 q 586 -224 603 -210 q 544 -239 570 -239 l 432 -239 l 432 0 l 112 0 l 112 1004 l 299 1004 l 299 144 l 735 144 l 735 1004 l 924 1004 z "},"Ч":{"ha":939,"x_min":54,"x_max":827,"o":"m 827 1004 l 827 0 l 639 0 l 639 402 q 483 372 558 382 q 343 366 408 363 q 225 388 278 369 q 134 443 172 406 q 75 536 96 480 q 54 673 54 593 l 54 1004 l 242 1004 l 242 673 q 263 576 242 615 q 329 519 283 538 q 451 505 375 501 q 639 535 527 508 l 639 1004 l 827 1004 z "},"Ш":{"ha":1507,"x_min":112,"x_max":1395,"o":"m 1395 1004 l 1395 0 l 112 0 l 112 1004 l 299 1004 l 299 144 l 659 144 l 659 1004 l 847 1004 l 847 144 l 1208 144 l 1208 1004 l 1395 1004 z "},"Щ":{"ha":1575,"x_min":112,"x_max":1539,"o":"m 1539 144 l 1539 -185 q 1523 -224 1539 -210 q 1480 -239 1506 -239 l 1367 -239 l 1367 0 l 112 0 l 112 1004 l 299 1004 l 299 144 l 659 144 l 659 1004 l 847 1004 l 847 144 l 1208 144 l 1208 1004 l 1395 1004 l 1395 144 l 1539 144 z "},"Ъ":{"ha":1051,"x_min":20,"x_max":1022,"o":"m 653 146 q 741 157 706 146 q 797 189 776 169 q 828 236 819 209 q 837 294 837 263 q 828 356 837 328 q 797 403 819 384 q 741 433 776 422 q 654 443 706 443 l 490 443 l 490 146 l 653 146 m 654 589 q 822 567 752 589 q 936 509 892 546 q 1001 421 980 472 q 1022 313 1022 371 q 997 185 1022 242 q 925 86 972 127 q 809 22 878 44 q 653 0 741 0 l 303 0 l 303 856 l 20 856 l 20 1004 l 490 1004 l 490 589 l 654 589 z "},"Ы":{"ha":1276,"x_min":112,"x_max":1164,"o":"m 462 146 q 549 157 514 146 q 606 189 584 169 q 636 236 627 209 q 645 294 645 263 q 636 356 645 328 q 606 403 627 384 q 549 433 584 422 q 463 443 515 443 l 299 443 l 299 146 l 462 146 m 463 589 q 630 567 560 589 q 744 509 700 546 q 809 421 788 472 q 830 313 830 371 q 805 185 830 242 q 733 86 781 127 q 618 22 686 44 q 462 0 549 0 l 112 0 l 112 1004 l 299 1004 l 299 589 l 463 589 m 1164 0 l 976 0 l 976 1004 l 1164 1004 l 1164 0 z "},"Ь":{"ha":858,"x_min":112,"x_max":830,"o":"m 462 146 q 549 157 514 146 q 606 189 584 169 q 636 236 627 209 q 645 294 645 263 q 636 356 645 328 q 606 403 627 384 q 549 433 584 422 q 463 443 515 443 l 299 443 l 299 146 l 462 146 m 463 589 q 630 567 560 589 q 744 509 700 546 q 809 421 788 472 q 830 313 830 371 q 805 185 830 242 q 733 86 781 127 q 618 22 686 44 q 462 0 549 0 l 112 0 l 112 1004 l 299 1004 l 299 589 l 463 589 z "},"Э":{"ha":928,"x_min":26,"x_max":875,"o":"m 40 885 q 184 979 99 943 q 378 1015 269 1015 q 580 977 489 1015 q 737 872 672 940 q 839 709 803 803 q 875 502 875 615 q 841 296 875 390 q 744 133 807 201 q 592 27 681 65 q 391 -11 502 -11 q 177 29 267 -11 q 26 145 87 69 l 100 225 q 126 237 111 237 q 158 223 142 237 q 204 188 181 202 q 253 165 227 174 q 310 151 279 156 q 379 147 341 147 q 488 167 437 147 q 579 224 539 186 q 645 316 619 261 q 681 440 672 370 l 215 440 l 215 579 l 678 579 q 643 697 669 645 q 578 784 617 749 q 489 838 540 819 q 380 856 439 856 q 281 844 320 856 q 216 817 242 831 q 173 790 190 802 q 140 777 156 777 q 116 783 125 777 q 101 798 108 790 l 40 885 z "},"Є":{"ha":928,"x_min":53,"x_max":902,"o":"m 801 237 q 828 225 817 237 l 902 145 q 752 29 841 69 q 538 -11 663 -11 q 336 27 426 -11 q 184 133 247 65 q 87 296 121 201 q 53 502 53 390 q 90 709 53 615 q 191 872 126 803 q 348 977 257 940 q 549 1015 439 1015 q 744 979 659 1015 q 889 885 829 943 l 826 798 q 812 783 821 790 q 788 777 803 777 q 767 783 778 777 q 742 798 756 789 q 712 817 729 806 q 672 836 694 827 q 618 850 649 844 q 549 856 588 856 q 439 838 490 856 q 349 784 388 819 q 285 697 310 749 q 249 579 259 645 l 713 579 l 713 440 l 248 440 q 283 316 256 370 q 349 224 309 261 q 441 167 390 186 q 549 147 492 147 q 618 151 588 147 q 675 165 649 156 q 725 188 701 174 q 771 223 748 202 q 785 233 778 229 q 801 237 793 237 z "},"Ю":{"ha":1481,"x_min":112,"x_max":1427,"o":"m 952 144 q 1072 169 1019 144 q 1161 240 1124 194 q 1217 353 1197 287 q 1236 502 1236 419 q 1217 651 1236 585 q 1161 764 1197 717 q 1072 836 1124 811 q 952 861 1019 861 q 833 836 885 861 q 743 764 780 811 q 688 651 707 717 q 668 502 668 585 q 688 353 668 419 q 743 240 707 287 q 833 169 780 194 q 952 144 885 144 m 481 572 q 528 751 491 669 q 626 891 565 832 q 770 983 688 950 q 952 1015 852 1015 q 1149 977 1061 1015 q 1299 869 1237 938 q 1394 707 1360 801 q 1427 502 1427 613 q 1394 298 1427 392 q 1299 135 1360 203 q 1149 28 1237 67 q 952 -10 1061 -10 q 770 22 853 -10 q 627 113 688 54 q 529 251 567 171 q 481 428 492 332 l 299 428 l 299 0 l 112 0 l 112 1004 l 299 1004 l 299 572 l 481 572 z "},"Я":{"ha":943,"x_min":-10,"x_max":831,"o":"m 644 561 l 644 859 l 476 859 q 389 848 424 859 q 332 816 353 836 q 302 769 311 796 q 292 711 292 742 q 301 649 292 677 q 332 602 310 622 q 389 572 353 583 q 476 561 424 561 l 644 561 m 831 0 l 644 0 l 644 415 l 542 415 q 509 412 525 415 q 480 401 494 409 q 451 380 465 393 q 424 344 438 366 l 247 65 q 201 18 230 35 q 131 0 172 0 l -10 0 l 221 353 q 327 448 263 419 q 230 488 272 463 q 162 546 189 513 q 122 621 135 580 q 108 710 108 663 q 133 828 108 774 q 205 922 158 883 q 320 982 251 960 q 476 1004 388 1004 l 831 1004 l 831 0 z "},"Ђ":{"ha":1044,"x_min":19,"x_max":1026,"o":"m 659 589 q 827 567 757 589 q 941 509 897 546 q 1006 421 985 472 q 1026 313 1026 371 q 1002 185 1026 242 q 930 86 977 127 q 814 22 883 44 q 658 0 746 0 l 599 0 l 599 146 l 658 146 q 745 157 710 146 q 802 189 781 169 q 833 236 824 209 q 842 294 842 263 q 833 356 842 328 q 802 403 824 384 q 746 433 781 422 q 659 443 711 443 l 471 443 l 471 0 l 284 0 l 284 856 l 19 856 l 19 1004 l 761 1004 l 761 856 l 471 856 l 471 589 l 659 589 z "},"Ћ":{"ha":1052,"x_min":19,"x_max":1004,"o":"m 471 584 q 621 613 551 603 q 750 619 691 623 q 857 597 810 615 q 936 542 903 578 q 987 448 969 505 q 1004 312 1004 392 l 1004 -1 l 817 -1 l 817 313 q 803 409 817 370 q 751 465 789 447 q 645 480 713 483 q 471 451 578 477 l 471 0 l 284 0 l 284 856 l 19 856 l 19 1004 l 761 1004 l 761 856 l 471 856 l 471 584 z "},"Ѣ":{"ha":1021,"x_min":31,"x_max":992,"o":"m 624 146 q 711 157 676 146 q 767 189 746 169 q 798 236 789 209 q 807 294 807 263 q 798 356 807 328 q 767 403 789 384 q 711 433 746 422 q 624 443 676 443 l 460 443 l 460 146 l 624 146 m 624 589 q 792 567 722 589 q 906 509 862 546 q 971 421 950 472 q 992 313 992 371 q 967 185 992 242 q 895 86 942 127 q 780 22 848 44 q 624 0 711 0 l 274 0 l 274 728 l 31 728 l 31 865 l 274 865 l 274 1004 l 460 1004 l 460 865 l 756 865 l 756 728 l 460 728 l 460 589 l 624 589 z "},"б":{"ha":821,"x_min":65,"x_max":772,"o":"m 419 115 q 552 172 508 115 q 596 338 596 228 q 553 504 596 447 q 423 561 510 561 q 290 507 335 561 q 244 347 244 453 q 287 174 244 233 q 419 115 331 115 m 469 842 q 358 816 404 838 q 282 759 312 795 q 236 674 251 724 q 217 564 220 624 q 260 614 235 591 q 317 652 285 636 q 386 678 349 669 q 465 687 423 687 q 593 662 536 687 q 690 591 650 637 q 751 481 730 545 q 772 339 772 417 q 747 194 772 258 q 675 84 722 129 q 564 14 629 38 q 419 -10 499 -10 q 277 15 342 -10 q 165 96 213 40 q 92 242 118 152 q 65 462 65 332 q 85 665 65 571 q 151 829 106 758 q 272 942 197 899 q 455 994 346 985 l 708 1013 l 717 924 q 709 876 720 896 q 669 855 698 856 l 469 842 z "},"в":{"ha":698,"x_min":85,"x_max":651,"o":"m 376 117 q 461 144 430 117 q 493 216 493 170 q 488 252 493 235 q 469 282 483 269 q 434 301 456 294 q 376 308 411 308 l 248 308 l 248 117 l 376 117 m 248 601 l 248 414 l 360 414 q 406 421 385 414 q 442 442 427 428 q 466 474 458 456 q 474 515 474 492 q 469 546 474 531 q 450 574 463 562 q 415 593 437 586 q 360 601 393 601 l 248 601 m 365 713 q 482 699 433 713 q 563 663 531 686 q 610 609 594 640 q 625 540 625 577 q 619 493 625 517 q 598 445 613 468 q 558 403 583 422 q 492 374 532 385 q 557 353 528 367 q 607 319 586 340 q 639 271 628 299 q 651 210 651 244 q 628 116 651 156 q 568 51 606 76 q 480 13 530 25 q 376 0 431 0 l 85 0 l 85 713 l 365 713 z "},"г":{"ha":584,"x_min":85,"x_max":567,"o":"m 567 585 l 256 585 l 256 0 l 85 0 l 85 713 l 567 713 l 567 585 z "},"ґ":{"ha":584,"x_min":85,"x_max":567,"o":"m 567 884 l 567 585 l 256 585 l 256 0 l 85 0 l 85 713 l 412 713 l 412 884 l 567 884 z "},"д":{"ha":880,"x_min":13,"x_max":857,"o":"m 560 122 l 560 581 l 385 581 q 367 420 378 492 q 343 292 357 348 q 313 194 329 235 q 278 122 297 152 l 560 122 m 857 127 l 857 -187 q 843 -225 857 -211 q 808 -239 830 -239 l 701 -239 l 701 0 l 168 0 l 168 -190 q 157 -224 168 -208 q 121 -239 145 -239 l 13 -239 l 13 122 l 33 122 q 80 129 57 122 q 124 156 103 135 q 164 216 145 177 q 199 321 183 256 q 225 483 214 387 q 244 713 237 578 l 726 713 l 726 127 l 857 127 z "},"ж":{"ha":1135,"x_min":11,"x_max":1124,"o":"m 1124 0 l 1006 0 q 936 14 960 0 q 899 59 913 28 l 793 256 q 758 294 780 282 q 707 307 736 307 l 651 307 l 651 0 l 485 0 l 485 307 l 428 307 q 377 294 399 307 q 342 256 355 282 l 236 59 q 199 14 222 28 q 129 0 175 0 l 11 0 l 178 294 q 217 345 195 325 q 274 377 240 366 q 231 403 249 386 q 196 448 213 420 l 29 713 l 165 713 q 208 700 188 713 q 239 667 228 688 l 360 463 q 391 430 373 440 q 438 419 408 419 l 485 419 l 485 713 l 651 713 l 651 419 l 694 419 q 743 430 724 419 q 775 463 762 440 l 896 667 q 927 700 907 688 q 971 713 947 713 l 1106 713 l 939 448 q 904 403 922 420 q 860 377 886 386 q 917 345 895 366 q 957 294 940 325 l 1124 0 z "},"з":{"ha":626,"x_min":25,"x_max":576,"o":"m 43 635 q 143 699 83 674 q 286 724 203 724 q 403 708 352 724 q 490 666 455 692 q 543 605 525 639 q 562 533 562 570 q 556 491 562 513 q 536 448 550 469 q 501 409 523 427 q 446 379 478 392 q 540 314 504 357 q 576 208 576 271 q 552 115 576 156 q 488 47 528 75 q 398 4 449 19 q 292 -10 347 -10 q 227 -5 262 -10 q 156 14 192 1 q 87 50 121 28 q 25 106 53 73 l 74 169 q 106 185 85 185 q 136 175 122 185 q 170 152 151 165 q 215 130 189 140 q 281 120 242 120 q 379 149 346 120 q 413 222 413 178 q 378 290 413 265 q 267 314 344 314 l 186 314 l 186 426 l 267 426 q 370 449 334 426 q 406 512 406 473 q 375 570 406 547 q 281 593 343 593 q 219 585 244 593 q 175 569 193 578 q 144 553 156 560 q 120 545 131 545 q 100 550 108 545 q 82 569 92 554 l 43 635 z "},"и":{"ha":810,"x_min":85,"x_max":725,"o":"m 725 713 l 725 0 l 553 0 l 553 416 q 555 451 553 432 q 560 490 557 470 q 529 433 546 458 q 515 414 528 432 q 483 369 503 397 q 438 306 463 341 q 388 235 413 271 q 251 42 327 149 q 225 13 241 27 q 190 -1 210 -1 l 85 -1 l 85 712 l 256 712 l 256 296 q 255 261 256 280 q 250 222 253 242 q 281 278 265 256 q 294 297 281 280 q 326 342 306 315 q 371 405 346 370 q 422 477 396 440 q 559 670 482 563 q 585 699 569 685 q 621 713 601 713 l 725 713 z "},"к":{"ha":754,"x_min":85,"x_max":744,"o":"m 510 667 q 544 700 523 688 q 590 713 566 713 l 725 713 l 559 448 q 524 403 542 420 q 480 376 506 386 q 537 345 515 366 q 577 294 559 325 l 744 0 l 625 0 q 555 15 580 0 q 513 59 530 31 l 408 256 q 372 294 394 282 q 321 307 350 307 l 256 307 l 256 0 l 85 0 l 85 713 l 256 713 l 256 419 l 312 419 q 359 430 341 419 q 389 463 376 440 l 510 667 z "},"л":{"ha":831,"x_min":2,"x_max":746,"o":"m 746 0 l 574 0 l 574 581 l 399 581 q 374 355 391 450 q 332 194 356 260 q 279 89 308 128 q 216 26 249 49 q 147 -3 183 4 q 76 -10 112 -10 q 20 -4 38 -10 q 2 15 2 3 l 2 122 l 43 122 q 89 128 66 122 q 133 157 112 135 q 174 218 155 178 q 210 324 194 258 q 239 485 226 390 q 258 713 251 580 l 746 713 l 746 0 z "},"љ":{"ha":1171,"x_min":2,"x_max":1142,"o":"m 874 123 q 960 152 932 123 q 989 227 989 181 q 983 265 989 247 q 962 297 976 283 q 926 318 948 310 q 872 326 903 326 l 746 326 l 746 123 l 874 123 m 872 449 q 998 431 947 449 q 1081 382 1049 413 q 1127 311 1113 351 q 1142 228 1142 272 q 1124 136 1142 178 q 1071 64 1106 94 q 987 17 1037 33 q 874 0 938 0 l 574 0 l 574 581 l 399 581 q 374 355 391 450 q 332 194 356 260 q 279 89 308 128 q 216 26 249 49 q 147 -3 183 4 q 76 -10 112 -10 q 20 -4 38 -10 q 2 15 2 3 l 2 122 l 43 122 q 89 128 66 122 q 133 157 112 135 q 174 218 155 178 q 210 324 194 258 q 239 485 226 390 q 258 713 251 580 l 746 713 l 746 449 l 872 449 z "},"м":{"ha":995,"x_min":85,"x_max":910,"o":"m 910 714 l 910 0 l 756 0 l 756 397 q 758 452 756 422 q 766 509 760 483 l 556 124 q 508 94 541 94 l 490 94 q 441 124 456 94 l 228 511 q 236 453 233 485 q 240 397 240 422 l 240 0 l 85 0 l 85 714 l 226 714 q 262 706 244 714 q 292 676 280 699 l 460 376 q 481 332 471 355 q 499 285 490 308 q 516 332 507 308 q 537 376 526 356 l 703 676 q 733 707 716 699 q 769 714 751 714 l 910 714 z "},"н":{"ha":791,"x_min":85,"x_max":706,"o":"m 706 713 l 706 0 l 534 0 l 534 315 l 256 315 l 256 0 l 85 0 l 85 713 l 256 713 l 256 442 l 534 442 l 534 713 l 706 713 z "},"њ":{"ha":1131,"x_min":85,"x_max":1101,"o":"m 833 123 q 920 152 892 123 q 949 227 949 181 q 943 265 949 247 q 922 297 936 283 q 886 318 908 310 q 833 326 864 326 l 706 326 l 706 123 l 833 123 m 832 449 q 958 431 906 449 q 1041 382 1009 413 q 1087 311 1073 351 q 1101 228 1101 272 q 1084 136 1101 178 q 1032 64 1066 94 q 948 17 997 33 q 834 0 898 0 l 534 0 l 534 315 l 256 315 l 256 0 l 85 0 l 85 713 l 256 713 l 256 442 l 534 442 l 534 713 l 706 713 l 706 449 l 832 449 z "},"ѳ":{"ha":798,"x_min":47,"x_max":751,"o":"m 215 306 q 273 164 225 211 q 400 116 320 116 q 525 164 478 116 q 582 306 572 211 l 215 306 m 581 417 q 523 552 569 507 q 400 597 476 597 q 275 552 322 597 q 216 417 228 507 l 581 417 m 400 724 q 544 698 479 724 q 655 625 609 672 q 726 510 701 578 q 751 358 751 442 q 726 205 751 273 q 655 89 701 137 q 544 15 609 41 q 400 -10 479 -10 q 255 15 320 -10 q 143 89 190 41 q 72 205 97 137 q 47 358 47 273 q 72 510 47 442 q 143 625 97 578 q 255 698 190 672 q 400 724 320 724 z "},"п":{"ha":791,"x_min":85,"x_max":706,"o":"m 706 0 l 534 0 l 534 585 l 256 585 l 256 0 l 85 0 l 85 713 l 706 713 l 706 0 z "},"т":{"ha":713,"x_min":17,"x_max":696,"o":"m 696 585 l 442 585 l 442 0 l 270 0 l 270 585 l 17 585 l 17 713 l 696 713 l 696 585 z "},"ѵ":{"ha":764,"x_min":4,"x_max":743,"o":"m 494 581 q 525 652 508 625 q 565 695 543 679 q 612 716 586 710 q 668 722 638 722 q 706 719 691 722 q 728 712 720 716 q 740 704 737 708 q 743 697 743 700 l 743 603 l 722 603 q 673 591 693 603 q 643 551 653 578 l 443 0 l 288 0 l 4 713 l 147 713 q 178 703 165 713 q 196 681 191 694 l 333 300 q 353 232 345 265 q 368 166 362 199 q 402 300 381 231 l 494 581 z "},"ф":{"ha":1015,"x_min":44,"x_max":971,"o":"m 583 117 q 743 187 686 125 q 799 356 799 249 q 743 526 799 464 q 583 596 686 588 l 583 117 m 433 596 q 341 574 381 592 q 273 526 301 556 q 231 452 245 495 q 216 356 216 410 q 231 260 216 303 q 273 187 245 217 q 341 139 301 157 q 433 117 381 122 l 433 596 m 588 723 q 744 691 674 718 q 865 616 815 663 q 943 503 915 569 q 971 358 971 438 q 943 211 971 276 q 865 98 915 145 q 744 23 815 51 q 588 -10 674 -5 l 588 -239 l 427 -239 l 427 -10 q 271 23 342 -5 q 150 98 201 51 q 72 211 100 145 q 44 358 44 276 q 72 503 44 438 q 150 616 100 569 q 271 691 201 663 q 427 723 342 718 l 427 1004 l 588 1004 l 588 723 z "},"ц":{"ha":860,"x_min":85,"x_max":837,"o":"m 837 127 l 837 -187 q 823 -225 837 -211 q 788 -239 809 -239 l 681 -239 l 681 0 l 85 0 l 85 713 l 256 713 l 256 127 l 534 127 l 534 713 l 706 713 l 706 127 l 837 127 z "},"џ":{"ha":791,"x_min":85,"x_max":706,"o":"m 706 713 l 706 0 l 473 0 l 473 -187 q 459 -225 473 -211 q 424 -239 446 -239 l 317 -239 l 317 0 l 85 0 l 85 713 l 256 713 l 256 127 l 534 127 l 534 713 l 706 713 z "},"ч":{"ha":732,"x_min":48,"x_max":647,"o":"m 647 713 l 647 0 l 476 0 l 476 280 q 306 255 384 258 q 170 273 227 251 q 80 344 113 295 q 48 476 48 394 l 48 713 l 219 713 l 219 502 q 234 432 219 458 q 279 393 248 405 q 358 383 310 381 q 476 399 407 385 l 476 713 l 647 713 z "},"ш":{"ha":1155,"x_min":85,"x_max":1070,"o":"m 1070 713 l 1070 0 l 85 0 l 85 713 l 256 713 l 256 127 l 492 127 l 492 713 l 663 713 l 663 127 l 899 127 l 899 713 l 1070 713 z "},"щ":{"ha":1224,"x_min":85,"x_max":1201,"o":"m 1201 127 l 1201 -187 q 1187 -225 1201 -211 q 1152 -239 1174 -239 l 1045 -239 l 1045 0 l 85 0 l 85 713 l 256 713 l 256 127 l 492 127 l 492 713 l 663 713 l 663 127 l 899 127 l 899 713 l 1070 713 l 1070 127 l 1201 127 z "},"ъ":{"ha":824,"x_min":17,"x_max":794,"o":"m 526 123 q 614 152 585 123 q 642 227 642 181 q 636 265 642 247 q 615 297 629 283 q 579 318 601 310 q 526 326 557 326 l 399 326 l 399 123 l 526 123 m 525 449 q 651 431 599 449 q 734 382 702 413 q 780 311 766 351 q 794 228 794 272 q 777 136 794 178 q 725 64 759 94 q 641 17 690 33 q 527 0 591 0 l 235 0 l 235 583 l 17 583 l 17 713 l 399 713 l 399 449 l 525 449 z "},"ы":{"ha":1030,"x_min":85,"x_max":945,"o":"m 376 123 q 463 152 434 123 q 492 227 492 181 q 485 265 492 247 q 465 297 478 283 q 428 318 451 310 q 375 326 406 326 l 248 326 l 248 123 l 376 123 m 374 449 q 500 431 449 449 q 583 382 551 413 q 630 311 615 351 q 644 228 644 272 q 626 136 644 178 q 574 64 608 94 q 490 17 540 33 q 376 0 440 0 l 85 0 l 85 713 l 248 713 l 248 449 l 374 449 m 945 713 l 945 0 l 774 0 l 774 713 l 945 713 z "},"ь":{"ha":674,"x_min":85,"x_max":644,"o":"m 376 123 q 463 152 434 123 q 492 227 492 181 q 485 265 492 247 q 465 297 478 283 q 428 318 451 310 q 375 326 406 326 l 248 326 l 248 123 l 376 123 m 374 449 q 500 431 449 449 q 583 382 551 413 q 630 311 615 351 q 644 228 644 272 q 626 136 644 178 q 574 64 608 94 q 490 17 540 33 q 376 0 440 0 l 85 0 l 85 713 l 248 713 l 248 449 l 374 449 z "},"э":{"ha":676,"x_min":29,"x_max":631,"o":"m 36 624 q 144 698 84 672 q 284 724 204 724 q 433 696 368 724 q 541 619 497 668 q 608 503 585 570 q 631 358 631 436 q 605 202 631 270 q 536 86 580 133 q 434 14 492 39 q 310 -10 376 -10 q 234 -5 272 -10 q 160 14 196 1 q 91 50 124 28 q 29 106 58 73 l 76 164 q 108 179 87 179 q 127 175 118 179 q 146 164 136 170 q 168 150 156 158 q 194 135 179 142 q 230 125 210 129 q 278 120 250 120 q 397 168 349 120 q 456 306 445 215 l 154 306 l 154 422 l 455 422 q 396 548 442 503 q 274 593 351 593 q 214 586 238 593 q 172 570 190 578 q 141 554 154 561 q 115 547 128 547 q 94 552 101 547 q 79 567 87 558 l 36 624 z "},"є":{"ha":676,"x_min":47,"x_max":647,"o":"m 597 567 q 582 552 590 558 q 562 547 575 547 q 535 554 549 547 q 505 570 522 561 q 463 586 487 578 q 403 593 438 593 q 280 548 326 593 q 222 422 234 503 l 522 422 l 522 306 l 219 306 q 279 168 231 215 q 399 120 327 120 q 446 125 426 120 q 482 135 467 129 q 509 150 497 142 q 531 164 521 158 q 549 175 540 170 q 569 179 558 179 q 601 164 590 179 l 647 106 q 585 50 619 73 q 516 14 552 28 q 443 -5 481 1 q 367 -10 405 -10 q 243 14 301 -10 q 141 86 185 39 q 72 202 97 133 q 47 358 47 270 q 69 503 47 436 q 135 619 92 570 q 244 696 179 668 q 392 724 308 724 q 532 698 472 724 q 640 624 592 672 l 597 567 z "},"ю":{"ha":1114,"x_min":85,"x_max":1068,"o":"m 728 122 q 851 181 812 122 q 891 356 891 241 q 851 532 891 472 q 728 592 812 592 q 606 532 645 592 q 566 356 566 471 q 605 181 566 241 q 728 122 644 122 m 398 422 q 433 548 406 492 q 502 643 460 604 q 602 703 544 682 q 728 724 659 724 q 868 698 806 724 q 975 625 931 672 q 1044 510 1019 578 q 1068 358 1068 442 q 1043 205 1068 273 q 973 89 1018 137 q 865 15 928 41 q 728 -10 803 -10 q 598 11 656 -10 q 498 73 540 33 q 430 171 456 113 q 397 301 404 228 l 256 301 l 256 0 l 85 0 l 85 713 l 256 713 l 256 422 l 398 422 z "},"я":{"ha":705,"x_min":0,"x_max":619,"o":"m 456 392 l 456 601 l 363 601 q 309 591 331 601 q 274 567 288 582 q 255 533 260 552 q 249 497 249 515 q 282 419 249 447 q 371 392 315 392 l 456 392 m 619 713 l 619 0 l 456 0 l 456 286 l 426 286 q 392 282 406 286 q 369 272 378 278 q 353 256 360 265 q 340 234 347 246 l 226 59 q 208 33 217 44 q 186 15 199 22 q 158 4 174 8 q 119 0 142 0 l 0 0 l 180 251 q 214 294 194 278 q 260 319 233 310 q 175 348 210 328 q 118 392 140 367 q 87 447 97 417 q 77 504 77 476 q 93 581 77 544 q 142 648 108 619 q 230 695 176 677 q 358 713 283 713 l 619 713 z "},"ђ":{"ha":780,"x_min":-29,"x_max":719,"o":"m 256 572 q 348 636 298 612 q 465 660 398 660 q 657 578 595 660 q 719 336 719 495 q 708 190 719 263 q 675 46 697 117 q 624 -94 654 -26 q 556 -226 594 -162 l 417 -174 q 474 -53 449 -113 q 515 68 498 6 q 540 197 531 131 q 548 336 548 263 q 538 424 548 388 q 511 483 528 460 q 468 516 493 506 q 413 526 443 526 q 330 507 369 526 q 256 452 291 487 l 256 0 l 85 0 l 85 750 l -29 750 l -29 879 l 85 879 l 85 1032 l 256 1032 l 256 879 l 476 879 l 476 750 l 256 750 l 256 572 z "},"ѣ":{"ha":790,"x_min":19,"x_max":766,"o":"m 498 123 q 585 152 556 123 q 614 227 614 181 q 607 265 614 247 q 587 297 601 283 q 550 318 573 310 q 497 326 528 326 l 356 326 l 356 123 l 498 123 m 497 449 q 622 431 571 449 q 706 382 674 413 q 752 311 738 351 q 766 228 766 272 q 748 136 766 178 q 695 64 730 94 q 611 17 661 33 q 498 0 562 0 l 193 0 l 193 582 l 19 582 l 19 712 l 193 712 l 193 898 l 356 898 l 356 712 l 574 712 l 574 582 l 356 582 l 356 449 l 497 449 z "},"!":{"ha":390,"x_min":88,"x_max":299,"o":"m 276 1004 l 276 607 q 270 483 276 544 q 254 354 264 422 l 138 354 q 122 483 128 422 q 115 607 115 544 l 115 1004 l 276 1004 m 88 94 q 96 135 88 116 q 118 169 104 155 q 152 191 133 183 q 194 199 172 199 q 235 191 215 199 q 268 169 254 183 q 291 135 283 155 q 299 94 299 116 q 291 53 299 72 q 268 20 283 34 q 235 -2 254 6 q 194 -10 215 -10 q 152 -2 172 -10 q 118 20 133 6 q 96 53 104 34 q 88 94 88 72 z "},"?":{"ha":639,"x_min":49,"x_max":585,"o":"m 49 913 q 101 953 73 934 q 162 985 129 972 q 233 1007 194 999 q 315 1015 271 1015 q 425 999 376 1015 q 510 951 475 982 q 565 876 546 920 q 585 778 585 833 q 569 687 585 726 q 531 620 554 649 q 481 571 508 592 q 429 532 453 550 q 387 495 405 513 q 366 456 369 478 l 350 354 l 233 354 l 221 467 q 230 525 217 500 q 266 570 244 549 q 317 609 289 590 q 369 651 344 628 q 409 702 393 674 q 426 769 426 730 q 416 814 426 794 q 390 848 407 833 q 350 869 374 862 q 300 877 327 877 q 233 868 260 877 q 186 849 206 860 q 154 830 167 838 q 131 821 141 821 q 94 842 106 821 l 49 913 m 181 94 q 189 135 181 116 q 210 169 197 155 q 244 191 224 183 q 285 199 263 199 q 327 191 308 199 q 360 169 346 183 q 383 135 374 155 q 391 94 391 116 q 383 53 391 72 q 360 20 374 34 q 327 -2 346 6 q 285 -10 308 -10 q 244 -2 263 -10 q 210 20 224 6 q 189 53 197 34 q 181 94 181 72 z "},"‽":{"ha":708,"x_min":53,"x_max":657,"o":"m 307 199 q 348 191 329 199 q 382 169 367 183 q 404 135 396 155 q 413 94 413 116 q 404 53 413 72 q 382 20 396 34 q 348 -2 367 6 q 307 -10 329 -10 q 265 -2 285 -10 q 232 20 246 6 q 210 53 218 34 q 202 94 202 72 q 210 135 202 116 q 232 169 218 155 q 265 191 246 183 q 307 199 285 199 m 284 990 q 341 1003 308 998 q 408 1008 374 1008 q 508 994 462 1008 q 587 953 553 981 q 639 886 620 926 q 657 792 657 846 q 638 696 657 735 q 589 631 618 658 q 524 584 559 603 q 458 547 490 565 q 404 507 427 528 q 376 455 381 486 l 367 347 l 260 347 q 220 452 240 397 q 183 561 200 507 l 53 984 l 212 1024 l 302 675 q 311 638 306 661 q 323 585 317 614 q 378 635 347 615 q 436 675 409 656 q 482 718 463 695 q 500 774 500 740 q 493 810 500 793 q 473 840 486 827 q 441 861 460 853 q 399 869 422 869 q 367 866 382 869 q 346 863 352 863 q 318 870 327 863 q 306 892 309 878 l 284 990 z "},",":{"ha":325,"x_min":60,"x_max":265,"o":"m 82 -170 q 69 -144 69 -160 q 73 -132 69 -139 q 83 -119 77 -125 q 101 -99 90 -111 q 124 -71 113 -87 q 144 -37 135 -56 q 158 2 153 -19 q 118 10 136 2 q 87 32 100 18 q 67 65 74 46 q 60 106 60 83 q 67 142 60 125 q 88 172 74 159 q 119 192 101 185 q 160 199 138 199 q 207 190 187 199 q 239 164 226 181 q 259 127 252 148 q 265 82 265 106 q 255 12 265 49 q 226 -62 245 -25 q 177 -133 206 -99 q 112 -197 149 -168 l 82 -170 z "},";":{"ha":376,"x_min":81,"x_max":292,"o":"m 108 -170 q 96 -144 96 -160 q 100 -132 96 -139 q 109 -119 103 -125 q 128 -99 117 -111 q 150 -71 139 -87 q 170 -37 161 -56 q 185 2 180 -19 q 144 10 163 2 q 114 32 126 18 q 93 65 101 46 q 86 106 86 83 q 93 142 86 125 q 114 172 101 159 q 146 192 127 185 q 187 199 165 199 q 233 190 213 199 q 266 164 253 181 q 285 127 278 148 q 292 82 292 106 q 282 12 292 49 q 252 -62 272 -25 q 204 -133 233 -99 q 138 -197 175 -168 l 108 -170 m 81 590 q 89 631 81 611 q 111 664 97 650 q 144 686 125 678 q 186 694 164 694 q 227 686 208 694 q 261 664 247 678 q 283 631 275 650 q 292 590 292 611 q 283 548 292 567 q 261 515 275 529 q 227 493 247 501 q 186 485 208 485 q 144 493 164 485 q 111 515 125 501 q 89 548 97 529 q 81 590 81 567 z "},":":{"ha":358,"x_min":74,"x_max":284,"o":"m 74 94 q 82 135 74 116 q 103 169 90 155 q 137 191 117 183 q 178 199 156 199 q 220 191 201 199 q 253 169 239 183 q 276 135 267 155 q 284 94 284 116 q 276 53 284 72 q 253 20 267 34 q 220 -2 239 6 q 178 -10 201 -10 q 137 -2 156 -10 q 103 20 117 6 q 82 53 90 34 q 74 94 74 72 m 74 590 q 82 631 74 611 q 103 664 90 650 q 137 686 117 678 q 178 694 156 694 q 220 686 201 694 q 253 664 239 678 q 276 631 267 650 q 284 590 284 611 q 276 548 284 567 q 253 515 267 529 q 220 493 239 501 q 178 485 201 485 q 137 493 156 485 q 103 515 117 501 q 82 548 90 529 q 74 590 74 567 z "},".":{"ha":330,"x_min":60,"x_max":270,"o":"m 60 94 q 68 135 60 116 q 90 169 76 155 q 123 191 103 183 q 165 199 142 199 q 206 191 187 199 q 239 169 225 183 q 262 135 253 155 q 270 94 270 116 q 262 53 270 72 q 239 20 253 34 q 206 -2 225 6 q 165 -10 187 -10 q 123 -2 142 -10 q 90 20 103 6 q 68 53 76 34 q 60 94 60 72 z "},"…":{"ha":1072,"x_min":60,"x_max":1012,"o":"m 60 94 q 68 135 60 116 q 90 169 76 155 q 123 191 103 183 q 165 199 142 199 q 206 191 187 199 q 239 169 225 183 q 262 135 253 155 q 270 94 270 116 q 262 53 270 72 q 239 20 253 34 q 206 -2 225 6 q 165 -10 187 -10 q 123 -2 142 -10 q 90 20 103 6 q 68 53 76 34 q 60 94 60 72 m 801 94 q 809 135 801 116 q 831 169 817 155 q 865 191 845 183 q 906 199 884 199 q 948 191 928 199 q 981 169 967 183 q 1003 135 995 155 q 1012 94 1012 116 q 1003 53 1012 72 q 981 20 995 34 q 948 -2 967 6 q 906 -10 928 -10 q 865 -2 884 -10 q 831 20 845 6 q 809 53 817 34 q 801 94 801 72 m 431 94 q 439 135 431 116 q 460 169 447 155 q 494 191 474 183 q 535 199 513 199 q 577 191 558 199 q 610 169 596 183 q 633 135 624 155 q 641 94 641 116 q 633 53 641 72 q 610 20 624 34 q 577 -2 596 6 q 535 -10 558 -10 q 494 -2 513 -10 q 460 20 474 6 q 439 53 447 34 q 431 94 431 72 z "},"‘":{"ha":306,"x_min":53,"x_max":253,"o":"m 110 645 q 65 760 76 700 q 63 877 53 819 q 103 988 72 935 q 186 1083 134 1041 l 240 1051 q 252 1028 253 1042 q 243 1008 251 1015 q 215 962 228 990 q 197 898 202 933 q 198 822 192 863 q 229 742 204 782 q 236 707 242 722 q 213 685 231 692 l 110 645 z "},"’":{"ha":306,"x_min":58,"x_max":258,"o":"m 201 1072 q 247 957 235 1017 q 249 840 258 898 q 208 729 239 782 q 125 633 177 676 l 71 666 q 61 676 64 670 q 59 688 58 682 q 61 699 59 694 q 68 709 64 705 q 96 755 83 726 q 114 819 109 783 q 113 894 119 854 q 81 975 106 935 q 75 1010 69 995 q 97 1031 80 1025 l 201 1072 z "},"“":{"ha":537,"x_min":53,"x_max":484,"o":"m 110 645 q 65 760 76 700 q 63 877 53 819 q 103 988 72 935 q 186 1083 134 1041 l 240 1051 q 252 1028 253 1042 q 243 1008 251 1015 q 215 962 228 990 q 197 898 202 933 q 198 822 192 863 q 229 742 204 782 q 236 707 242 722 q 213 685 231 692 l 110 645 m 340 645 q 295 760 307 700 q 293 877 283 819 q 334 988 303 935 q 417 1083 365 1041 l 470 1051 q 483 1028 484 1042 q 474 1008 481 1015 q 446 962 459 990 q 427 898 433 933 q 428 822 422 863 q 460 742 435 782 q 467 707 472 722 q 444 685 461 692 l 340 645 z "},"”":{"ha":537,"x_min":58,"x_max":489,"o":"m 201 1072 q 247 957 235 1017 q 249 840 258 898 q 208 729 239 782 q 125 633 177 676 l 71 666 q 61 676 64 670 q 59 688 58 682 q 61 699 59 694 q 68 709 64 705 q 96 755 83 726 q 114 819 109 783 q 113 894 119 854 q 81 975 106 935 q 75 1010 69 995 q 97 1031 80 1025 l 201 1072 m 432 1072 q 477 957 465 1017 q 479 840 489 898 q 439 729 469 782 q 356 633 408 676 l 301 666 q 292 676 294 670 q 289 688 289 682 q 292 699 290 694 q 299 709 294 705 q 326 755 313 726 q 345 819 340 783 q 343 894 350 854 q 312 975 337 935 q 305 1010 300 995 q 328 1031 310 1025 l 432 1072 z "},"‚":{"ha":303,"x_min":45,"x_max":245,"o":"m 188 210 q 233 95 222 155 q 235 -22 245 36 q 195 -133 226 -80 q 112 -228 164 -186 l 58 -196 q 48 -186 51 -192 q 45 -174 45 -180 q 48 -162 46 -168 q 55 -153 51 -157 q 83 -107 69 -135 q 101 -43 96 -78 q 100 33 106 -8 q 68 113 93 73 q 61 148 56 133 q 84 169 67 163 l 188 210 z "},"„":{"ha":533,"x_min":45,"x_max":476,"o":"m 188 210 q 233 95 222 155 q 235 -22 245 36 q 195 -133 226 -80 q 112 -228 164 -186 l 58 -196 q 48 -186 51 -192 q 45 -174 45 -180 q 48 -162 46 -168 q 55 -153 51 -157 q 83 -107 69 -135 q 101 -43 96 -78 q 100 33 106 -8 q 68 113 93 73 q 61 148 56 133 q 84 169 67 163 l 188 210 m 419 210 q 464 95 452 155 q 466 -22 476 36 q 425 -133 456 -80 q 342 -228 394 -186 l 288 -196 q 278 -186 281 -192 q 276 -174 276 -180 q 279 -162 276 -168 q 285 -153 281 -157 q 313 -107 300 -135 q 332 -43 326 -78 q 330 33 337 -8 q 299 113 324 73 q 292 148 287 133 q 315 169 297 163 l 419 210 z "},"‹":{"ha":403,"x_min":63,"x_max":326,"o":"m 314 181 q 322 142 326 160 q 297 114 319 124 l 240 88 l 63 363 l 63 385 l 240 660 l 297 633 q 322 605 319 624 q 314 566 326 587 l 218 403 q 196 374 208 385 q 218 344 208 363 l 314 181 z "},"›":{"ha":404,"x_min":78,"x_max":342,"o":"m 342 385 l 342 363 l 164 88 l 108 114 q 82 142 85 124 q 90 181 78 160 l 186 344 q 208 374 196 363 q 186 403 196 385 l 90 566 q 82 605 78 587 q 108 633 85 624 l 164 660 l 342 385 z "},"«":{"ha":633,"x_min":63,"x_max":554,"o":"m 314 181 q 322 142 326 160 q 297 114 319 124 l 240 88 l 63 363 l 63 385 l 240 660 l 297 633 q 322 605 319 624 q 314 566 326 587 l 218 403 q 196 374 208 385 q 218 344 208 363 l 314 181 m 542 181 q 551 142 554 160 q 525 114 547 124 l 469 88 l 291 363 l 291 385 l 469 660 l 525 633 q 551 605 547 624 q 542 566 554 587 l 447 403 q 424 374 437 385 q 447 344 437 363 l 542 181 z "},"»":{"ha":633,"x_min":78,"x_max":570,"o":"m 342 385 l 342 363 l 164 88 l 108 114 q 82 142 85 124 q 90 181 78 160 l 186 344 q 208 374 196 363 q 186 403 196 385 l 90 566 q 82 605 78 587 q 108 633 85 624 l 164 660 l 342 385 m 570 385 l 570 363 l 392 88 l 336 114 q 310 142 314 124 q 318 181 306 160 l 415 344 q 437 374 424 363 q 415 403 424 385 l 318 566 q 310 605 306 587 q 336 633 314 624 l 392 660 l 570 385 z "},"/":{"ha":647,"x_min":40,"x_max":607,"o":"m 204 -2 q 166 -50 192 -34 q 113 -66 140 -66 l 40 -66 l 446 972 q 480 1016 457 1001 q 533 1032 503 1032 l 607 1032 l 204 -2 z "},"|":{"ha":363,"x_min":115,"x_max":248,"o":"m 115 1074 l 248 1074 l 248 -239 l 115 -239 l 115 1074 z "},"¦":{"ha":367,"x_min":117,"x_max":250,"o":"m 117 1074 l 250 1074 l 250 513 l 117 513 l 117 1074 m 117 328 l 250 328 l 250 -233 l 117 -233 l 117 328 z "},"\\":{"ha":647,"x_min":40,"x_max":607,"o":"m 40 1032 l 114 1032 q 167 1016 144 1032 q 201 972 190 1001 l 607 -66 l 534 -66 q 481 -50 507 -66 q 443 -2 455 -34 l 40 1032 z "},"-":{"ha":518,"x_min":79,"x_max":439,"o":"m 79 491 l 439 491 l 439 348 l 79 348 l 79 491 z "},"–":{"ha":806,"x_min":122,"x_max":684,"o":"m 122 477 l 684 477 l 684 356 l 122 356 l 122 477 z "},"—":{"ha":1108,"x_min":83,"x_max":1025,"o":"m 83 477 l 1025 477 l 1025 356 l 83 356 l 83 477 z "},"_":{"ha":648,"x_min":50,"x_max":597,"o":"m 597 -93 l 597 -204 l 50 -204 l 50 -93 l 597 -93 z "},"•":{"ha":806,"x_min":100,"x_max":706,"o":"m 100 412 q 124 529 100 474 q 189 625 148 584 q 285 690 230 667 q 402 714 340 714 q 520 690 465 714 q 617 625 576 667 q 682 529 658 584 q 706 412 706 474 q 682 295 706 350 q 617 200 658 241 q 520 135 576 159 q 402 112 465 112 q 285 135 340 112 q 189 200 230 159 q 124 295 148 241 q 100 412 100 350 z "},"·":{"ha":381,"x_min":60,"x_max":322,"o":"m 60 413 q 70 464 60 440 q 98 506 80 488 q 139 534 115 524 q 190 544 163 544 q 241 534 217 544 q 283 506 265 524 q 311 464 301 488 q 322 413 322 440 q 311 363 322 386 q 283 322 301 340 q 241 294 265 304 q 190 284 217 284 q 139 294 163 284 q 98 322 115 304 q 70 363 80 340 q 60 413 60 386 z "},"(":{"ha":381,"x_min":51,"x_max":342,"o":"m 199 435 q 234 154 199 292 q 333 -106 269 16 q 341 -130 340 -119 q 340 -149 342 -141 q 331 -163 337 -157 q 318 -173 325 -169 l 242 -219 q 154 -60 190 -140 q 95 101 118 19 q 61 265 72 182 q 51 435 51 349 q 61 606 51 522 q 95 771 72 690 q 154 932 118 852 q 242 1090 190 1011 l 318 1044 q 331 1034 325 1040 q 340 1020 337 1028 q 341 1002 342 1013 q 333 976 340 991 q 234 717 269 856 q 199 435 199 578 z "},")":{"ha":381,"x_min":38,"x_max":330,"o":"m 181 435 q 147 717 181 578 q 48 976 113 856 q 39 1002 40 991 q 41 1020 38 1013 q 50 1034 44 1028 q 63 1044 56 1040 l 140 1090 q 227 932 191 1011 q 286 771 263 852 q 319 606 309 690 q 330 435 330 522 q 319 265 330 349 q 286 101 309 182 q 227 -60 263 19 q 140 -219 191 -140 l 63 -173 q 50 -163 56 -169 q 41 -149 44 -157 q 39 -130 38 -141 q 48 -106 40 -119 q 147 154 113 16 q 181 435 181 292 z "},"[":{"ha":435,"x_min":115,"x_max":399,"o":"m 258 963 l 258 -103 l 354 -103 q 387 -116 374 -103 q 399 -147 399 -128 l 399 -214 l 115 -214 l 115 1074 l 399 1074 l 399 1007 q 387 976 399 989 q 354 963 374 963 l 258 963 z "},"]":{"ha":435,"x_min":36,"x_max":321,"o":"m 321 -214 l 36 -214 l 36 -147 q 49 -116 36 -128 q 81 -103 61 -103 l 178 -103 l 178 963 l 81 963 q 49 976 61 963 q 36 1007 36 989 l 36 1074 l 321 1074 l 321 -214 z "},"{":{"ha":425,"x_min":40,"x_max":385,"o":"m 342 963 q 268 933 294 963 q 242 849 242 902 q 247 775 242 810 q 255 707 251 740 q 264 642 260 674 q 268 578 268 610 q 261 528 268 552 q 240 485 253 505 q 206 451 226 466 q 161 430 186 437 q 206 408 186 422 q 240 374 226 394 q 261 331 253 355 q 268 282 268 308 q 264 217 268 249 q 255 152 260 185 q 247 84 251 119 q 242 11 242 49 q 268 -72 242 -42 q 342 -103 294 -103 l 349 -103 q 360 -105 353 -103 q 372 -111 366 -107 q 382 -122 378 -115 q 385 -138 385 -129 l 385 -214 l 349 -214 q 235 -197 283 -214 q 155 -149 187 -180 q 108 -75 124 -118 q 93 22 93 -31 q 98 89 93 56 q 108 154 102 122 q 118 219 114 187 q 123 285 123 252 q 103 354 123 327 q 40 381 83 381 l 40 480 q 103 507 83 480 q 123 576 123 533 q 118 641 123 608 q 108 706 114 673 q 98 771 102 738 q 93 838 93 804 q 108 934 93 891 q 155 1009 124 978 q 235 1057 187 1040 q 349 1074 283 1074 l 385 1074 l 385 998 q 382 982 385 989 q 372 972 378 976 q 360 965 366 967 q 349 963 353 963 l 342 963 z "},"}":{"ha":425,"x_min":40,"x_max":385,"o":"m 385 381 q 322 354 342 381 q 302 285 302 327 q 307 219 302 252 q 317 154 311 187 q 327 89 323 122 q 332 22 332 56 q 317 -75 332 -31 q 270 -149 301 -118 q 190 -197 238 -180 q 76 -214 142 -214 l 40 -214 l 40 -138 q 43 -122 40 -129 q 53 -111 47 -115 q 65 -105 59 -107 q 76 -103 72 -103 l 83 -103 q 157 -72 131 -103 q 182 11 182 -42 q 178 84 182 49 q 169 152 174 119 q 161 217 165 185 q 157 282 157 249 q 164 331 157 308 q 185 374 172 355 q 219 408 199 394 q 264 430 239 422 q 219 451 239 437 q 185 485 199 466 q 164 528 172 505 q 157 578 157 552 q 161 642 157 610 q 169 707 165 674 q 178 775 174 740 q 182 849 182 810 q 157 933 182 902 q 83 963 131 963 l 76 963 q 65 965 72 963 q 53 972 59 967 q 43 982 47 976 q 40 998 40 989 l 40 1074 l 76 1074 q 190 1057 142 1074 q 270 1009 238 1040 q 317 934 301 978 q 332 838 332 891 q 327 771 332 804 q 317 706 323 738 q 307 641 311 673 q 302 576 302 608 q 322 507 302 533 q 385 480 342 480 l 385 381 z "},"*":{"ha":590,"x_min":71,"x_max":519,"o":"m 409 837 q 384 824 397 829 q 359 817 372 819 q 409 797 386 813 l 519 733 l 479 663 l 369 728 q 345 744 356 735 q 327 762 335 752 q 336 709 336 739 l 336 581 l 254 581 l 254 708 q 256 735 254 722 q 262 760 258 749 q 244 743 254 751 q 222 728 233 735 l 112 664 l 71 733 l 181 797 q 231 817 208 813 q 181 837 207 821 l 71 901 l 111 971 l 222 906 q 244 890 234 898 q 263 872 255 882 q 254 924 254 895 l 254 1053 l 336 1053 l 336 926 q 334 898 336 911 q 328 873 333 885 q 347 890 336 883 q 369 906 357 898 l 478 969 l 519 900 l 409 837 z "},"†":{"ha":806,"x_min":56,"x_max":749,"o":"m 469 577 l 469 331 l 492 -224 q 451 -241 474 -235 q 403 -247 428 -247 q 355 -241 378 -247 q 314 -224 332 -235 l 336 331 l 336 577 l 56 577 l 56 634 q 61 662 56 649 q 76 685 66 675 q 101 702 85 696 q 137 708 116 708 q 183 705 158 708 q 233 697 207 701 q 284 686 258 692 q 336 678 310 681 l 314 1017 q 355 1034 332 1028 q 403 1040 378 1040 q 451 1034 428 1040 q 492 1017 474 1028 l 469 678 q 521 686 495 681 q 573 697 547 692 q 623 705 599 701 q 669 708 647 708 q 705 702 690 708 q 730 685 720 696 q 744 662 740 675 q 749 634 749 649 l 749 577 l 469 577 z "},"‡":{"ha":806,"x_min":56,"x_max":749,"o":"m 469 216 l 749 216 l 749 159 q 744 131 749 144 q 730 108 740 118 q 705 91 720 97 q 669 85 690 85 q 623 88 647 85 q 573 97 599 92 q 521 107 547 101 q 469 115 495 112 l 492 -224 q 451 -241 474 -235 q 403 -247 428 -247 q 355 -241 378 -247 q 314 -224 332 -235 l 336 115 q 284 107 310 112 q 233 97 258 101 q 183 88 207 92 q 137 85 158 85 q 101 91 116 85 q 76 108 85 97 q 61 131 66 118 q 56 159 56 144 l 56 216 l 336 216 l 336 577 l 56 577 l 56 634 q 61 662 56 649 q 76 685 66 675 q 101 702 85 696 q 137 708 116 708 q 183 705 158 708 q 233 697 207 701 q 284 686 258 692 q 336 678 310 681 l 314 1017 q 355 1034 332 1028 q 403 1040 378 1040 q 451 1034 428 1040 q 492 1017 474 1028 l 469 678 q 521 686 495 681 q 573 697 547 692 q 623 705 599 701 q 669 708 647 708 q 705 702 690 708 q 730 685 720 696 q 744 662 740 675 q 749 634 749 649 l 749 577 l 469 577 l 469 216 z "},"§":{"ha":699,"x_min":61,"x_max":640,"o":"m 213 503 q 233 453 213 474 q 286 415 253 432 q 358 382 318 398 q 438 349 399 367 q 478 384 466 363 q 491 430 491 405 q 472 482 491 460 q 421 520 452 503 q 350 553 390 538 q 272 586 311 568 q 227 550 241 570 q 213 503 213 530 m 569 865 q 535 844 558 844 q 509 851 523 844 q 476 866 494 858 q 433 882 457 875 q 376 889 409 889 q 325 882 347 889 q 288 864 303 876 q 265 838 273 853 q 257 805 257 822 q 273 766 257 783 q 317 734 290 749 q 378 706 344 719 q 449 676 413 692 q 519 642 485 660 q 581 599 553 623 q 624 542 608 574 q 640 469 640 510 q 614 367 640 413 q 531 294 588 322 q 582 234 562 268 q 601 153 601 201 q 583 58 601 101 q 528 -17 565 15 q 439 -66 492 -49 q 317 -84 386 -84 q 245 -77 280 -84 q 177 -59 210 -71 q 118 -31 145 -47 q 69 3 90 -15 l 110 69 q 127 87 117 81 q 153 93 138 93 q 184 84 169 93 q 217 65 198 75 q 264 45 237 54 q 332 36 291 36 q 420 60 389 36 q 452 125 452 83 q 435 173 452 153 q 391 209 419 193 q 328 237 363 224 q 257 265 293 250 q 185 297 220 279 q 122 339 150 315 q 78 397 94 363 q 61 476 61 430 q 90 574 61 531 q 178 643 119 617 q 126 707 146 670 q 106 797 106 744 q 123 880 106 841 q 174 949 140 919 q 258 997 208 979 q 374 1015 308 1015 q 508 990 447 1015 q 608 926 569 966 l 569 865 z "},"¶":{"ha":1024,"x_min":45,"x_max":974,"o":"m 974 860 l 825 860 l 825 -145 l 675 -145 l 675 860 l 512 860 l 512 -145 l 362 -145 l 362 438 q 231 460 290 438 q 132 521 173 483 q 68 611 90 560 q 45 720 45 663 q 68 835 45 783 q 132 925 90 888 q 231 983 173 963 q 362 1004 290 1004 l 974 1004 l 974 860 z "},"^":{"ha":806,"x_min":69,"x_max":737,"o":"m 737 473 l 611 473 q 585 481 595 473 q 568 502 574 490 l 436 769 q 402 851 414 814 q 389 811 397 831 q 371 769 381 791 l 246 502 q 229 481 240 490 q 201 473 218 473 l 69 473 l 344 1004 l 456 1004 l 737 473 z "},"~":{"ha":806,"x_min":70,"x_max":740,"o":"m 519 450 q 580 475 558 450 q 601 545 601 500 l 740 545 q 725 448 740 492 q 684 374 711 405 q 619 326 658 343 q 530 310 580 310 q 459 319 493 310 q 395 341 426 329 q 339 362 365 352 q 290 372 313 372 q 230 347 251 372 q 208 276 208 322 l 70 276 q 84 373 70 330 q 125 448 99 417 q 191 495 152 478 q 280 512 230 512 q 350 502 317 512 q 414 481 384 492 q 471 460 444 469 q 519 450 497 450 z "},"'":{"ha":294,"x_min":72,"x_max":222,"o":"m 222 1004 l 222 804 l 206 696 q 188 649 201 665 q 147 633 176 633 q 107 649 121 633 q 88 696 93 665 l 72 804 l 72 1004 l 222 1004 z "},"\"":{"ha":549,"x_min":72,"x_max":477,"o":"m 222 1004 l 222 804 l 206 696 q 188 649 201 665 q 147 633 176 633 q 107 649 121 633 q 88 696 93 665 l 72 804 l 72 1004 l 222 1004 m 477 1004 l 477 804 l 462 696 q 444 649 456 665 q 402 633 431 633 q 363 649 376 633 q 343 696 349 665 l 328 804 l 328 1004 l 477 1004 z "},"&":{"ha":1005,"x_min":51,"x_max":1001,"o":"m 332 469 q 251 388 276 433 q 226 290 226 342 q 239 222 226 252 q 275 170 252 191 q 327 137 297 149 q 392 126 358 126 q 503 145 453 126 q 595 198 554 164 l 332 469 m 1001 0 l 833 0 q 790 6 806 0 q 756 33 774 13 l 686 104 q 538 19 620 50 q 361 -11 456 -11 q 248 9 303 -11 q 148 66 192 28 q 77 157 104 103 q 51 276 51 210 q 66 366 51 324 q 108 444 81 408 q 173 509 135 480 q 255 558 210 538 q 201 660 217 610 q 184 759 184 710 q 203 858 184 811 q 258 940 222 905 q 347 995 294 974 q 467 1015 400 1015 q 576 997 528 1015 q 659 947 624 978 q 713 875 693 915 q 736 792 733 835 l 627 769 q 583 795 597 763 q 566 830 576 813 q 542 858 556 846 q 510 877 528 870 q 467 885 491 885 q 415 875 438 885 q 376 848 392 865 q 352 808 360 831 q 344 760 344 785 q 348 720 344 740 q 362 681 352 701 q 387 641 372 662 q 426 597 403 621 l 692 320 q 729 413 715 364 q 747 511 743 461 q 758 537 749 527 q 783 547 767 547 l 890 547 q 864 372 890 455 q 790 218 838 288 l 1001 0 z "},"@":{"ha":1172,"x_min":63,"x_max":1117,"o":"m 715 557 q 669 561 692 561 q 588 542 626 561 q 523 492 551 524 q 480 418 496 460 q 464 333 464 377 q 483 264 464 288 q 539 239 502 239 q 575 244 557 239 q 610 264 594 250 q 641 302 627 278 q 664 361 655 326 l 715 557 m 796 379 q 785 307 785 335 q 794 262 785 278 q 817 240 802 246 q 852 233 833 233 q 907 252 881 233 q 953 303 933 270 q 984 383 972 337 q 995 483 995 428 q 967 642 995 573 q 888 757 939 710 q 768 826 838 803 q 615 849 698 849 q 445 815 523 849 q 310 721 367 781 q 220 580 253 661 q 188 405 188 499 q 224 205 188 291 q 321 60 259 118 q 466 -27 383 2 q 647 -56 550 -56 q 747 -50 701 -56 q 833 -34 794 -44 q 903 -11 872 -24 q 960 16 935 1 q 992 22 978 26 q 1013 1 1006 18 l 1036 -60 q 867 -137 964 -108 q 647 -167 771 -167 q 415 -128 522 -167 q 230 -14 308 -88 q 107 166 151 60 q 63 405 63 272 q 82 549 63 479 q 137 681 101 619 q 222 794 172 742 q 333 882 272 845 q 466 939 394 919 q 615 960 537 960 q 804 927 713 960 q 964 832 894 894 q 1076 682 1034 771 q 1117 483 1117 594 q 1095 343 1117 408 q 1034 231 1074 278 q 942 155 995 183 q 826 128 889 128 q 742 150 778 128 q 691 222 705 172 q 604 150 650 172 q 505 128 558 128 q 429 144 461 128 q 375 186 397 159 q 342 249 353 213 q 331 328 331 285 q 341 409 331 368 q 372 487 351 449 q 422 558 392 525 q 493 616 452 591 q 584 655 533 640 q 697 669 635 669 q 789 660 751 669 q 863 637 827 652 l 796 379 z "},"©":{"ha":1144,"x_min":60,"x_max":1085,"o":"m 729 356 q 753 344 743 356 l 810 283 q 712 208 772 234 q 573 182 653 182 q 447 207 503 182 q 351 275 391 231 q 290 377 312 318 q 269 504 269 435 q 293 634 269 575 q 360 736 317 693 q 461 802 403 778 q 588 826 519 826 q 720 800 665 826 q 813 733 776 774 l 768 672 q 757 660 764 666 q 738 655 749 655 q 716 662 726 655 q 691 677 706 669 q 653 692 676 685 q 596 699 631 699 q 522 686 554 699 q 467 647 490 672 q 433 585 444 622 q 421 504 421 549 q 433 421 421 457 q 466 360 445 385 q 517 323 488 335 q 582 310 547 310 q 638 315 616 310 q 675 328 660 321 q 702 344 690 336 q 729 356 714 351 m 60 502 q 78 639 60 573 q 130 761 97 704 q 210 865 163 818 q 314 945 257 912 q 435 997 370 978 q 572 1015 501 1015 q 708 997 642 1015 q 831 945 774 978 q 934 865 888 912 q 1015 761 981 818 q 1066 639 1048 704 q 1085 502 1085 573 q 1066 366 1085 432 q 1015 244 1048 301 q 934 141 981 188 q 831 60 888 94 q 708 9 774 27 q 572 -10 642 -10 q 435 9 501 -10 q 314 60 370 27 q 210 141 257 94 q 130 244 163 188 q 78 366 97 301 q 60 502 60 431 m 153 502 q 186 333 153 412 q 274 197 218 255 q 407 106 331 139 q 572 72 483 72 q 685 88 631 72 q 786 131 739 103 q 871 197 833 158 q 937 284 910 236 q 979 387 964 332 q 994 502 994 442 q 979 618 994 563 q 937 722 964 674 q 871 809 910 770 q 786 877 833 849 q 685 920 739 905 q 572 935 631 935 q 459 920 513 935 q 359 877 406 905 q 275 809 313 849 q 210 722 237 770 q 168 618 183 674 q 153 502 153 563 z "},"℗":{"ha":1144,"x_min":60,"x_max":1085,"o":"m 576 502 q 638 510 615 502 q 674 531 661 517 q 692 564 688 545 q 697 605 697 583 q 692 644 697 626 q 676 675 688 663 q 644 695 665 688 q 590 703 623 703 l 515 703 l 515 502 l 576 502 m 590 815 q 703 799 656 815 q 782 753 751 782 q 828 687 813 725 q 843 605 843 649 q 828 526 843 564 q 782 459 813 488 q 702 413 751 431 q 588 396 654 396 l 515 396 l 515 192 l 366 192 l 366 815 l 590 815 m 572 72 q 685 88 631 72 q 786 131 739 103 q 871 197 833 158 q 937 284 910 236 q 979 387 964 332 q 994 502 994 442 q 979 618 994 563 q 937 722 964 674 q 871 809 910 770 q 786 877 833 849 q 685 920 739 905 q 572 935 631 935 q 459 920 513 935 q 359 877 406 905 q 275 809 313 849 q 210 722 237 770 q 168 618 183 674 q 153 502 153 563 q 186 333 153 412 q 274 197 218 255 q 407 106 331 139 q 572 72 483 72 m 572 1015 q 708 997 642 1015 q 831 945 774 978 q 934 865 888 912 q 1015 761 981 818 q 1066 639 1048 704 q 1085 502 1085 573 q 1066 366 1085 432 q 1015 244 1048 301 q 934 141 981 188 q 831 60 888 94 q 708 9 774 27 q 572 -10 642 -10 q 435 9 501 -10 q 314 60 370 27 q 210 141 257 94 q 130 244 163 188 q 78 366 97 301 q 60 502 60 431 q 78 639 60 573 q 130 761 97 704 q 210 865 163 818 q 314 945 257 912 q 435 997 370 978 q 572 1015 501 1015 z "},"®":{"ha":1144,"x_min":60,"x_max":1085,"o":"m 556 524 q 614 530 592 524 q 650 548 637 536 q 667 577 663 560 q 672 617 672 594 q 668 655 672 638 q 652 682 664 671 q 621 698 641 692 q 569 703 601 703 l 494 703 l 494 524 l 556 524 m 569 815 q 759 769 699 815 q 819 635 819 722 q 788 527 819 574 q 688 460 756 481 q 714 437 703 451 q 735 406 725 424 l 860 192 l 718 192 q 674 215 687 192 l 574 398 q 559 413 567 408 q 533 418 550 418 l 494 418 l 494 192 l 345 192 l 345 815 l 569 815 m 572 72 q 685 88 631 72 q 786 131 739 103 q 871 197 833 158 q 937 284 910 236 q 979 387 964 332 q 994 502 994 442 q 979 618 994 563 q 937 722 964 674 q 871 809 910 770 q 786 877 833 849 q 685 920 739 905 q 572 935 631 935 q 459 920 513 935 q 359 877 406 905 q 275 809 313 849 q 210 722 237 770 q 168 618 183 674 q 153 502 153 563 q 186 333 153 412 q 274 197 218 255 q 407 106 331 139 q 572 72 483 72 m 572 1015 q 708 997 642 1015 q 831 945 774 978 q 934 865 888 912 q 1015 761 981 818 q 1066 639 1048 704 q 1085 502 1085 573 q 1066 366 1085 432 q 1015 244 1048 301 q 934 141 981 188 q 831 60 888 94 q 708 9 774 27 q 572 -10 642 -10 q 435 9 501 -10 q 314 60 370 27 q 210 141 257 94 q 130 244 163 188 q 78 366 97 301 q 60 502 60 431 q 78 639 60 573 q 130 761 97 704 q 210 865 163 818 q 314 945 257 912 q 435 997 370 978 q 572 1015 501 1015 z "},"™":{"ha":1051,"x_min":57,"x_max":955,"o":"m 57 1004 l 403 1004 l 403 907 l 289 907 l 289 585 l 170 585 l 170 907 l 57 907 l 57 1004 m 955 1004 l 955 585 l 851 585 l 851 795 l 858 862 l 753 654 q 712 628 740 628 l 695 628 q 655 654 667 628 l 549 863 l 557 795 l 557 585 l 453 585 l 453 1004 l 555 1004 q 577 1001 570 1004 q 594 986 584 998 l 684 809 q 703 760 696 783 q 711 785 706 772 q 722 809 716 797 l 815 986 q 831 1001 824 998 q 853 1004 838 1004 l 955 1004 z "},"℠":{"ha":1050,"x_min":74,"x_max":955,"o":"m 353 916 q 328 901 343 901 q 313 905 320 901 q 294 913 305 908 q 271 922 284 918 q 240 926 258 926 q 207 917 220 926 q 193 891 193 908 q 207 870 193 878 q 241 857 221 863 q 286 843 262 851 q 330 820 310 835 q 365 783 351 806 q 378 724 378 760 q 368 667 378 693 q 338 621 358 641 q 289 590 318 601 q 224 579 260 579 q 183 583 204 579 q 143 595 163 588 q 105 613 123 603 q 74 636 88 624 l 103 689 q 113 699 106 695 q 127 703 119 703 q 145 698 136 703 q 166 686 155 693 q 192 675 178 680 q 227 669 207 669 q 264 681 253 669 q 275 710 275 692 q 261 735 275 726 q 227 749 247 743 q 182 763 206 756 q 138 784 158 770 q 103 823 117 799 q 90 886 90 847 q 100 934 90 911 q 129 976 110 958 q 176 1005 148 994 q 240 1015 204 1015 q 315 1002 280 1015 q 374 969 351 990 l 353 916 m 955 1004 l 955 585 l 851 585 l 851 795 l 860 864 l 753 654 q 712 628 740 628 l 695 628 q 655 654 667 628 l 551 860 l 558 795 l 558 585 l 453 585 l 453 1004 l 555 1004 q 577 1001 571 1004 q 594 986 584 998 l 684 809 q 703 760 695 786 q 711 785 706 773 q 722 809 717 797 l 815 986 q 832 1001 824 998 q 853 1004 839 1004 l 955 1004 z "},"°":{"ha":577,"x_min":48,"x_max":529,"o":"m 48 780 q 66 873 48 829 q 117 948 85 916 q 193 998 149 980 q 288 1017 238 1017 q 383 998 339 1017 q 459 948 427 980 q 510 873 492 916 q 529 780 529 829 q 510 689 529 732 q 459 614 492 646 q 383 563 427 581 q 288 544 339 544 q 193 563 238 544 q 117 614 149 581 q 66 689 85 646 q 48 780 48 732 m 167 778 q 176 731 167 753 q 202 692 185 708 q 240 666 218 676 q 288 657 262 657 q 336 666 314 657 q 374 692 358 676 q 399 731 390 708 q 408 778 408 753 q 399 827 408 805 q 374 867 390 850 q 336 893 358 883 q 288 903 314 903 q 240 893 262 903 q 202 867 218 883 q 176 827 185 850 q 167 778 167 805 z "},"¤":{"ha":806,"x_min":76,"x_max":729,"o":"m 273 467 q 283 417 273 441 q 311 375 293 393 q 352 347 328 358 q 403 337 376 337 q 454 347 430 337 q 495 375 478 358 q 524 417 513 393 q 534 467 534 441 q 524 519 534 495 q 495 561 513 543 q 454 589 478 578 q 403 599 430 599 q 352 589 376 599 q 311 561 328 578 q 283 519 293 543 q 273 467 273 495 m 642 145 l 538 250 q 474 222 508 232 q 403 212 440 212 q 334 221 367 212 q 272 247 301 231 l 165 142 l 80 228 l 185 332 q 157 396 167 362 q 147 467 147 430 q 156 537 147 504 q 183 599 165 570 l 76 705 l 163 790 l 267 685 q 331 714 297 703 q 403 724 365 724 q 473 714 440 724 q 535 688 506 705 l 640 793 l 726 708 l 621 603 q 649 539 639 574 q 659 467 659 505 q 650 398 659 431 q 623 336 640 365 l 729 231 l 642 145 z "},"€":{"ha":806,"x_min":18,"x_max":785,"o":"m 18 644 l 110 644 q 161 798 126 729 q 246 914 196 866 q 359 988 296 962 q 497 1014 422 1014 q 662 977 593 1014 q 777 876 731 940 l 717 811 q 702 798 710 803 q 681 792 694 792 q 663 797 671 792 q 645 811 655 803 q 624 829 635 819 q 595 847 612 839 q 557 861 579 856 q 504 867 535 867 q 366 810 422 867 q 288 644 310 754 l 636 644 l 636 592 q 623 562 636 576 q 588 549 610 549 l 276 549 q 275 525 275 537 q 275 502 275 514 q 275 485 275 494 q 276 469 275 477 l 570 469 l 570 417 q 557 388 570 401 q 522 374 544 374 l 284 374 q 359 196 303 255 q 496 138 414 138 q 576 151 546 138 q 625 181 606 165 q 657 211 644 198 q 685 225 670 225 q 699 223 693 225 q 710 213 704 220 l 785 145 q 661 30 736 70 q 487 -10 586 -10 q 340 18 405 -10 q 227 95 275 45 q 149 216 179 145 q 106 374 119 287 l 18 374 l 18 469 l 99 469 q 98 485 98 477 q 98 502 98 494 q 98 525 98 514 q 99 549 98 537 l 18 549 l 18 644 z "},"$":{"ha":806,"x_min":47,"x_max":751,"o":"m 438 134 q 550 184 512 144 q 588 288 588 224 q 578 334 588 315 q 552 369 569 354 q 512 396 535 385 q 462 417 489 407 l 438 134 m 394 868 q 328 852 355 863 q 283 824 301 840 q 258 786 266 807 q 250 742 250 765 q 259 696 250 716 q 285 661 269 676 q 324 633 301 645 q 372 610 346 621 l 394 868 m 475 577 q 574 543 525 562 q 663 496 624 525 q 726 423 702 467 q 751 315 751 380 q 729 193 751 250 q 666 93 708 137 q 564 23 624 50 q 426 -10 503 -5 l 417 -112 q 404 -141 417 -128 q 372 -155 391 -155 l 308 -155 l 321 -6 q 168 38 240 5 q 47 121 97 72 l 99 199 q 118 216 106 210 q 142 223 129 223 q 175 212 158 223 q 215 187 192 201 q 265 158 237 173 q 333 137 294 144 l 358 447 q 261 480 309 461 q 174 530 213 499 q 112 608 135 560 q 88 726 88 655 q 109 829 88 778 q 170 919 130 879 q 270 984 211 958 q 406 1013 329 1010 l 413 1101 q 427 1131 415 1117 q 460 1144 440 1144 l 523 1144 l 512 1008 q 639 966 585 996 q 731 898 692 935 l 690 835 q 671 814 681 821 q 647 807 661 807 q 622 814 637 807 q 590 830 608 820 q 549 849 572 839 q 499 865 526 858 l 475 577 z "},"¢":{"ha":806,"x_min":82,"x_max":728,"o":"m 423 592 q 293 519 335 581 q 251 356 251 458 q 286 206 251 263 q 383 128 320 149 l 423 592 m 728 105 q 614 23 679 49 q 477 -8 548 -3 l 468 -110 q 454 -141 467 -127 q 422 -154 442 -154 l 359 -154 l 372 -6 q 257 31 310 3 q 165 106 203 60 q 104 215 126 152 q 82 356 82 278 q 105 498 82 432 q 173 612 128 563 q 284 690 218 660 q 434 722 349 719 l 443 831 q 457 861 445 847 q 490 874 469 874 l 553 874 l 539 715 q 638 682 594 706 q 720 624 683 659 l 676 564 q 662 549 669 554 q 642 544 655 544 q 622 549 632 544 q 598 560 611 553 q 567 574 584 567 q 528 587 550 581 l 488 119 q 549 133 524 123 q 591 153 574 143 q 623 172 609 164 q 650 181 636 181 q 681 166 670 181 l 728 105 z "},"£":{"ha":806,"x_min":26,"x_max":779,"o":"m 26 472 q 40 512 26 495 q 83 529 54 529 l 158 529 l 158 693 q 177 817 158 758 q 237 920 197 876 q 336 990 276 964 q 476 1015 396 1015 q 575 1001 531 1015 q 654 963 619 987 q 714 905 688 938 q 758 834 739 872 l 689 790 q 643 779 665 778 q 603 801 621 781 q 577 830 590 817 q 549 852 564 842 q 517 866 535 861 q 476 871 499 871 q 369 824 405 871 q 334 694 334 777 l 334 529 l 618 529 l 618 461 q 604 431 618 444 q 569 417 590 417 l 334 417 l 334 282 q 317 200 334 236 q 271 134 300 165 q 321 143 296 140 q 372 146 346 146 l 779 146 l 779 74 q 774 48 779 61 q 759 24 769 35 q 735 7 749 13 q 705 0 722 0 l 40 0 l 40 108 q 84 123 63 113 q 122 149 106 133 q 148 186 138 165 q 158 235 158 207 l 158 417 l 26 417 l 26 472 z "},"¥":{"ha":806,"x_min":10,"x_max":796,"o":"m 519 440 l 710 440 l 710 344 l 489 344 l 489 278 l 710 278 l 710 183 l 489 183 l 489 0 l 317 0 l 317 183 l 95 183 l 95 278 l 317 278 l 317 344 l 95 344 l 95 440 l 286 440 l 10 1004 l 153 1004 q 193 993 177 1004 q 216 963 208 982 l 367 624 q 389 566 380 592 q 404 514 398 540 q 418 566 410 540 q 439 624 426 592 l 590 963 q 613 991 597 978 q 651 1004 628 1004 l 796 1004 l 519 440 z "},"℅":{"ha":1185,"x_min":30,"x_max":1161,"o":"m 851 977 q 872 996 860 988 q 907 1004 885 1004 l 1031 1004 l 285 26 q 264 7 277 15 q 233 0 251 0 l 106 0 l 851 977 m 401 641 q 419 633 410 641 l 471 577 q 282 493 410 493 q 176 513 222 493 q 97 569 129 533 q 47 652 64 604 q 30 756 30 700 q 49 862 30 813 q 101 945 67 910 q 183 1000 135 980 q 288 1019 231 1019 q 391 1000 347 1019 q 465 949 436 980 l 421 888 q 411 878 417 882 q 394 874 405 874 q 376 879 384 874 q 357 890 368 884 q 330 902 347 897 q 287 907 314 907 q 198 868 232 907 q 164 756 164 830 q 174 691 164 719 q 201 643 184 663 q 241 614 218 624 q 290 604 264 604 q 340 610 320 604 q 379 632 360 615 q 401 641 390 641 m 1161 253 q 1142 150 1161 198 q 1087 66 1122 102 q 1002 10 1051 31 q 891 -10 952 -10 q 781 10 831 -10 q 695 66 731 31 q 640 150 660 102 q 621 253 621 198 q 640 356 621 308 q 695 440 660 404 q 781 495 731 475 q 891 516 831 516 q 1002 495 952 516 q 1087 439 1051 475 q 1142 356 1122 403 q 1161 253 1161 308 m 1027 253 q 992 364 1027 324 q 891 403 956 403 q 790 364 826 403 q 754 253 754 324 q 790 141 754 181 q 891 101 826 101 q 992 141 956 101 q 1027 253 1027 181 z "},"№":{"ha":1634,"x_min":131,"x_max":1573,"o":"m 813 1004 l 978 1004 l 978 0 l 881 0 q 845 7 860 0 q 816 32 830 15 l 291 701 q 294 657 293 678 q 295 617 295 635 l 295 0 l 131 0 l 131 1004 l 228 1004 q 249 1003 241 1004 q 265 999 258 1002 q 278 990 272 996 q 292 974 284 984 l 818 303 q 814 350 815 327 q 813 394 813 374 l 813 1004 m 1333 904 q 1253 873 1281 904 q 1225 785 1225 841 q 1253 697 1225 728 q 1333 666 1281 666 q 1411 697 1383 666 q 1440 785 1440 728 q 1411 873 1440 841 q 1333 904 1383 904 m 1333 550 q 1235 568 1279 550 q 1160 618 1191 586 q 1111 692 1128 649 q 1094 783 1094 734 q 1111 875 1094 832 q 1160 949 1128 917 q 1235 999 1191 981 q 1333 1017 1279 1017 q 1432 998 1388 1017 q 1507 948 1476 980 q 1556 874 1538 917 q 1573 783 1573 831 q 1556 692 1573 734 q 1507 618 1538 649 q 1432 568 1476 586 q 1333 550 1388 550 m 1097 481 l 1567 481 l 1567 360 l 1097 360 l 1097 481 z "},"#":{"ha":806,"x_min":22,"x_max":785,"o":"m 487 599 l 344 599 l 309 407 l 451 407 l 487 599 m 785 722 l 773 651 q 751 611 767 624 q 697 599 734 599 l 628 599 l 592 407 l 690 407 q 728 391 717 407 q 734 338 740 376 l 725 283 l 574 283 l 522 0 l 442 0 q 420 6 431 0 q 403 21 410 11 q 393 43 396 31 q 393 71 390 56 l 433 283 l 292 283 l 251 63 q 223 15 245 29 q 174 0 201 0 l 97 0 l 150 283 l 70 283 q 33 299 44 283 q 27 352 22 315 l 36 407 l 168 407 l 203 599 l 55 599 l 68 670 q 90 709 74 697 q 144 722 107 722 l 222 722 l 264 946 q 290 989 269 974 q 337 1004 310 1004 l 415 1004 l 362 722 l 504 722 l 558 1004 l 634 1004 q 676 987 660 1004 q 688 944 692 970 l 646 722 l 785 722 z "},"₀":{"ha":464,"x_min":35,"x_max":429,"o":"m 429 100 q 414 -17 429 33 q 371 -98 398 -66 q 308 -147 344 -131 q 231 -162 272 -162 q 153 -147 189 -162 q 91 -98 117 -131 q 50 -17 65 -66 q 35 100 35 33 q 50 217 35 167 q 91 299 65 267 q 153 348 117 332 q 231 363 189 363 q 308 348 272 363 q 371 299 344 332 q 414 217 398 267 q 429 100 429 167 m 305 100 q 300 184 305 152 q 284 234 294 216 q 261 258 274 252 q 231 265 247 265 q 200 258 214 265 q 177 234 187 252 q 163 184 168 216 q 158 100 158 152 q 164 17 158 49 q 180 -33 169 -15 q 203 -58 190 -51 q 231 -64 216 -64 q 259 -58 246 -64 q 283 -33 273 -51 q 299 17 293 -15 q 305 100 305 49 z "},"₁":{"ha":464,"x_min":56,"x_max":401,"o":"m 401 -78 l 401 -157 l 101 -157 l 101 -78 l 198 -78 l 198 172 l 201 208 l 148 165 q 131 158 140 159 q 115 158 122 156 q 102 163 108 160 q 94 171 97 167 l 56 223 l 217 358 l 321 358 l 321 -78 l 401 -78 z "},"₂":{"ha":464,"x_min":41,"x_max":417,"o":"m 376 -46 q 406 -56 395 -46 q 417 -84 417 -67 l 417 -157 l 41 -157 l 41 -117 q 45 -92 41 -106 q 61 -68 50 -79 l 206 75 q 235 107 222 90 q 259 141 249 124 q 275 175 269 158 q 281 208 281 192 q 267 249 281 233 q 229 265 253 265 q 192 253 206 265 q 169 220 178 242 q 148 199 160 205 q 112 197 136 192 l 43 207 q 66 276 49 247 q 107 325 82 306 q 165 354 132 344 q 236 363 197 363 q 308 351 276 363 q 361 319 340 340 q 394 272 383 299 q 406 213 406 244 q 397 160 406 184 q 374 115 388 137 q 341 74 360 94 q 302 33 322 53 l 213 -58 q 251 -49 233 -52 q 286 -46 270 -46 l 376 -46 z "},"₃":{"ha":464,"x_min":39,"x_max":413,"o":"m 52 207 q 74 276 58 247 q 115 325 90 306 q 170 354 139 344 q 237 363 201 363 q 307 352 276 363 q 359 322 338 340 q 392 279 381 303 q 403 229 403 255 q 385 155 403 185 q 328 108 367 125 q 391 69 369 94 q 413 3 413 44 q 397 -71 413 -40 q 355 -123 381 -102 q 297 -153 329 -143 q 230 -162 264 -162 q 163 -155 192 -162 q 109 -132 133 -148 q 69 -89 86 -115 q 39 -23 51 -62 l 92 -1 q 130 3 113 7 q 156 -15 148 -1 q 165 -31 160 -23 q 179 -46 171 -40 q 198 -57 187 -53 q 224 -61 209 -61 q 272 -44 255 -61 q 288 -2 288 -26 q 283 29 288 17 q 267 49 278 42 q 236 60 256 57 q 188 63 217 63 l 188 144 q 235 148 217 144 q 265 161 254 153 q 280 181 276 169 q 285 207 285 192 q 271 248 285 233 q 231 263 258 263 q 192 251 206 263 q 171 222 178 240 q 161 207 166 213 q 151 198 157 201 q 136 195 144 195 q 116 197 128 194 l 52 207 z "},"₄":{"ha":464,"x_min":15,"x_max":431,"o":"m 263 39 l 263 156 q 264 192 263 172 q 268 232 265 211 l 128 39 l 263 39 m 431 39 l 431 -22 q 424 -38 431 -31 q 408 -45 418 -45 l 366 -45 l 366 -157 l 263 -157 l 263 -45 l 62 -45 q 36 -38 46 -45 q 24 -19 27 -31 l 15 33 l 247 358 l 366 358 l 366 39 l 431 39 z "},"₅":{"ha":464,"x_min":46,"x_max":406,"o":"m 190 174 q 215 177 203 176 q 241 178 228 178 q 312 167 281 178 q 364 135 343 156 q 395 87 385 115 q 406 26 406 59 q 392 -50 406 -16 q 351 -110 377 -85 q 288 -149 324 -135 q 206 -162 251 -162 q 115 -142 156 -162 q 46 -93 74 -122 l 82 -42 q 113 -25 95 -25 q 133 -31 124 -25 q 153 -43 142 -36 q 178 -56 164 -50 q 214 -61 192 -61 q 240 -57 227 -61 q 262 -44 252 -53 q 277 -22 272 -35 q 283 12 283 -8 q 265 63 283 46 q 215 81 247 81 q 181 76 198 81 q 147 67 163 72 l 74 87 l 119 358 l 386 358 l 386 306 q 370 265 386 282 q 316 249 354 249 l 203 249 l 190 174 z "},"₆":{"ha":464,"x_min":44,"x_max":422,"o":"m 236 -69 q 288 -49 267 -69 q 308 3 308 -28 q 291 58 308 39 q 239 78 273 78 q 185 58 205 78 q 166 3 166 38 q 185 -49 166 -28 q 236 -69 203 -69 m 258 207 q 225 173 244 190 q 189 138 206 157 q 229 160 207 152 q 277 168 251 168 q 327 160 301 168 q 374 134 353 151 q 408 87 394 116 q 422 18 422 58 q 408 -51 422 -19 q 370 -109 394 -84 q 310 -148 345 -133 q 233 -162 276 -162 q 154 -149 189 -162 q 94 -110 119 -135 q 57 -51 70 -85 q 44 24 44 -17 q 59 103 44 65 q 103 180 74 142 l 215 330 q 241 350 224 342 q 278 358 258 358 l 386 358 l 258 207 z "},"₇":{"ha":464,"x_min":54,"x_max":419,"o":"m 419 358 l 419 292 q 416 270 419 280 q 409 252 413 260 l 233 -117 q 226 -131 230 -124 q 216 -144 222 -138 q 200 -153 210 -150 q 176 -157 191 -157 l 81 -157 l 259 191 q 276 220 267 207 q 295 246 285 234 l 81 246 q 63 254 72 246 q 54 273 54 263 l 54 358 l 419 358 z "},"₈":{"ha":464,"x_min":47,"x_max":417,"o":"m 232 -69 q 280 -51 267 -69 q 294 -5 294 -32 q 279 46 294 31 q 232 61 264 61 q 185 46 201 61 q 170 -5 170 31 q 184 -51 170 -32 q 232 -69 198 -69 m 232 274 q 207 269 217 274 q 190 256 197 264 q 180 239 183 249 q 177 219 177 229 q 190 171 177 187 q 232 156 203 156 q 289 219 289 156 q 285 239 289 229 q 275 256 282 249 q 257 269 268 264 q 232 274 247 274 m 336 111 q 399 63 381 94 q 417 -8 417 32 q 404 -71 417 -42 q 366 -120 391 -100 q 308 -151 342 -140 q 232 -162 274 -162 q 157 -151 191 -162 q 98 -120 122 -140 q 60 -71 74 -100 q 47 -8 47 -42 q 65 63 47 32 q 128 111 83 94 q 79 155 95 127 q 63 222 63 183 q 76 277 63 251 q 111 323 89 303 q 165 352 134 342 q 232 363 196 363 q 300 352 269 363 q 353 323 331 342 q 388 277 376 303 q 401 222 401 251 q 385 155 401 183 q 336 111 369 127 z "},"₉":{"ha":464,"x_min":48,"x_max":410,"o":"m 165 204 q 231 136 165 136 q 281 153 263 136 q 299 204 299 171 q 280 253 299 235 q 233 271 261 271 q 182 253 199 271 q 165 204 165 235 m 212 10 q 236 36 224 24 q 259 63 248 49 q 228 53 244 56 q 194 51 212 51 q 143 60 169 51 q 95 89 117 70 q 61 134 74 107 q 48 197 48 162 q 61 258 48 228 q 98 311 74 288 q 155 349 122 334 q 231 363 189 363 q 306 351 273 363 q 363 318 340 340 q 398 265 386 296 q 410 196 410 234 q 406 142 410 167 q 392 94 401 117 q 370 49 383 71 q 340 3 357 26 l 248 -130 q 223 -149 240 -140 q 186 -157 206 -157 l 76 -157 l 212 10 z "},"₊":{"ha":464,"x_min":57,"x_max":407,"o":"m 407 45 l 280 45 l 280 -91 l 183 -91 l 183 45 l 57 45 l 57 135 l 183 135 l 183 269 l 280 269 l 280 135 l 407 135 l 407 45 z "},"₋":{"ha":464,"x_min":70,"x_max":394,"o":"m 70 135 l 394 135 l 394 45 l 70 45 l 70 135 z "},"₌":{"ha":464,"x_min":70,"x_max":394,"o":"m 70 67 l 394 67 l 394 -22 l 70 -22 l 70 67 m 70 199 l 394 199 l 394 110 l 70 110 l 70 199 z "},"₍":{"ha":232,"x_min":33,"x_max":203,"o":"m 137 90 q 152 -46 137 23 q 193 -173 167 -115 q 198 -203 203 -192 q 183 -219 193 -213 l 130 -251 q 56 -87 78 -172 q 33 90 33 -3 q 56 268 33 183 q 130 432 78 353 l 183 400 q 198 383 193 393 q 193 354 203 374 q 152 227 167 295 q 137 90 137 158 z "},"₎":{"ha":232,"x_min":28,"x_max":199,"o":"m 96 90 q 81 227 96 158 q 39 354 65 295 q 34 383 28 374 q 50 400 40 393 l 103 432 q 176 268 153 353 q 199 90 199 183 q 176 -87 199 -3 q 103 -251 153 -172 l 50 -219 q 34 -203 40 -213 q 39 -173 28 -192 q 81 -46 65 -115 q 96 90 96 23 z "},"⁄":{"ha":194,"x_min":-274,"x_max":468,"o":"m -115 49 q -154 10 -133 21 q -201 0 -174 0 l -274 0 l 305 948 q 343 989 322 974 q 394 1004 364 1004 l 468 1004 l -115 49 z "},"⅔":{"ha":1040,"x_min":60,"x_max":985,"o":"m 338 49 q 299 10 319 21 q 251 0 278 0 l 178 0 l 758 948 q 795 989 774 974 q 847 1004 817 1004 l 921 1004 l 338 49 m 394 601 q 425 591 414 601 q 435 563 435 581 l 435 490 l 60 490 l 60 530 q 64 555 60 542 q 80 579 69 568 l 225 722 q 254 755 240 738 q 278 789 268 772 q 293 823 288 806 q 299 856 299 840 q 286 896 299 881 q 248 912 272 912 q 211 900 225 912 q 188 867 197 889 q 167 846 178 852 q 131 844 155 840 l 62 854 q 84 923 68 894 q 126 972 101 953 q 183 1001 151 992 q 255 1010 216 1010 q 327 999 295 1010 q 380 967 358 987 q 413 919 402 947 q 424 860 424 892 q 416 808 424 831 q 393 763 407 784 q 360 721 378 741 q 321 680 341 701 l 232 590 q 270 598 251 595 q 305 601 289 601 l 394 601 m 624 364 q 646 433 630 403 q 687 482 663 463 q 742 511 711 501 q 809 520 774 520 q 880 509 849 520 q 932 478 910 497 q 964 436 953 460 q 975 386 975 412 q 957 312 975 342 q 900 265 940 282 q 963 226 942 251 q 985 160 985 201 q 969 86 985 117 q 927 34 953 55 q 869 4 901 14 q 802 -6 836 -6 q 735 2 765 -6 q 682 25 705 9 q 641 68 658 42 q 611 134 624 95 l 664 156 q 702 160 685 164 q 728 142 720 156 q 738 126 732 134 q 751 111 743 117 q 770 100 759 104 q 796 96 781 96 q 844 113 827 96 q 860 155 860 131 q 856 186 860 174 q 839 206 851 199 q 808 217 828 214 q 760 220 789 220 l 760 301 q 808 305 789 301 q 837 318 826 310 q 852 338 848 326 q 857 364 857 349 q 843 405 857 390 q 803 419 830 419 q 765 408 778 419 q 743 378 751 397 q 734 364 738 369 q 723 355 729 358 q 708 352 717 352 q 688 353 700 351 l 624 364 z "},"⅖":{"ha":1017,"x_min":58,"x_max":957,"o":"m 335 49 q 297 10 317 21 q 249 0 276 0 l 176 0 l 756 948 q 793 989 772 974 q 845 1004 815 1004 l 919 1004 l 335 49 m 393 601 q 423 591 413 601 q 434 563 434 581 l 434 490 l 58 490 l 58 530 q 63 555 58 542 q 78 579 67 568 l 224 722 q 253 755 239 738 q 276 789 267 772 q 292 823 286 806 q 298 856 298 840 q 284 896 298 881 q 247 912 271 912 q 210 900 224 912 q 187 867 196 889 q 165 846 177 852 q 129 844 153 840 l 60 854 q 83 923 67 894 q 124 972 99 953 q 182 1001 149 992 q 253 1010 215 1010 q 325 999 294 1010 q 379 967 357 987 q 412 919 401 947 q 423 860 423 892 q 414 808 423 831 q 391 763 406 784 q 358 721 377 741 q 319 680 340 701 l 231 590 q 269 598 250 595 q 303 601 288 601 l 393 601 m 740 331 q 766 334 753 333 q 792 335 778 335 q 863 324 832 335 q 915 292 894 313 q 946 244 935 272 q 957 183 957 216 q 942 107 957 141 q 901 47 928 72 q 838 8 875 22 q 757 -6 801 -6 q 666 15 706 -6 q 597 64 625 35 l 633 115 q 663 132 646 132 q 684 126 674 132 q 704 114 693 121 q 729 101 715 107 q 765 96 743 96 q 790 100 778 96 q 813 113 803 104 q 828 135 822 122 q 834 169 834 149 q 816 220 834 203 q 765 238 798 238 q 731 233 749 238 q 698 224 714 229 l 624 244 l 669 515 l 937 515 l 937 463 q 921 422 937 439 q 867 406 905 406 l 753 406 l 740 331 z "},"+":{"ha":806,"x_min":65,"x_max":742,"o":"m 742 403 l 472 403 l 472 117 l 333 117 l 333 403 l 65 403 l 65 530 l 333 530 l 333 815 l 472 815 l 472 530 l 742 530 l 742 403 z "},"−":{"ha":806,"x_min":95,"x_max":710,"o":"m 95 530 l 710 530 l 710 403 l 95 403 l 95 530 z "},"×":{"ha":806,"x_min":76,"x_max":731,"o":"m 640 140 l 404 376 l 167 139 l 76 228 l 313 467 l 87 693 l 177 783 l 403 557 l 628 782 l 720 692 l 494 466 l 731 230 l 640 140 z "},"÷":{"ha":806,"x_min":64,"x_max":741,"o":"m 64 530 l 741 530 l 741 403 l 64 403 l 64 530 m 297 713 q 305 754 297 735 q 327 788 313 774 q 360 810 341 801 q 402 818 380 818 q 443 810 424 818 q 477 788 463 801 q 499 754 491 774 q 508 713 508 735 q 499 672 508 691 q 477 639 491 653 q 443 617 463 625 q 402 609 424 609 q 360 617 380 609 q 327 639 341 625 q 305 672 313 653 q 297 713 297 691 m 297 219 q 305 260 297 240 q 327 293 313 279 q 360 315 341 307 q 402 324 380 324 q 443 315 424 324 q 477 293 463 307 q 499 260 491 279 q 508 219 508 240 q 499 177 508 197 q 477 144 491 158 q 443 123 463 131 q 402 115 424 115 q 360 123 380 115 q 327 144 341 131 q 305 177 313 158 q 297 219 297 197 z "},"=":{"ha":806,"x_min":95,"x_max":710,"o":"m 95 408 l 710 408 l 710 281 l 95 281 l 95 408 m 95 653 l 710 653 l 710 526 l 95 526 l 95 653 z "},"≠":{"ha":806,"x_min":95,"x_max":710,"o":"m 503 526 l 444 408 l 710 408 l 710 281 l 381 281 l 299 117 l 176 117 l 258 281 l 95 281 l 95 408 l 322 408 l 381 526 l 95 526 l 95 653 l 444 653 l 521 806 l 643 806 l 567 653 l 710 653 l 710 526 l 503 526 z "},"≈":{"ha":806,"x_min":108,"x_max":695,"o":"m 549 622 q 591 627 570 622 q 628 639 612 632 q 657 655 645 647 q 675 669 669 663 l 695 560 q 664 530 682 542 q 626 508 647 517 q 583 496 606 500 q 538 492 560 492 q 465 503 501 492 q 393 527 428 514 q 324 551 358 540 q 261 562 291 562 q 218 557 239 562 q 180 544 197 551 q 150 528 163 537 q 133 513 138 519 l 108 617 q 140 651 122 637 q 179 674 158 665 q 224 687 201 683 q 272 691 248 691 q 346 680 309 691 q 418 657 383 669 q 486 633 453 644 q 549 622 519 622 m 549 375 q 591 380 570 375 q 628 392 612 385 q 657 407 645 399 q 675 422 669 415 l 695 313 q 664 282 682 295 q 626 261 647 269 q 583 249 606 253 q 538 245 560 245 q 465 256 501 245 q 393 280 428 267 q 324 304 358 293 q 261 315 291 315 q 218 309 239 315 q 180 297 197 304 q 150 281 163 290 q 133 266 138 272 l 108 370 q 140 403 122 390 q 179 426 158 417 q 224 440 201 435 q 272 444 248 444 q 346 433 309 444 q 418 409 383 422 q 486 386 453 397 q 549 375 519 375 z "},"<":{"ha":806,"x_min":105,"x_max":656,"o":"m 374 493 q 302 468 341 477 q 374 443 341 459 l 626 313 q 649 294 642 306 q 656 268 656 282 l 656 146 l 105 433 l 105 503 l 656 790 l 656 667 q 649 642 656 653 q 626 622 642 631 l 374 493 z "},">":{"ha":806,"x_min":150,"x_max":701,"o":"m 701 503 l 701 433 l 150 146 l 150 268 q 157 294 150 282 q 180 313 164 306 l 432 443 q 503 468 465 459 q 432 493 465 477 l 180 622 q 157 642 164 631 q 150 667 150 653 l 150 790 l 701 503 z "},"±":{"ha":806,"x_min":64,"x_max":742,"o":"m 64 183 l 742 183 l 742 56 l 64 56 l 64 183 m 742 616 l 742 488 l 472 488 l 472 251 l 333 251 l 333 488 l 64 488 l 64 616 l 333 616 l 333 862 l 472 862 l 472 616 l 742 616 z "},"≤":{"ha":806,"x_min":120,"x_max":671,"o":"m 120 183 l 671 183 l 671 56 l 120 56 l 120 183 m 388 572 q 310 549 353 558 q 388 525 353 539 l 633 413 q 663 392 655 404 q 671 365 671 379 l 671 249 l 120 514 l 120 583 l 671 846 l 671 729 q 663 703 671 715 q 633 681 656 690 l 388 572 z "},"≥":{"ha":806,"x_min":135,"x_max":685,"o":"m 135 183 l 685 183 l 685 56 l 135 56 l 135 183 m 685 583 l 685 514 l 135 249 l 135 365 q 143 392 135 379 q 173 413 151 404 l 417 525 q 496 549 452 539 q 417 572 452 558 l 172 681 q 142 703 150 690 q 135 729 135 715 l 135 846 l 685 583 z "},"¬":{"ha":806,"x_min":92,"x_max":708,"o":"m 708 206 l 562 206 l 562 403 l 92 403 l 92 530 l 708 530 l 708 206 z "},"℮":{"ha":1138,"x_min":65,"x_max":1083,"o":"m 853 634 q 835 745 853 695 q 782 831 817 795 q 699 886 748 867 q 587 906 649 906 q 476 886 526 906 q 390 828 426 865 q 334 740 354 792 q 314 628 314 689 l 314 607 l 853 607 l 853 634 m 314 397 q 335 282 314 336 q 398 188 357 228 q 496 124 438 147 q 628 100 554 100 q 802 138 724 100 q 940 260 881 176 l 1033 194 q 958 106 1000 145 q 861 41 915 67 q 740 0 807 14 q 590 -15 672 -15 q 372 24 469 -15 q 207 130 275 62 q 101 291 138 197 q 65 496 65 385 q 82 635 65 568 q 131 759 99 701 q 209 863 163 816 q 312 943 255 910 q 436 995 369 977 q 579 1013 503 1013 q 797 971 703 1013 q 953 858 890 928 q 1048 694 1015 787 q 1083 501 1080 601 l 314 501 l 314 397 z "},"ℓ":{"ha":797,"x_min":40,"x_max":773,"o":"m 563 888 q 490 859 527 888 q 420 781 453 831 q 361 665 387 731 q 322 521 335 598 q 445 581 389 549 q 542 651 502 614 q 605 727 583 688 q 628 808 628 767 q 610 866 628 845 q 563 888 593 888 m 309 383 q 315 260 309 308 q 332 183 321 212 q 360 143 344 155 q 399 132 377 132 q 445 144 422 132 q 488 176 467 156 q 526 224 508 197 q 556 281 543 251 l 697 247 q 645 144 678 191 q 569 63 612 97 q 473 10 526 29 q 363 -10 421 -10 q 274 9 314 -10 q 206 70 235 28 q 162 181 178 113 q 146 347 147 249 q 104 337 125 342 q 61 327 83 332 l 40 440 q 98 452 69 446 q 153 465 126 458 q 182 605 162 536 q 231 734 201 673 q 298 848 260 796 q 381 937 336 899 q 478 995 426 974 q 588 1017 531 1017 q 669 1001 634 1017 q 727 958 704 985 q 761 894 750 931 q 773 816 773 858 q 740 686 773 747 q 645 573 706 626 q 499 476 584 520 q 309 396 413 431 l 309 383 z "},"∞":{"ha":1017,"x_min":63,"x_max":953,"o":"m 719 299 q 757 306 739 299 q 789 325 775 312 q 811 360 803 339 q 819 411 819 381 q 810 461 819 440 q 789 496 802 483 q 757 516 775 510 q 719 522 738 522 q 679 514 697 522 q 645 490 661 505 q 614 455 628 475 q 584 411 599 434 q 614 367 599 388 q 645 332 628 347 q 679 308 661 317 q 719 299 697 299 m 299 299 q 338 308 319 299 q 372 332 356 317 q 403 367 388 347 q 433 411 418 388 q 403 455 418 434 q 372 490 388 475 q 338 514 356 505 q 299 522 319 522 q 260 516 278 522 q 228 496 242 510 q 206 461 214 483 q 197 411 197 440 q 206 360 197 381 q 228 325 214 339 q 260 306 242 312 q 299 299 278 299 m 725 660 q 813 642 771 660 q 885 591 854 624 q 935 512 917 558 q 953 411 953 466 q 935 310 953 356 q 885 231 917 264 q 813 180 854 198 q 725 161 771 161 q 655 172 687 161 q 597 200 624 182 q 549 241 571 217 q 508 291 527 265 q 468 241 490 265 q 419 200 446 217 q 361 172 393 182 q 292 161 330 161 q 204 180 246 161 q 131 231 163 198 q 81 310 99 264 q 63 411 63 356 q 81 512 63 466 q 131 591 99 558 q 204 642 163 624 q 292 660 246 660 q 361 650 330 660 q 419 622 393 640 q 468 581 446 604 q 508 531 490 557 q 549 581 527 557 q 597 622 571 604 q 655 650 624 640 q 725 660 687 660 z "},"∂":{"ha":810,"x_min":47,"x_max":762,"o":"m 358 123 q 430 138 396 123 q 494 187 465 153 q 545 273 523 220 q 581 401 568 326 q 563 451 575 427 q 533 494 551 476 q 489 524 515 513 q 427 535 463 535 q 338 517 376 535 q 275 466 300 499 q 237 388 249 433 q 224 288 224 342 q 260 166 224 209 q 358 123 296 123 m 213 927 q 269 964 241 948 q 327 991 297 981 q 392 1008 358 1002 q 467 1014 426 1014 q 586 988 531 1014 q 679 911 640 961 q 740 791 718 862 q 762 629 762 719 q 736 367 762 485 q 657 165 710 249 q 525 35 604 81 q 338 -10 445 -10 q 222 10 275 -10 q 130 70 169 31 q 69 163 91 108 q 47 286 47 218 q 75 437 47 367 q 151 558 103 507 q 266 639 199 610 q 409 668 332 668 q 525 644 477 668 q 606 575 574 620 q 607 602 607 589 q 607 628 607 616 q 595 738 607 691 q 562 816 583 785 q 511 863 541 847 q 443 878 481 878 q 393 872 417 878 q 350 856 370 865 q 315 841 331 848 q 288 834 299 834 q 269 840 278 834 q 251 862 260 845 l 213 927 z "},"∫":{"ha":696,"x_min":0,"x_max":697,"o":"m 311 858 q 344 982 320 930 q 404 1068 368 1035 q 487 1118 440 1102 q 590 1135 534 1135 q 643 1130 615 1135 q 697 1112 672 1124 l 688 1040 q 683 1024 686 1031 q 674 1013 681 1017 q 658 1007 668 1009 q 630 1006 647 1006 q 562 998 590 1006 q 517 972 535 990 q 489 928 499 955 q 475 863 479 901 l 385 40 q 353 -85 376 -33 q 293 -171 329 -137 q 210 -221 257 -205 q 107 -237 163 -237 q 53 -232 82 -237 q 0 -214 24 -227 l 9 -142 q 13 -127 10 -133 q 22 -116 16 -120 q 39 -110 28 -112 q 67 -108 50 -108 q 135 -100 108 -108 q 181 -75 163 -92 q 208 -31 199 -58 q 222 34 218 -4 l 311 858 z "},"√":{"ha":863,"x_min":22,"x_max":862,"o":"m 862 1185 l 480 0 l 335 0 l 171 446 l 87 446 q 41 461 60 446 q 22 515 22 477 l 22 569 l 267 569 q 299 560 286 569 q 316 538 312 551 l 387 322 q 402 263 397 292 q 412 203 408 234 q 421 251 416 227 q 433 300 426 275 l 701 1153 q 719 1176 706 1167 q 749 1185 731 1185 l 862 1185 z "},"∏":{"ha":979,"x_min":49,"x_max":931,"o":"m 931 860 l 815 860 l 815 -233 l 638 -233 l 638 860 l 342 860 l 342 -233 l 165 -233 l 165 860 l 49 860 l 49 1004 l 931 1004 l 931 860 z "},"∑":{"ha":949,"x_min":49,"x_max":888,"o":"m 888 860 l 315 860 l 672 410 l 672 361 l 315 -89 l 888 -89 l 888 -233 l 49 -233 l 49 -173 q 53 -147 49 -160 q 67 -122 58 -133 l 481 388 l 67 893 q 53 918 58 905 q 49 944 49 932 l 49 1004 l 888 1004 l 888 860 z "},"◊":{"ha":806,"x_min":57,"x_max":749,"o":"m 584 500 l 439 803 q 418 856 426 829 q 403 909 409 882 q 389 856 397 882 q 368 804 380 830 l 224 500 l 364 205 q 387 146 378 175 q 403 88 397 117 q 419 145 410 117 q 443 203 429 174 l 584 500 m 749 500 l 463 -63 l 343 -63 l 57 500 l 343 1063 l 463 1063 l 749 500 z "},"←":{"ha":1389,"x_min":67,"x_max":1313,"o":"m 67 449 l 474 856 l 533 794 q 548 758 551 776 q 528 724 544 740 l 383 577 q 345 541 363 557 q 312 513 328 526 q 408 522 358 518 q 508 526 458 526 l 1313 526 l 1313 372 l 508 372 q 406 376 457 372 q 310 385 356 379 q 345 356 326 372 q 383 321 363 340 l 528 174 q 549 139 546 158 q 534 102 552 120 l 474 42 l 67 449 z "},"→":{"ha":1389,"x_min":76,"x_max":1322,"o":"m 1322 448 l 915 42 l 856 103 q 841 139 838 121 q 861 174 844 158 l 1006 320 q 1043 356 1026 340 q 1078 385 1061 372 q 982 376 1032 379 q 881 372 931 372 l 76 372 l 76 526 l 881 526 q 982 522 932 526 q 1078 513 1033 518 q 1006 577 1045 539 l 860 724 q 840 759 843 740 q 855 795 837 777 l 915 856 l 1322 448 z "},"↑":{"ha":1042,"x_min":113,"x_max":928,"o":"m 928 683 l 867 624 q 830 609 849 606 q 794 629 811 613 l 651 776 q 615 813 631 795 q 585 847 599 831 q 595 751 591 801 q 599 651 599 701 l 599 -157 l 443 -157 l 443 651 q 447 752 443 702 q 456 848 451 802 q 427 814 443 831 q 392 776 412 796 l 247 628 q 212 608 231 612 q 175 623 193 605 l 113 682 l 522 1090 l 928 683 z "},"↓":{"ha":1042,"x_min":113,"x_max":928,"o":"m 928 165 l 519 -242 l 113 165 l 175 224 q 211 238 193 242 q 247 218 230 235 l 391 72 q 456 0 431 33 q 447 95 451 46 q 443 196 443 145 l 443 1004 l 598 1004 l 598 196 q 594 95 598 145 q 585 -1 590 45 q 614 34 598 16 q 649 72 629 51 l 794 219 q 830 239 810 236 q 867 224 849 242 l 928 165 z "},"↗":{"ha":1042,"x_min":26,"x_max":963,"o":"m 963 926 l 963 351 l 876 352 q 840 368 851 353 q 829 406 829 383 l 829 613 q 830 665 829 641 q 834 709 831 688 q 773 635 806 673 q 704 563 740 598 l 135 -9 l 26 99 l 594 671 q 669 740 631 707 q 744 801 708 772 q 699 797 724 798 q 647 795 675 795 l 441 795 q 402 805 417 794 q 387 841 387 816 l 385 926 l 963 926 z "},"↖":{"ha":1042,"x_min":79,"x_max":1016,"o":"m 1016 99 l 906 -9 l 338 563 q 269 635 301 598 q 208 709 236 673 q 211 665 210 688 q 213 613 213 641 l 213 406 q 202 368 213 383 q 165 352 191 353 l 79 351 l 79 926 l 656 926 l 655 841 q 640 805 655 816 q 601 795 624 794 l 395 795 q 342 797 367 795 q 297 801 318 798 q 372 740 334 772 q 447 671 410 707 l 1016 99 z "},"↘":{"ha":1042,"x_min":26,"x_max":963,"o":"m 963 575 l 963 1 l 385 0 l 387 85 q 402 121 387 110 q 441 131 417 132 l 647 131 q 699 130 675 131 q 744 126 724 128 q 669 187 708 154 q 594 256 631 219 l 26 827 l 135 936 l 704 364 q 773 291 740 328 q 834 217 806 253 q 830 262 831 238 q 829 313 829 285 l 829 520 q 840 558 829 543 q 876 574 851 574 l 963 575 z "},"↙":{"ha":1042,"x_min":79,"x_max":1016,"o":"m 79 0 l 79 575 l 165 574 q 202 558 191 574 q 213 519 213 542 l 213 313 q 211 261 213 285 q 208 217 210 238 q 268 290 235 253 q 338 364 301 328 l 906 935 l 1016 827 l 447 255 q 372 186 410 219 q 297 125 334 153 q 395 131 340 131 l 601 131 q 640 120 624 131 q 655 85 655 110 l 656 -1 l 79 0 z "},"↔":{"ha":1389,"x_min":67,"x_max":1322,"o":"m 1322 448 l 915 42 l 856 103 q 841 139 838 121 q 861 174 844 158 l 1006 320 q 1043 356 1026 340 q 1078 385 1061 372 q 982 376 1032 379 q 881 372 931 372 l 326 372 q 354 348 340 361 q 383 321 368 335 l 528 174 q 549 139 546 158 q 534 102 552 120 l 474 42 l 67 449 l 474 856 l 533 794 q 548 758 551 776 q 528 724 544 740 l 383 577 q 328 526 353 547 l 881 526 q 982 522 932 526 q 1078 513 1033 518 q 1006 577 1045 539 l 860 724 q 840 759 843 740 q 855 795 837 777 l 915 856 l 1322 448 z "},"↕":{"ha":1042,"x_min":113,"x_max":928,"o":"m 520 -242 l 114 165 l 176 224 q 212 238 194 242 q 247 218 231 235 l 392 72 q 419 43 406 57 q 443 17 432 30 l 443 651 q 447 752 443 702 q 456 848 451 802 q 427 814 443 831 q 392 776 412 796 l 247 628 q 212 608 231 612 q 175 623 193 605 l 113 682 l 522 1090 l 928 683 l 867 624 q 830 609 849 606 q 794 629 811 613 l 651 776 q 615 813 631 795 q 585 847 599 831 q 595 751 592 801 q 599 651 599 701 l 599 15 q 622 42 610 28 q 650 72 635 56 l 795 219 q 830 239 811 236 q 867 224 849 242 l 928 165 l 520 -242 z "},"Ơ":{"ha":1197,"x_min":52,"x_max":1174,"o":"m 561 149 q 693 173 635 149 q 793 243 752 197 q 856 354 834 288 q 878 502 878 419 q 856 650 878 585 q 793 762 834 716 q 693 832 752 808 q 561 856 635 856 q 429 832 488 856 q 329 762 370 808 q 265 650 288 716 q 243 502 243 585 q 265 354 243 419 q 329 243 288 288 q 429 173 370 197 q 561 149 488 149 m 1164 1106 q 1171 1069 1169 1090 q 1174 1026 1174 1049 q 1163 947 1174 985 q 1129 878 1151 909 q 1072 825 1106 848 q 992 789 1038 801 q 1050 656 1030 728 q 1069 502 1069 584 q 1033 298 1069 392 q 930 135 997 203 q 769 27 863 66 q 561 -11 676 -11 q 353 27 447 -11 q 193 135 260 66 q 89 298 126 203 q 52 502 52 392 q 89 707 52 613 q 193 869 126 801 q 353 977 260 938 q 561 1015 447 1015 q 771 976 678 1015 q 932 867 865 937 q 989 894 969 875 q 1008 939 1008 914 q 1003 962 1008 952 q 993 982 999 972 q 983 1004 988 992 q 978 1033 978 1016 q 1001 1087 978 1069 q 1072 1106 1024 1106 l 1164 1106 z "},"Ư":{"ha":1208,"x_min":99,"x_max":1222,"o":"m 1213 1106 q 1219 1069 1217 1090 q 1222 1026 1222 1049 q 1204 928 1222 974 q 1150 848 1186 882 q 1059 795 1114 815 q 932 774 1005 775 l 932 403 q 903 237 932 313 q 820 106 874 161 q 690 20 767 51 q 516 -11 613 -11 q 342 20 419 -11 q 211 106 265 51 q 128 237 157 161 q 99 403 99 313 l 99 1004 l 286 1004 l 286 403 q 302 299 286 346 q 347 220 317 253 q 419 169 376 187 q 516 151 462 151 q 613 169 570 151 q 685 219 656 187 q 730 299 714 252 q 745 403 745 345 l 745 1004 l 932 1004 l 932 861 q 1025 884 993 863 q 1056 939 1056 906 q 1052 962 1056 952 q 1042 982 1047 972 q 1032 1004 1036 992 q 1027 1033 1027 1016 q 1050 1087 1027 1069 q 1121 1106 1073 1106 l 1213 1106 z "},"ơ":{"ha":869,"x_min":47,"x_max":894,"o":"m 400 122 q 532 181 489 122 q 574 356 574 241 q 532 532 574 472 q 400 592 489 592 q 266 532 310 592 q 223 356 223 471 q 266 182 223 242 q 400 122 310 122 m 885 822 q 891 788 889 808 q 894 747 894 769 q 883 673 894 708 q 851 609 873 638 q 797 559 830 580 q 719 527 764 538 q 743 448 735 490 q 751 358 751 406 q 726 205 751 273 q 655 89 701 137 q 544 15 609 41 q 400 -10 479 -10 q 255 15 320 -10 q 143 89 190 41 q 72 205 97 137 q 47 358 47 273 q 72 510 47 442 q 143 625 97 578 q 255 698 190 672 q 400 724 320 724 q 561 691 491 724 q 678 599 632 659 q 728 627 712 608 q 745 670 745 647 q 740 690 745 681 q 730 708 735 699 q 719 728 724 717 q 714 756 714 740 q 735 805 714 788 q 801 822 756 822 l 885 822 z "},"ư":{"ha":911,"x_min":78,"x_max":941,"o":"m 932 822 q 939 788 936 808 q 941 747 941 769 q 926 661 941 701 q 882 590 912 620 q 807 540 852 559 q 699 517 761 521 l 699 0 l 594 0 q 551 31 560 0 l 539 88 q 442 16 495 44 q 318 -11 390 -11 q 215 9 260 -11 q 140 65 170 28 q 93 150 109 101 q 78 260 78 200 l 78 713 l 249 713 l 249 260 q 280 159 249 194 q 370 123 310 123 q 453 143 415 123 q 527 197 492 163 l 527 713 l 699 713 l 699 593 q 769 620 745 599 q 792 670 792 642 q 788 690 792 681 q 777 708 783 699 q 766 728 771 717 q 761 756 761 740 q 782 805 761 788 q 848 822 803 822 l 932 822 z "},"₫":{"ha":860,"x_min":52,"x_max":800,"o":"m 61 -70 l 778 -70 l 778 -176 l 61 -176 l 61 -70 m 536 507 q 473 557 507 542 q 401 572 439 572 q 275 515 322 572 q 229 338 229 458 q 269 176 229 226 q 381 126 309 126 q 467 148 431 126 q 536 211 503 170 l 536 507 m 800 892 l 800 785 l 708 785 l 708 0 l 603 0 q 559 31 569 0 l 545 101 q 447 20 501 50 q 324 -10 394 -10 q 212 14 262 -10 q 126 84 162 39 q 72 192 91 128 q 52 333 52 256 q 74 482 52 414 q 136 599 96 550 q 233 675 176 648 q 360 702 290 702 q 461 683 420 702 q 536 632 503 665 l 536 785 l 372 785 l 372 892 l 536 892 l 536 1032 l 708 1032 l 708 892 l 800 892 z "},"○":{"ha":920,"x_min":79,"x_max":840,"o":"m 79 451 q 109 599 79 529 q 191 720 139 668 q 312 801 242 772 q 460 831 381 831 q 608 801 538 831 q 729 720 677 772 q 810 599 781 668 q 840 451 840 529 q 810 303 840 372 q 729 182 781 233 q 608 100 677 130 q 460 70 538 70 q 312 100 381 70 q 191 182 242 130 q 109 303 139 233 q 79 451 79 372 m 231 451 q 249 361 231 403 q 298 288 267 319 q 371 238 329 256 q 460 220 413 220 q 549 238 508 220 q 622 288 591 256 q 672 361 653 319 q 690 451 690 403 q 672 541 690 499 q 622 615 653 583 q 549 664 591 646 q 460 683 508 683 q 371 665 413 683 q 298 615 329 647 q 249 541 267 583 q 231 451 231 499 z "},"◌":{"ha":920,"x_min":78,"x_max":844,"o":"m 412 785 q 426 819 412 805 q 460 833 440 833 q 495 819 481 833 q 510 785 510 805 q 495 750 510 765 q 460 735 481 735 q 426 750 440 735 q 412 785 412 765 m 538 759 q 553 793 538 779 q 588 808 567 808 q 622 793 608 808 q 636 759 636 779 q 622 725 636 739 q 588 710 608 710 q 553 725 567 710 q 538 759 538 739 m 647 688 q 661 723 647 708 q 696 737 676 737 q 730 723 716 737 q 744 688 744 708 q 730 654 744 668 q 696 640 716 640 q 661 654 676 640 q 647 688 647 668 m 717 580 q 732 614 717 600 q 766 628 746 628 q 801 614 786 628 q 815 580 815 600 q 801 545 815 560 q 766 531 786 531 q 732 545 746 531 q 717 580 717 560 m 747 451 q 761 485 747 471 q 795 499 775 499 q 830 485 815 499 q 844 451 844 471 q 830 416 844 431 q 795 402 815 402 q 761 416 775 402 q 747 451 747 431 m 283 759 q 297 793 283 779 q 331 808 311 808 q 366 793 351 808 q 381 759 381 779 q 366 725 381 739 q 331 710 351 710 q 297 725 311 710 q 283 759 283 739 m 174 688 q 189 723 174 708 q 223 737 203 737 q 258 723 243 737 q 272 688 272 708 q 258 654 272 668 q 223 640 243 640 q 189 654 203 640 q 174 688 174 668 m 103 580 q 117 614 103 600 q 152 628 132 628 q 186 614 172 628 q 201 580 201 600 q 186 545 201 560 q 152 531 172 531 q 117 545 132 531 q 103 580 103 560 m 78 451 q 92 485 78 471 q 127 499 107 499 q 161 485 147 499 q 176 451 176 471 q 161 416 176 431 q 127 402 147 402 q 92 416 107 402 q 78 451 78 431 m 717 324 q 732 358 717 344 q 766 372 746 372 q 801 358 786 372 q 815 324 815 344 q 801 289 815 303 q 766 275 786 275 q 732 289 746 275 q 717 324 717 303 m 103 324 q 117 358 103 344 q 152 372 132 372 q 186 358 172 372 q 201 324 201 344 q 186 289 201 303 q 152 275 172 275 q 117 289 132 275 q 103 324 103 303 m 647 215 q 661 250 647 235 q 696 264 676 264 q 730 250 716 264 q 744 215 744 235 q 730 181 744 195 q 696 167 716 167 q 661 181 676 167 q 647 215 647 195 m 174 215 q 189 250 174 235 q 223 264 203 264 q 258 250 243 264 q 272 215 272 235 q 258 181 272 195 q 223 167 243 167 q 189 181 203 167 q 174 215 174 195 m 538 145 q 553 180 538 165 q 588 194 567 194 q 622 180 608 194 q 636 145 636 165 q 622 111 636 125 q 588 97 608 97 q 553 111 567 97 q 538 145 538 125 m 283 145 q 297 180 283 165 q 331 194 311 194 q 366 180 351 194 q 381 145 381 165 q 366 111 381 125 q 331 97 351 97 q 297 111 311 97 q 283 145 283 125 m 412 116 q 426 150 412 136 q 460 165 440 165 q 495 150 481 165 q 510 116 510 136 q 495 82 510 96 q 460 67 481 67 q 426 82 440 67 q 412 116 412 96 z "},"͏":{"ha":0,"x_min":0,"x_max":0,"o":""},"᷂":{"ha":0,"x_min":-106,"x_max":119,"o":"m -106 -60 q -95 -50 -106 -56 q -69 -39 -84 -44 q -38 -30 -54 -34 q -11 -26 -22 -26 q 6 -29 -2 -26 q 22 -36 14 -32 q 40 -45 31 -40 q 63 -56 49 -51 q 103 -78 87 -64 q 119 -113 119 -92 q 103 -148 119 -135 q 68 -168 88 -160 q 33 -179 49 -175 q 17 -187 17 -183 q 30 -193 17 -191 q 56 -201 42 -196 q 83 -218 71 -207 q 95 -249 95 -228 q 89 -272 95 -263 q 75 -287 83 -281 q 56 -298 66 -294 q 36 -305 45 -301 q 22 -312 28 -308 q 16 -322 16 -316 q 40 -342 16 -335 q 42 -346 42 -342 q 41 -350 42 -348 q 38 -353 40 -353 q -10 -336 8 -348 q -28 -303 -28 -324 q -17 -278 -28 -287 q 7 -264 -6 -269 q 31 -257 20 -259 q 42 -251 42 -254 q 35 -247 42 -249 q 17 -242 28 -244 q -6 -236 6 -240 q -30 -225 -19 -232 q -48 -209 -40 -219 q -55 -185 -55 -199 q -40 -152 -55 -165 q -7 -132 -25 -140 q 25 -120 10 -124 q 40 -110 40 -115 q 24 -102 40 -102 q 11 -104 15 -102 q 3 -108 7 -106 q -5 -111 -1 -110 q -18 -112 -10 -112 q -45 -106 -30 -111 q -73 -93 -60 -100 q -96 -77 -87 -85 q -106 -60 -106 -68 z "},"Ɓ":{"ha":1141,"x_min":23,"x_max":1083,"o":"m 715 146 q 802 158 767 146 q 858 192 837 171 q 889 240 879 213 q 898 299 898 268 q 888 358 898 332 q 855 402 877 384 q 798 431 833 421 q 713 440 763 440 l 525 440 l 525 146 l 715 146 m 525 860 l 525 569 l 674 569 q 819 604 769 569 q 868 715 868 639 q 824 826 868 793 q 685 860 779 860 l 525 860 m 685 1004 q 853 985 783 1004 q 968 932 923 967 q 1033 848 1013 897 q 1054 737 1054 799 q 1044 669 1054 701 q 1011 609 1033 637 q 956 558 990 581 q 876 519 923 535 q 1083 295 1083 472 q 1058 177 1083 231 q 988 84 1034 123 q 873 22 941 44 q 717 0 805 0 l 338 0 l 338 869 l 328 869 q 260 861 288 869 q 215 839 232 853 q 189 802 197 824 q 181 751 181 780 q 184 717 181 733 q 190 694 188 701 q 190 661 194 677 q 159 639 185 646 l 51 615 q 30 682 37 650 q 23 753 23 714 q 43 856 23 810 q 102 936 63 903 q 198 986 141 969 q 328 1004 254 1004 l 685 1004 z "},"Ƅ":{"ha":975,"x_min":19,"x_max":948,"o":"m 565 655 q 734 629 663 655 q 854 558 806 603 q 925 454 901 513 q 948 330 948 395 q 924 199 948 260 q 852 95 899 139 q 737 25 806 51 q 578 0 668 0 l 192 0 l 192 612 l 19 728 l 241 1004 l 378 1004 l 378 655 l 565 655 m 575 146 q 666 164 629 146 q 724 209 702 181 q 754 270 745 237 q 763 334 763 303 q 753 398 763 367 q 720 455 743 430 q 662 494 698 479 q 574 510 626 510 l 378 510 l 378 146 l 575 146 z "},"Ɔ":{"ha":923,"x_min":21,"x_max":869,"o":"m 121 237 q 138 233 130 237 q 152 223 145 229 q 198 188 175 202 q 248 165 222 174 q 305 151 274 156 q 374 147 335 147 q 493 171 437 147 q 590 240 549 195 q 655 351 631 285 q 678 502 678 417 q 656 652 678 586 q 594 763 634 717 q 498 832 553 808 q 374 856 442 856 q 276 844 315 856 q 211 817 237 831 q 167 790 185 802 q 135 777 150 777 q 111 783 119 777 q 97 798 102 790 l 34 885 q 178 979 93 943 q 374 1015 264 1015 q 575 977 484 1015 q 732 872 666 940 q 833 709 797 803 q 869 502 869 615 q 836 296 869 390 q 739 133 802 201 q 586 27 676 65 q 385 -11 497 -11 q 171 29 260 -11 q 21 145 82 69 l 94 225 q 121 237 106 237 z "},"Ƈ":{"ha":926,"x_min":54,"x_max":1110,"o":"m 736 997 q 747 1084 736 1042 q 784 1159 758 1126 q 853 1212 810 1192 q 960 1232 897 1232 q 1004 1230 984 1232 q 1041 1225 1024 1228 q 1076 1216 1059 1222 q 1110 1204 1092 1211 l 1086 1108 q 1077 1089 1083 1096 q 1063 1078 1071 1081 q 1047 1076 1056 1076 q 1031 1078 1039 1076 q 1007 1082 1020 1081 q 979 1084 993 1084 q 911 1051 932 1084 q 890 956 890 1019 l 890 885 l 828 798 q 813 783 822 790 q 789 777 804 777 q 768 783 778 777 q 744 798 757 789 q 713 817 731 806 q 673 836 696 827 q 619 850 650 844 q 549 856 589 856 q 427 832 483 856 q 331 763 371 808 q 268 652 290 717 q 246 502 246 586 q 269 351 246 417 q 334 240 293 285 q 431 171 376 195 q 550 147 486 147 q 619 151 588 147 q 676 165 650 156 q 726 188 703 174 q 772 223 749 202 q 787 233 779 229 q 803 237 794 237 q 829 225 818 237 l 903 145 q 753 29 842 69 q 538 -11 663 -11 q 338 27 427 -11 q 185 133 248 65 q 88 296 122 201 q 54 502 54 390 q 90 709 54 615 q 192 872 126 803 q 349 977 258 940 q 551 1015 440 1015 q 649 1007 603 1015 q 736 983 695 999 l 736 997 z "},"Ɗ":{"ha":1283,"x_min":23,"x_max":1230,"o":"m 722 149 q 854 173 795 149 q 953 243 913 197 q 1016 354 994 288 q 1038 502 1038 419 q 1016 650 1038 585 q 953 761 994 716 q 854 831 913 807 q 722 856 795 856 l 526 856 l 526 149 l 722 149 m 722 1004 q 929 967 835 1004 q 1090 864 1023 930 q 1193 705 1156 797 q 1230 502 1230 613 q 1193 299 1230 392 q 1090 140 1156 207 q 929 37 1023 74 q 722 0 835 0 l 338 0 l 338 869 l 328 869 q 260 861 288 869 q 215 839 232 853 q 189 802 197 824 q 181 751 181 780 q 184 717 181 733 q 190 694 188 701 q 190 661 194 677 q 159 639 185 646 l 51 615 q 30 682 37 650 q 23 753 23 714 q 43 856 23 810 q 102 936 63 903 q 198 986 141 969 q 328 1004 254 1004 l 722 1004 z "},"Ƌ":{"ha":874,"x_min":44,"x_max":763,"o":"m 576 146 l 576 443 l 413 443 q 325 433 360 443 q 269 403 290 422 q 238 356 247 384 q 229 294 229 328 q 238 236 229 263 q 269 189 247 209 q 325 157 290 169 q 413 146 360 146 l 576 146 m 763 1004 l 763 0 l 413 0 q 257 22 325 0 q 141 86 188 44 q 69 185 94 127 q 44 313 44 242 q 65 421 44 371 q 131 509 86 472 q 245 567 175 546 q 413 589 315 589 l 576 589 l 576 860 l 81 860 l 81 1004 l 763 1004 z "},"Ǝ":{"ha":794,"x_min":49,"x_max":683,"o":"m 683 0 l 49 0 l 49 149 l 494 149 l 494 433 l 144 433 l 144 577 l 494 577 l 494 856 l 49 856 l 49 1004 l 683 1004 l 683 0 z "},"Ə":{"ha":1017,"x_min":49,"x_max":963,"o":"m 230 406 q 247 300 230 349 q 297 217 264 252 q 376 163 329 183 q 484 144 424 144 q 594 162 545 144 q 678 215 642 181 q 735 298 713 249 q 766 406 758 347 l 230 406 m 60 856 q 151 935 102 903 q 254 985 201 966 q 362 1011 307 1003 q 471 1019 417 1019 q 665 984 575 1019 q 821 882 755 950 q 925 715 888 815 q 963 483 963 615 q 930 291 963 381 q 834 134 897 201 q 683 28 772 67 q 483 -11 594 -11 q 309 19 388 -11 q 172 107 229 49 q 82 250 114 165 q 49 442 49 334 q 52 487 49 469 q 60 515 54 505 q 77 530 67 526 q 104 534 88 534 l 769 534 q 675 776 758 696 q 450 856 592 856 q 345 841 390 856 q 268 810 301 827 q 209 778 235 792 q 161 764 184 764 q 135 770 147 764 q 117 785 124 776 l 60 856 z "},"Ɛ":{"ha":825,"x_min":58,"x_max":803,"o":"m 803 152 q 721 74 765 105 q 627 24 676 43 q 525 -2 578 6 q 417 -10 472 -10 q 288 9 352 -10 q 173 67 224 28 q 90 163 122 106 q 58 297 58 221 q 71 376 58 339 q 107 445 84 414 q 164 501 131 476 q 236 544 197 526 q 162 580 192 558 q 113 628 132 602 q 86 684 94 655 q 78 744 78 714 q 103 847 78 797 q 177 933 128 896 q 295 993 226 971 q 455 1016 365 1016 q 557 1008 510 1016 q 644 985 603 1000 q 718 949 684 970 q 780 903 751 928 l 738 830 q 714 804 726 809 q 692 799 701 799 q 659 809 677 799 q 615 831 642 819 q 548 853 588 843 q 450 863 508 863 q 371 853 404 863 q 317 825 338 842 q 286 784 296 807 q 276 735 276 760 q 325 636 276 670 q 465 602 374 602 l 632 602 l 632 469 l 449 469 q 359 455 397 469 q 297 419 322 441 q 261 369 273 397 q 250 315 250 342 q 264 249 250 279 q 305 195 278 218 q 373 160 333 173 q 467 147 413 147 q 548 155 514 147 q 606 177 581 164 q 647 204 630 190 q 677 230 664 219 q 692 240 684 236 q 708 244 700 244 q 735 232 724 244 l 803 152 z "},"Ƒ":{"ha":786,"x_min":-108,"x_max":745,"o":"m 299 856 l 299 558 l 676 558 l 676 409 l 299 409 l 299 27 q 285 -84 299 -33 q 239 -172 270 -135 q 161 -230 208 -209 q 49 -250 114 -250 q 0 -248 22 -250 q -39 -243 -21 -247 q -74 -234 -58 -239 q -108 -222 -91 -228 l -85 -126 q -75 -106 -81 -113 q -62 -96 -69 -99 q -45 -93 -54 -93 q -28 -95 -37 -93 q -5 -100 -18 -99 q 23 -101 9 -101 q 91 -69 70 -101 q 112 27 112 -36 l 112 1004 l 745 1004 l 745 856 l 299 856 z "},"Ɠ":{"ha":1014,"x_min":52,"x_max":1160,"o":"m 939 884 l 885 799 q 853 775 873 779 q 809 785 833 770 q 763 811 786 798 q 712 834 740 824 q 649 850 684 844 q 568 856 614 856 q 434 831 494 856 q 331 760 374 806 q 266 648 289 713 q 243 502 243 583 q 267 348 243 415 q 335 233 292 280 q 439 162 379 187 q 571 138 499 138 q 682 149 635 138 q 771 181 728 160 l 771 363 l 644 363 q 616 373 626 363 q 606 398 606 383 l 606 503 l 940 503 l 940 97 q 860 49 901 69 q 772 15 819 28 q 672 -5 726 2 q 557 -11 619 -11 q 355 27 447 -11 q 195 133 262 65 q 90 296 128 201 q 52 502 52 390 q 89 710 52 615 q 193 872 126 804 q 358 978 261 940 q 574 1015 454 1015 q 688 1006 635 1015 q 785 979 740 997 l 785 997 q 797 1084 785 1042 q 834 1159 808 1126 q 903 1212 860 1192 q 1010 1232 946 1232 q 1053 1230 1033 1232 q 1091 1225 1073 1228 q 1125 1216 1108 1222 q 1160 1204 1142 1211 l 1135 1108 q 1126 1089 1132 1096 q 1113 1078 1120 1081 q 1097 1076 1105 1076 q 1080 1078 1088 1076 q 1056 1082 1069 1081 q 1028 1084 1042 1084 q 960 1051 981 1084 q 939 956 939 1019 l 939 884 z "},"Ɣ":{"ha":961,"x_min":-31,"x_max":992,"o":"m 624 140 q 599 165 609 150 l 478 333 q 439 260 464 292 l 367 159 q 345 140 359 149 l 624 140 m 593 428 l 904 0 l 57 0 l 374 438 l -31 1004 l 151 1004 q 179 998 170 1004 q 198 978 188 992 l 491 551 l 773 978 q 790 998 781 991 q 813 1004 799 1004 l 992 1004 l 593 428 z "},"Ɩ":{"ha":471,"x_min":107,"x_max":449,"o":"m 107 1005 l 295 1005 l 295 229 q 315 155 295 178 q 381 132 334 132 l 449 132 l 449 72 q 438 34 449 49 q 406 9 426 19 q 361 -4 386 0 q 308 -8 335 -8 q 221 9 258 -8 q 158 57 183 26 q 120 128 133 87 q 107 219 107 170 l 107 1005 z "},"Ƙ":{"ha":985,"x_min":112,"x_max":979,"o":"m 299 583 l 342 583 q 388 591 369 583 q 421 619 406 598 l 577 869 q 630 937 601 909 q 692 982 658 965 q 765 1006 726 999 q 849 1013 804 1013 q 927 1007 897 1013 q 979 991 957 1001 l 963 897 q 953 877 959 884 q 940 867 947 870 q 925 864 933 864 q 909 865 917 863 q 886 869 900 867 q 859 871 872 871 q 793 855 822 871 q 747 810 765 838 l 612 599 q 539 533 583 553 q 582 510 563 525 q 619 469 601 494 l 964 0 l 799 0 q 750 9 766 0 q 722 37 733 19 l 442 406 q 411 433 428 425 q 360 442 393 442 l 299 442 l 299 0 l 112 0 l 112 1005 l 299 1005 l 299 583 z "},"Ɯ":{"ha":1517,"x_min":102,"x_max":1406,"o":"m 1406 1004 l 1406 3 l 1308 3 q 1249 47 1260 3 l 1229 146 q 1182 80 1207 109 q 1125 31 1156 51 q 1058 0 1094 10 q 976 -11 1021 -11 q 890 1 929 -11 q 819 34 851 13 q 765 87 788 56 q 725 157 741 118 q 667 80 701 112 q 595 28 634 49 q 515 -2 557 8 q 432 -11 473 -11 q 285 14 347 -11 q 183 88 224 40 q 122 207 142 136 q 102 367 102 277 l 102 1004 l 290 1004 l 290 367 q 303 265 290 309 q 340 191 317 221 q 397 147 364 162 q 470 132 431 132 q 548 147 513 132 q 608 191 583 162 q 646 265 633 221 q 660 367 660 309 l 660 1004 l 848 1004 l 848 367 q 857 269 848 313 q 886 195 867 226 q 938 148 906 165 q 1015 132 969 132 q 1132 178 1080 132 q 1217 322 1185 224 l 1217 1004 l 1406 1004 z "},"Ɲ":{"ha":1070,"x_min":-108,"x_max":958,"o":"m 958 1004 l 958 0 l 863 0 q 825 7 840 0 q 797 32 810 15 l 272 701 q 276 617 276 656 l 276 2 q 264 -109 276 -58 q 223 -197 251 -160 q 150 -254 194 -233 q 41 -274 105 -274 q -3 -273 17 -274 q -40 -267 -22 -271 q -74 -259 -58 -264 q -108 -247 -91 -253 l -85 -151 q -75 -131 -81 -138 q -62 -121 -69 -124 q -45 -118 -54 -118 q -28 -120 -37 -118 q -5 -125 -18 -123 q 23 -126 9 -126 q 91 -94 70 -126 q 112 2 112 -61 l 112 1004 l 210 1004 q 230 1003 222 1004 q 245 999 239 1002 q 258 990 252 996 q 272 974 265 984 l 799 302 q 795 350 797 326 q 794 394 794 374 l 794 1004 l 958 1004 z "},"Ɵ":{"ha":1122,"x_min":52,"x_max":1069,"o":"m 247 440 q 280 317 254 372 q 345 226 305 263 q 440 168 385 188 q 561 149 494 149 q 682 168 628 149 q 776 226 736 188 q 842 317 817 263 q 875 440 867 372 l 247 440 m 873 579 q 838 696 863 644 q 772 783 812 747 q 679 838 732 819 q 561 856 626 856 q 443 838 497 856 q 350 783 390 819 q 284 696 310 747 q 249 579 258 644 l 873 579 m 561 1015 q 705 998 638 1015 q 828 948 772 980 q 930 869 885 915 q 1006 766 974 823 q 1053 642 1037 709 q 1069 502 1069 576 q 1033 298 1069 392 q 930 135 997 203 q 769 27 863 66 q 561 -11 676 -11 q 353 27 447 -11 q 193 135 260 66 q 89 298 126 203 q 52 502 52 392 q 89 707 52 613 q 193 869 126 801 q 353 977 260 938 q 561 1015 447 1015 z "},"Ƣ":{"ha":1429,"x_min":53,"x_max":1324,"o":"m 529 144 q 648 169 595 144 q 738 240 701 194 q 794 353 774 287 q 813 502 813 419 q 794 651 813 585 q 738 764 774 717 q 648 836 701 811 q 529 861 595 861 q 410 836 463 861 q 321 764 358 811 q 265 651 284 717 q 245 502 245 585 q 265 353 245 419 q 321 240 284 287 q 410 169 358 194 q 529 144 463 144 m 1135 745 q 1129 792 1135 770 q 1111 829 1123 813 q 1080 854 1099 845 q 1036 863 1061 863 q 975 850 1004 863 q 919 815 945 838 q 982 672 960 751 q 1004 502 1004 593 q 972 298 1004 392 q 877 135 939 203 q 728 28 816 67 q 529 -10 640 -10 q 330 28 418 -10 q 180 135 242 67 q 86 298 119 203 q 53 502 53 392 q 86 707 53 613 q 180 869 119 801 q 330 977 242 938 q 529 1015 418 1015 q 701 988 624 1015 q 837 909 778 960 q 943 986 885 958 q 1076 1015 1001 1015 q 1183 996 1137 1015 q 1260 942 1229 977 q 1308 857 1292 907 q 1324 745 1324 807 l 1324 -239 l 1135 -239 l 1135 745 z "},"Ƥ":{"ha":1086,"x_min":23,"x_max":1055,"o":"m 665 499 q 755 512 717 499 q 818 549 793 525 q 856 607 843 573 q 868 684 868 642 q 856 757 868 724 q 818 813 843 790 q 755 848 793 835 q 665 860 717 860 l 525 860 l 525 499 l 665 499 m 665 1004 q 840 981 766 1004 q 961 915 913 957 q 1032 813 1009 872 q 1055 684 1055 754 q 1031 550 1055 611 q 958 446 1006 490 q 836 378 909 402 q 665 353 763 353 l 525 353 l 525 0 l 338 0 l 338 869 l 328 869 q 260 861 288 869 q 215 839 232 853 q 189 802 197 824 q 181 751 181 780 q 184 717 181 733 q 190 694 188 701 q 190 661 194 677 q 159 639 185 646 l 51 615 q 30 682 37 650 q 23 753 23 714 q 43 856 23 810 q 102 936 63 903 q 198 986 141 969 q 328 1004 254 1004 l 665 1004 z "},"Ʀ":{"ha":853,"x_min":112,"x_max":896,"o":"m 415 383 q 507 396 468 383 q 572 432 547 409 q 610 488 597 456 q 622 558 622 519 q 572 675 622 634 q 418 716 522 716 l 299 716 l 299 383 l 415 383 m 896 -144 l 727 -144 q 658 -106 678 -144 l 447 215 q 420 241 435 233 q 378 249 406 249 l 299 249 l 299 0 l 112 0 l 112 1015 l 299 1015 l 299 860 l 418 860 q 593 839 520 860 q 714 780 667 818 q 783 689 760 742 q 805 572 805 635 q 790 476 805 521 q 748 394 776 431 q 678 329 719 357 q 584 285 637 301 q 617 261 601 275 q 644 227 632 247 l 896 -144 z "},"Ƨ":{"ha":756,"x_min":42,"x_max":721,"o":"m 72 910 q 200 988 125 960 q 364 1015 275 1015 q 504 992 443 1015 q 607 929 565 968 q 670 838 649 890 q 692 732 692 787 q 673 618 692 665 q 620 539 653 572 q 546 486 588 507 q 460 450 504 466 q 375 420 417 434 q 301 386 333 406 q 248 340 268 367 q 228 272 228 313 q 271 174 228 206 q 385 142 313 142 q 474 156 437 142 q 539 188 511 170 q 586 219 567 205 q 624 233 606 233 q 648 227 638 233 q 666 210 659 220 l 721 121 q 654 67 692 91 q 574 25 617 42 q 485 -2 531 8 q 390 -11 438 -11 q 242 11 307 -11 q 133 73 178 33 q 65 169 88 113 q 42 293 42 225 q 62 398 42 354 q 115 473 82 442 q 189 526 147 504 q 274 564 231 547 q 360 596 318 581 q 434 630 401 611 q 487 675 467 649 q 507 737 507 700 q 498 787 507 764 q 470 827 489 810 q 425 853 452 844 q 362 863 398 863 q 287 852 319 863 q 232 828 256 842 q 191 805 208 815 q 160 794 174 794 q 136 800 146 794 q 118 822 126 807 l 72 910 z "},"Ƭ":{"ha":949,"x_min":25,"x_max":928,"o":"m 928 851 l 626 851 l 626 0 l 440 0 l 440 851 l 331 851 q 259 845 288 851 q 214 826 231 839 q 190 795 197 814 q 183 749 183 776 q 186 717 183 733 q 192 694 190 701 q 195 677 194 685 q 192 661 195 669 q 182 648 189 654 q 161 639 174 642 l 53 615 q 32 682 40 650 q 25 753 25 714 q 45 856 25 810 q 104 936 65 903 q 200 986 143 969 q 331 1004 257 1004 l 928 1004 l 928 851 z "},"Ʈ":{"ha":833,"x_min":21,"x_max":813,"o":"m 510 -19 q 534 -113 510 -78 q 609 -148 558 -148 q 644 -144 629 -148 q 669 -140 658 -140 q 690 -146 679 -140 q 707 -172 701 -152 l 726 -247 q 659 -268 692 -261 q 588 -274 627 -274 q 466 -254 516 -274 q 384 -197 416 -233 q 338 -110 352 -160 q 324 1 324 -60 l 324 851 l 21 851 l 21 1004 l 813 1004 l 813 851 l 510 851 l 510 -19 z "},"Ʊ":{"ha":1133,"x_min":59,"x_max":1074,"o":"m 567 -11 q 373 24 463 -11 q 216 120 283 58 q 111 266 149 181 q 74 450 74 350 q 94 588 74 523 q 151 706 115 653 q 239 799 188 759 q 352 862 290 839 q 285 854 319 857 q 219 851 251 851 l 59 851 l 59 946 q 76 988 59 972 q 122 1004 92 1004 l 490 1004 l 490 793 q 400 756 442 785 q 327 681 358 726 q 277 577 295 635 q 259 452 259 518 q 284 318 259 375 q 350 224 308 261 q 448 167 392 186 q 566 149 503 149 q 684 167 628 149 q 782 224 740 186 q 849 318 824 261 q 874 452 874 375 q 856 577 874 518 q 806 681 838 635 q 732 756 774 726 q 642 793 690 785 l 642 1004 l 1011 1004 q 1057 988 1040 1004 q 1074 946 1074 972 l 1074 851 l 914 851 q 848 854 881 851 q 781 862 814 857 q 894 799 842 839 q 982 706 945 759 q 1039 588 1019 653 q 1060 450 1060 523 q 1022 266 1060 350 q 917 120 983 181 q 761 24 851 58 q 567 -11 671 -11 z "},"Ʋ":{"ha":1019,"x_min":103,"x_max":965,"o":"m 558 988 q 625 1009 593 1001 q 698 1016 658 1016 q 899 933 833 1016 q 965 697 965 851 q 944 512 965 601 q 884 344 922 422 q 793 200 846 265 q 676 88 740 135 q 542 15 613 41 q 396 -11 471 -11 q 278 9 332 -11 q 185 72 224 30 q 125 178 147 114 q 103 331 103 242 l 103 1004 l 290 1004 l 290 331 q 300 247 290 282 q 327 189 310 212 q 369 156 344 167 q 424 145 394 145 q 507 164 465 145 q 588 217 549 182 q 663 302 628 252 q 723 414 697 351 q 764 550 749 476 q 778 707 778 624 q 775 768 778 739 q 762 819 772 797 q 734 854 752 841 q 686 867 716 867 q 662 866 675 867 q 638 861 649 865 q 621 859 630 859 q 605 862 613 859 q 592 872 598 865 q 583 892 586 879 l 558 988 l 558 988 z "},"Ƴ":{"ha":1024,"x_min":-10,"x_max":1019,"o":"m 631 853 q 683 928 656 897 q 740 978 710 959 q 805 1007 771 998 q 881 1015 840 1015 q 919 1014 901 1015 q 953 1008 937 1012 q 985 999 969 1004 q 1019 988 1001 994 l 995 897 q 986 877 992 884 q 972 866 980 869 q 956 864 965 863 q 939 866 947 864 q 917 872 931 868 q 888 875 903 875 q 833 859 856 875 q 790 809 810 842 l 542 390 l 542 0 l 356 0 l 356 390 l -10 1004 l 154 1004 q 193 992 178 1004 q 217 963 208 981 l 401 627 q 428 571 416 597 q 450 519 440 545 q 472 572 459 546 q 500 627 484 598 l 631 853 z "},"Ƶ":{"ha":845,"x_min":30,"x_max":806,"o":"m 806 935 q 788 877 806 903 l 580 584 l 778 584 l 778 446 l 482 446 l 272 149 l 794 149 l 794 0 l 30 0 l 30 74 q 35 100 30 88 q 47 124 40 113 l 274 446 l 81 446 l 81 584 l 372 584 l 564 856 l 63 856 l 63 1004 l 806 1004 l 806 935 z "},"Ʒ":{"ha":822,"x_min":23,"x_max":768,"o":"m 458 626 q 599 597 540 621 q 695 536 658 574 q 750 450 733 499 q 768 346 768 401 q 734 195 768 261 q 645 84 701 129 q 517 14 589 38 q 367 -10 444 -10 q 178 30 267 -10 q 23 152 89 70 l 96 233 q 114 246 106 244 q 127 247 122 247 q 145 244 137 247 q 171 226 154 240 q 199 201 182 215 q 239 175 215 188 q 294 155 263 163 q 366 147 326 147 q 458 162 419 147 q 524 204 498 178 q 564 265 551 231 q 577 338 577 300 q 565 401 577 372 q 527 450 553 429 q 460 482 501 470 q 358 493 418 493 l 223 493 l 223 573 q 228 602 223 587 q 249 631 234 617 l 481 856 l 59 856 l 59 1004 l 739 1004 l 739 935 q 734 903 739 920 q 711 868 729 886 l 458 626 z "},"Ƹ":{"ha":822,"x_min":54,"x_max":799,"o":"m 799 152 q 643 30 733 70 q 455 -10 554 -10 q 305 14 377 -10 q 177 84 233 38 q 88 195 121 129 q 54 346 54 261 q 72 450 54 401 q 126 536 89 499 q 223 597 164 574 q 364 626 281 621 l 111 868 q 88 903 93 886 q 83 935 83 920 l 83 1004 l 763 1004 l 763 856 l 342 856 l 573 631 q 593 602 588 617 q 599 573 599 587 l 599 493 l 464 493 q 362 482 403 493 q 294 450 320 470 q 257 401 268 429 q 245 338 245 372 q 258 265 245 300 q 298 204 272 231 q 364 162 324 178 q 456 147 403 147 q 528 155 497 147 q 583 175 559 163 q 623 201 606 188 q 651 226 640 215 q 676 244 667 240 q 694 247 685 247 q 708 246 700 247 q 726 233 717 244 l 799 152 z "}}}
